<svg width="127" height="37" viewBox="0 0 127 37" fill="none" xmlns="http://www.w3.org/2000/svg">
<path d="M17.5361 15.752C17.8174 15.752 17.958 15.9805 17.958 16.4375C17.958 16.8828 17.8584 17.6562 17.6592 18.7578C17.5068 19.4961 16.6631 20.5508 15.1279 21.9219C13.2764 23.5625 11.2432 24.7344 9.02832 25.4375C7.69238 25.8594 6.38574 26.0703 5.1084 26.0703C3.84277 26.0703 2.68262 25.5371 1.62793 24.4707C0.584961 23.3926 0.0634766 22.1211 0.0634766 20.6562C0.0634766 19.1797 0.356445 17.6562 0.942383 16.0859C1.54004 14.5039 2.33691 12.998 3.33301 11.5684C4.34082 10.127 5.52441 8.74414 6.88379 7.41992C8.25488 6.0957 9.67871 4.94727 11.1553 3.97461C12.6318 3.00195 14.1787 2.22852 15.7959 1.6543C17.4131 1.08008 18.9482 0.792969 20.4014 0.792969C21.5498 0.792969 22.5283 1.20898 23.3369 2.04102C23.7588 2.48633 23.9697 3.04883 23.9697 3.72852C23.9697 4.39648 23.6416 5.24609 22.9854 6.27734C22.3291 7.29688 21.5498 8.22852 20.6475 9.07227C19.7568 9.91602 18.8311 10.6309 17.8701 11.2168C16.9209 11.8027 16.1592 12.0957 15.585 12.0957C15.0107 12.0957 14.5186 11.9199 14.1084 11.5684C13.6982 11.2051 13.4932 10.8828 13.4932 10.6016C13.4932 10.3203 13.5518 10.0098 13.6689 9.66992C13.7979 9.33008 13.9561 9.16016 14.1436 9.16016C14.0967 9.21875 14.0732 9.27734 14.0732 9.33594C14.0732 9.47656 14.2725 9.54688 14.6709 9.54688C15.0811 9.54688 15.7607 9.18945 16.71 8.47461C17.6592 7.75977 18.5146 6.95703 19.2764 6.06641C20.0498 5.17578 20.4365 4.50781 20.4365 4.0625C20.4365 3.75781 20.2314 3.60547 19.8213 3.60547C18.7197 3.60547 17.1963 4.12109 15.251 5.15234C13.3174 6.17188 11.4658 7.49023 9.69629 9.10742C7.92676 10.7246 6.38574 12.6465 5.07324 14.873C3.77246 17.0879 3.12207 19.0801 3.12207 20.8496C3.12207 21.5879 3.31543 22.1797 3.70215 22.625C4.10059 23.0703 4.7041 23.293 5.5127 23.293C6.33301 23.293 7.2998 23.0586 8.41309 22.5898C9.52637 22.1211 10.5811 21.5469 11.5771 20.8672C12.585 20.1875 13.5342 19.4902 14.4248 18.7754C15.3154 18.0605 16.0244 17.4336 16.5518 16.8945C17.0908 16.3555 17.3662 16.0332 17.3779 15.9277C17.3896 15.8105 17.4424 15.752 17.5361 15.752ZM32.1436 12.6406C33.0342 12.6406 33.4795 12.9453 33.4795 13.5547C33.4795 13.8828 33.4033 14.123 33.251 14.2754C33.0986 14.4277 32.7705 14.9375 32.2666 15.8047C31.7744 16.6602 31.2236 17.7617 30.6143 19.1094C30.0166 20.4453 29.6299 21.5879 29.4541 22.5371C29.4189 22.6543 29.4014 22.8184 29.4014 23.0293C29.4014 23.6738 29.5771 23.9961 29.9287 23.9961C30.2803 23.9961 30.6963 23.832 31.1768 23.5039C31.6572 23.1641 32.085 22.8066 32.46 22.4316C32.835 22.0449 33.1982 21.6523 33.5498 21.2539C33.9131 20.8555 34.1299 20.627 34.2002 20.5684C34.2705 20.5098 34.376 20.4805 34.5166 20.4805C34.7393 20.4805 34.874 20.6504 34.9209 20.9902C34.9678 21.3301 34.9912 21.6816 34.9912 22.0449C34.9912 22.4082 34.9561 22.6602 34.8857 22.8008C34.5459 23.4688 33.7959 24.2715 32.6357 25.209C31.4873 26.1465 30.4385 26.6152 29.4893 26.6152C28.5518 26.6152 27.8604 26.3281 27.415 25.7539C26.9697 25.1797 26.7471 24.5469 26.7471 23.8555C26.7471 23.1523 26.8643 22.5371 27.0986 22.0098C26.126 23.2754 25.0068 24.3477 23.7412 25.2266C22.4873 26.1055 21.4619 26.5449 20.665 26.5449C19.8682 26.5449 19.2178 26.3047 18.7139 25.8242C18.0693 25.2266 17.7471 24.4004 17.7471 23.3457C17.7471 22.2793 17.9814 21.2129 18.4502 20.1465C18.9307 19.0684 19.5576 18.0898 20.3311 17.2109C21.1045 16.3203 21.9541 15.5117 22.8799 14.7852C24.8252 13.2617 26.6182 12.5 28.2588 12.5C28.8916 12.5 29.4072 12.6055 29.8057 12.8164C30.2041 13.0273 30.4561 13.291 30.5615 13.6074C30.8428 13.1855 31.0771 12.9219 31.2646 12.8164C31.4639 12.6992 31.7568 12.6406 32.1436 12.6406ZM29.8057 14.5918C27.8018 14.5918 25.7275 15.7051 23.583 17.9316C22.8213 18.7285 22.1182 19.6836 21.4736 20.7969C20.8408 21.9102 20.5244 22.6719 20.5244 23.082C20.5244 23.4922 20.6416 23.6973 20.876 23.6973C21.2041 23.6973 22.1182 23.0527 23.6182 21.7637C25.1182 20.4629 26.1143 19.5078 26.6064 18.8984C27.1455 18.2188 28.2119 16.7832 29.8057 14.5918ZM45.4854 3.35938L46.2061 3.53516C46.3115 3.53516 46.4053 3.58789 46.4873 3.69336C46.5693 3.79883 46.6104 3.89844 46.6104 3.99219C46.6104 4.08594 46.4873 4.33789 46.2412 4.74805C45.9951 5.1582 45.7021 5.62695 45.3623 6.1543C45.0342 6.66992 44.8584 6.95117 44.835 6.99805C45.749 6.92773 46.3936 6.89258 46.7686 6.89258C47.1553 6.89258 47.4189 6.92188 47.5596 6.98047C47.7002 7.02734 47.8584 7.17383 48.0342 7.41992C48.2217 7.6543 48.3916 7.83594 48.5439 7.96484C48.6963 8.08203 48.7725 8.26367 48.7725 8.50977C48.7725 8.75586 48.6201 8.9668 48.3154 9.14258C48.0225 9.30664 47.7061 9.40625 47.3662 9.44141C44.6475 9.71094 43.1475 9.85156 42.8662 9.86328C41.917 11.3164 40.5869 13.584 38.876 16.666C37.1768 19.7363 36.2744 21.6582 36.1689 22.4316C36.1221 22.7832 36.0986 23.0703 36.0986 23.293C36.0986 23.75 36.3389 23.9785 36.8193 23.9785C37.2998 23.9785 37.833 23.7969 38.4189 23.4336C39.0049 23.0586 39.5439 22.6543 40.0361 22.2207C41.3486 21.0488 42.0518 20.4629 42.1455 20.4629C42.4502 20.4629 42.6025 20.9902 42.6025 22.0449C42.6025 22.6191 42.3389 23.1348 41.8115 23.5918C40.6279 24.6113 39.6318 25.3789 38.8232 25.8945C38.0146 26.4102 37.2061 26.668 36.3975 26.668C36.2217 26.668 36.0576 26.6504 35.9053 26.6152C34.9678 26.4395 34.2764 26.0996 33.8311 25.5957C33.3975 25.0801 33.1807 24.3887 33.1807 23.5215C33.1924 22.6543 33.4502 21.6055 33.9541 20.375C34.4697 19.1328 35.1143 17.8145 35.8877 16.4199C37.1533 14.1465 38.4189 12.0137 39.6846 10.0215L39.0166 10.1094C37.6572 10.2617 36.8662 10.3379 36.6436 10.3379H36.4854C36.1455 10.3379 35.8174 10.2734 35.501 10.1445C35.1846 10.0039 35.0264 9.83398 35.0264 9.63477C35.0264 9.43555 35.1084 9.24219 35.2725 9.05469C35.4482 8.86719 35.5537 8.7207 35.5889 8.61523C35.6709 8.35742 35.9756 8.07031 36.5029 7.75391C37.042 7.4375 37.4463 7.27344 37.7158 7.26172C37.9854 7.23828 38.2432 7.2207 38.4893 7.20898C38.7471 7.19727 39.0283 7.18555 39.333 7.17383C39.6494 7.16211 39.8896 7.15039 40.0537 7.13867L41.6357 7.06836C42.6201 5.5918 43.2939 4.64258 43.6572 4.2207C44.0322 3.79883 44.249 3.57031 44.3076 3.53516C44.3662 3.48828 44.4834 3.46484 44.6592 3.46484L45.4854 3.35938ZM53.2197 12.8516C53.2197 13.625 52.9033 14.3047 52.2705 14.8906C51.6494 15.4766 50.9404 15.7695 50.1436 15.7695C49.8857 15.7695 49.7158 15.7109 49.6338 15.5938C49.5518 15.4648 49.5107 15.3008 49.5107 15.1016C49.5107 14.9023 49.5342 14.709 49.5811 14.5215C49.1592 14.6621 48.6904 14.8789 48.1748 15.1719C47.6592 15.4648 47.0264 15.8984 46.2764 16.4727C45.5264 17.0469 45.1514 17.4746 45.1514 17.7559C45.1514 17.8496 45.2861 17.8965 45.5557 17.8965C45.8369 17.8965 46.2646 17.8027 46.8389 17.6152C47.4131 17.416 47.8115 17.3164 48.0342 17.3164C48.2686 17.3164 48.4209 17.3281 48.4912 17.3516C48.6436 17.4336 48.8076 17.6152 48.9834 17.8965C49.1592 18.166 49.2471 18.3828 49.2471 18.5469C49.2471 18.6992 49.0947 18.9043 48.79 19.1621C48.4854 19.4199 48.1396 19.6191 47.7529 19.7598C47.3662 19.8887 47.1084 19.9883 46.9795 20.0586C44.5068 21.4414 43.2705 22.3906 43.2705 22.9062C43.2705 23.8203 44.0498 24.2773 45.6084 24.2773C46.6045 24.2773 47.6064 23.9609 48.6143 23.3281C49.4697 22.7891 50.2373 22.2441 50.917 21.6934C51.6084 21.1309 52.042 20.7852 52.2178 20.6562C52.4053 20.5273 52.5459 20.4629 52.6396 20.4629C52.9443 20.4629 53.0967 20.8027 53.0967 21.4824C53.0967 22.1621 53.0557 22.6133 52.9736 22.8359C52.8916 23.0469 52.6572 23.3105 52.2705 23.627C49.7627 25.666 47.3896 26.6855 45.1514 26.6855C43.9561 26.6855 43.001 26.5215 42.2861 26.1934C40.9736 25.5957 40.3174 24.6816 40.3174 23.4512C40.3174 21.834 41.4365 20.6094 43.6748 19.7773C43.2295 19.5781 42.9424 19.3262 42.8135 19.0215C42.6846 18.7051 42.6201 18.207 42.6201 17.5273C42.6201 16.8359 42.9365 16.1094 43.5693 15.3477C44.2139 14.5742 44.999 13.9414 45.9248 13.4492C47.9873 12.3359 49.8271 11.7793 51.4443 11.7793C51.8311 11.7793 52.2236 11.873 52.6221 12.0605C53.0205 12.248 53.2197 12.5117 53.2197 12.8516ZM58.0186 14.3281C59.1553 13.543 60.2686 12.9395 61.3584 12.5176C62.4482 12.0957 63.3916 11.8848 64.1885 11.8848C64.9854 11.8848 65.4951 12.1133 65.7178 12.5703C66.1748 12.043 66.7432 11.7617 67.4229 11.7266C67.6221 11.7148 67.8682 11.709 68.1611 11.709C68.4541 11.709 68.6357 11.75 68.7061 11.832C68.7764 11.9023 68.8408 12.043 68.8994 12.2539C68.958 12.4648 68.9932 12.582 69.0049 12.6055C69.0166 12.6289 69.0225 12.6699 69.0225 12.7285C69.0225 12.7754 68.9932 12.8398 68.9346 12.9219C68.876 12.9922 68.8057 13.0625 68.7236 13.1328C68.6533 13.2031 68.6123 13.2441 68.6006 13.2559C66.0107 16.9707 63.3623 21.207 60.6553 25.9648C63.4443 23.4922 65.9404 21.7168 68.1436 20.6387C68.2842 20.5684 68.4189 20.5332 68.5479 20.5332C68.7354 20.5332 68.8584 20.6562 68.917 20.9023C68.9756 21.1367 69.0049 21.4766 69.0049 21.9219C69.0049 22.3672 68.9756 22.6426 68.917 22.748C68.8701 22.8535 68.6006 23.0645 68.1084 23.3809C67.6162 23.6973 66.9775 24.1074 66.1924 24.6113C65.4072 25.1152 64.5752 25.6719 63.6963 26.2812C61.5869 27.7461 59.8525 29.2871 58.4932 30.9043C56.7354 33.0254 55.4756 34.7363 54.7139 36.0371C54.4326 36.541 53.958 36.793 53.29 36.793C51.9658 36.793 51.3037 36.166 51.3037 34.9121C51.3037 33.6348 51.9307 32.3281 53.1846 30.9922C54.1221 29.9961 54.9834 29.1816 55.7686 28.5488C56.5537 27.916 56.9814 27.5586 57.0518 27.4766C57.9189 26.1758 59.0967 24.3301 60.585 21.9395C59.3193 23.2637 58.0889 24.3184 56.8936 25.1035C55.71 25.8887 54.8252 26.2812 54.2393 26.2812C52.4463 26.2812 51.5498 25.5137 51.5498 23.9785C51.5498 22.7598 51.8604 21.5293 52.4814 20.2871C53.1025 19.0449 53.8994 17.9375 54.8721 16.9648C55.8447 15.9805 56.8936 15.1016 58.0186 14.3281ZM64.7158 13.8711C63.3564 14.1641 62.0791 14.6504 60.8838 15.3301C59.6885 15.998 58.7041 16.7188 57.9307 17.4922C57.1572 18.2539 56.4893 19.0391 55.9268 19.8477C54.8721 21.3594 54.3447 22.5312 54.3447 23.3633C54.3447 23.5625 54.3916 23.6621 54.4854 23.6621C54.5908 23.6621 54.8135 23.5566 55.1533 23.3457C55.5049 23.1348 55.9971 22.7773 56.6299 22.2734C57.2627 21.7578 57.9658 21.1484 58.7393 20.4453C60.5322 18.793 62.5244 16.6016 64.7158 13.8711ZM79.5693 12.6055C79.9209 12.6055 80.2783 12.7637 80.6416 13.0801C81.0166 13.3965 81.2041 13.8828 81.2041 14.5391C81.2041 15.1836 80.9756 16.0273 80.5186 17.0703C80.0615 18.1016 79.4346 19.1562 78.6377 20.2344C77.8408 21.3008 76.9619 22.3086 76.001 23.2578C75.0518 24.1953 74.0205 24.9688 72.9072 25.5781C71.8057 26.1758 70.8037 26.4746 69.9014 26.4746C68.999 26.4746 68.2725 26.1934 67.7217 25.6309C67.1826 25.0566 66.9131 24.2656 66.9131 23.2578C66.9131 22.2383 67.1592 21.1133 67.6514 19.8828C68.1553 18.6523 68.7998 17.5684 69.585 16.6309C70.3701 15.6816 71.2197 14.832 72.1338 14.082C74.0439 12.5469 75.7197 11.7793 77.1611 11.7793C77.8057 11.7793 78.292 11.9375 78.6201 12.2539C78.7373 12.3594 78.7959 12.4531 78.7959 12.5352V12.6406C78.96 12.6172 79.2178 12.6055 79.5693 12.6055ZM77.7939 14.9434H77.6709C77.2607 14.9434 77.0557 14.6445 77.0557 14.0469C76.2002 14.3281 75.3037 14.8203 74.3662 15.5234C73.4287 16.2266 72.5908 17.0586 71.8525 18.0195C70.3525 19.9414 69.5908 21.5645 69.5674 22.8887C69.5674 23.5449 69.8076 23.873 70.2881 23.873C70.7686 23.873 71.4834 23.5566 72.4326 22.9238C73.3818 22.291 74.3193 21.3887 75.2451 20.2168C76.1826 19.0449 76.8799 18.0312 77.3369 17.1758C77.8057 16.3086 78.04 15.7227 78.04 15.418C78.04 15.1016 77.958 14.9434 77.7939 14.9434ZM86.5654 16.4199C89.3311 13.2793 91.6865 11.709 93.6318 11.709C94.1123 11.709 94.5049 11.8555 94.8096 12.1484C95.126 12.4297 95.2842 12.7988 95.2842 13.2559C95.2842 13.7129 94.9561 14.4805 94.2998 15.5586C93.6553 16.625 93.0576 17.5273 92.5068 18.2656C92.2139 18.6406 91.8799 18.8281 91.5049 18.8281C91.1416 18.8281 90.8545 18.6934 90.6436 18.4238C90.4443 18.1543 90.3447 17.8379 90.3447 17.4746C90.3447 16.666 90.7783 15.752 91.6455 14.7324L91.6104 14.6973C91.2236 14.7324 90.2627 15.4941 88.7275 16.9824C87.2041 18.4707 85.9033 19.8066 84.8252 20.9902C83.7588 22.1621 82.5986 23.5918 81.3447 25.2793C80.9814 25.7832 80.6709 26.0352 80.4131 26.0352C80.167 26.0352 79.8389 25.959 79.4287 25.8066C79.0068 25.6426 78.7549 25.5254 78.6729 25.4551C78.5791 25.3848 78.5322 25.2676 78.5322 25.1035C78.5322 24.9395 78.5791 24.752 78.6729 24.541C78.7666 24.3184 78.9424 24.0078 79.2002 23.6094C79.4463 23.2109 79.8213 22.5664 80.3252 21.6758C80.8408 20.7852 81.6377 19.4375 82.7158 17.6328C83.7939 15.8281 84.4385 14.7383 84.6494 14.3633C85.0947 13.5898 85.458 13.0273 85.7393 12.6758C86.2666 12.0078 87.1572 11.6738 88.4111 11.6738C88.6924 11.6738 88.833 11.8496 88.833 12.2012C88.833 12.752 88.3232 13.7891 87.3037 15.3125L86.5654 16.4199ZM104.847 6.69922C104.847 7.36719 104.536 8.04102 103.915 8.7207C103.294 9.38867 102.644 9.72266 101.964 9.72266C101.296 9.72266 100.962 9.37109 100.962 8.66797C100.962 7.96484 101.255 7.29688 101.841 6.66406C102.438 6.01953 103.095 5.69727 103.81 5.69727C104.126 5.69727 104.378 5.78516 104.565 5.96094C104.753 6.13672 104.847 6.38281 104.847 6.69922ZM101.999 22.0449C101.999 22.3965 101.964 22.6484 101.894 22.8008C101.319 23.9727 100.405 24.9219 99.1514 25.6484C97.8975 26.3633 96.8076 26.7207 95.8818 26.7207C94.9561 26.7207 94.1592 26.4102 93.4912 25.7891C92.8232 25.168 92.4893 24.5352 92.4893 23.8906C92.4893 23.2461 92.8115 22.3086 93.4561 21.0781C94.1006 19.8477 94.7451 18.7109 95.3896 17.668C96.0342 16.625 96.3564 16.0625 96.3564 15.9805C96.3564 15.8867 96.2334 15.7109 95.9873 15.4531C95.7529 15.1953 95.6357 15.0078 95.6357 14.8906C95.6357 14.7617 95.876 14.4395 96.3564 13.9238C96.8486 13.3965 97.4404 12.8809 98.1318 12.377C98.835 11.8613 99.3682 11.6035 99.7314 11.6035C100.106 11.6035 100.44 11.7676 100.733 12.0957C101.026 12.4238 101.173 12.7227 101.173 12.9922C101.173 13.2617 99.7783 15.7988 96.9893 20.6035C96.9541 20.6738 96.8545 20.832 96.6904 21.0781C96.5381 21.3125 96.415 21.5117 96.3213 21.6758C96.2393 21.8281 96.1396 22.0156 96.0225 22.2383C95.7881 22.707 95.6709 23.0996 95.6709 23.416C95.6709 23.8145 95.9404 24.0137 96.4795 24.0137C97.0186 24.0137 97.5752 23.832 98.1494 23.4688C98.7354 23.0938 99.2393 22.6836 99.6611 22.2383C100.763 21.0547 101.39 20.4629 101.542 20.4629C101.847 20.4629 101.999 20.9902 101.999 22.0449ZM112.81 12.8516C112.81 13.625 112.493 14.3047 111.86 14.8906C111.239 15.4766 110.53 15.7695 109.733 15.7695C109.476 15.7695 109.306 15.7109 109.224 15.5938C109.142 15.4648 109.101 15.3008 109.101 15.1016C109.101 14.9023 109.124 14.709 109.171 14.5215C108.749 14.6621 108.28 14.8789 107.765 15.1719C107.249 15.4648 106.616 15.8984 105.866 16.4727C105.116 17.0469 104.741 17.4746 104.741 17.7559C104.741 17.8496 104.876 17.8965 105.146 17.8965C105.427 17.8965 105.854 17.8027 106.429 17.6152C107.003 17.416 107.401 17.3164 107.624 17.3164C107.858 17.3164 108.011 17.3281 108.081 17.3516C108.233 17.4336 108.397 17.6152 108.573 17.8965C108.749 18.166 108.837 18.3828 108.837 18.5469C108.837 18.6992 108.685 18.9043 108.38 19.1621C108.075 19.4199 107.729 19.6191 107.343 19.7598C106.956 19.8887 106.698 19.9883 106.569 20.0586C104.097 21.4414 102.86 22.3906 102.86 22.9062C102.86 23.8203 103.64 24.2773 105.198 24.2773C106.194 24.2773 107.196 23.9609 108.204 23.3281C109.06 22.7891 109.827 22.2441 110.507 21.6934C111.198 21.1309 111.632 20.7852 111.808 20.6562C111.995 20.5273 112.136 20.4629 112.229 20.4629C112.534 20.4629 112.687 20.8027 112.687 21.4824C112.687 22.1621 112.646 22.6133 112.563 22.8359C112.481 23.0469 112.247 23.3105 111.86 23.627C109.353 25.666 106.979 26.6855 104.741 26.6855C103.546 26.6855 102.591 26.5215 101.876 26.1934C100.563 25.5957 99.9072 24.6816 99.9072 23.4512C99.9072 21.834 101.026 20.6094 103.265 19.7773C102.819 19.5781 102.532 19.3262 102.403 19.0215C102.274 18.7051 102.21 18.207 102.21 17.5273C102.21 16.8359 102.526 16.1094 103.159 15.3477C103.804 14.5742 104.589 13.9414 105.515 13.4492C107.577 12.3359 109.417 11.7793 111.034 11.7793C111.421 11.7793 111.813 11.873 112.212 12.0605C112.61 12.248 112.81 12.5117 112.81 12.8516ZM114.075 22.4844L114.058 22.7656C114.058 23.0586 114.169 23.3105 114.392 23.5215C114.614 23.7324 114.819 23.8379 115.007 23.8379C116.413 23.8379 117.655 23.627 118.733 23.2051C119.823 22.7832 120.368 22.3613 120.368 21.9395C120.368 21.7402 120.169 21.5703 119.771 21.4297C119.384 21.2773 118.722 21.0957 117.784 20.8848C116.858 20.6621 116.185 20.4922 115.763 20.375C115.341 20.2461 115.007 20.1289 114.761 20.0234C114.515 19.918 114.263 19.7715 114.005 19.584C113.454 19.1973 113.179 18.623 113.179 17.8613C113.179 17.0879 113.46 16.3262 114.022 15.5762C114.597 14.8145 115.312 14.1641 116.167 13.625C117.022 13.0859 117.942 12.6113 118.927 12.2012C120.872 11.3926 122.507 10.9883 123.831 10.9883C125.132 10.9883 125.935 11.2695 126.239 11.832C126.333 12.0312 126.38 12.2539 126.38 12.5V12.623C126.38 13.2441 126.245 13.7305 125.976 14.082C125.718 14.4336 125.302 14.75 124.728 15.0312C124.165 15.3125 123.714 15.4531 123.374 15.4531C123.046 15.4531 122.835 15.4297 122.741 15.3828C122.659 15.3359 122.589 15.2773 122.53 15.207C122.472 15.125 122.396 15.0664 122.302 15.0312C122.22 14.9961 122.179 14.9082 122.179 14.7676C122.179 14.627 122.237 14.4863 122.354 14.3457C122.472 14.1934 122.554 14.0352 122.601 13.8711C121.827 13.9062 121.019 14.0879 120.175 14.416C119.331 14.7324 118.604 15.0898 117.995 15.4883C117.397 15.8867 116.899 16.2676 116.501 16.6309C116.103 16.9941 115.903 17.2637 115.903 17.4395C115.903 17.6035 116.173 17.7383 116.712 17.8438C119.138 18.3242 120.731 18.7402 121.493 19.0918C122.255 19.4434 122.782 19.8418 123.075 20.2871C123.368 20.7324 123.515 21.1367 123.515 21.5C123.515 22.25 123.216 22.959 122.618 23.627C122.021 24.2949 121.282 24.8398 120.403 25.2617C118.517 26.1875 116.87 26.6504 115.464 26.6504C114.069 26.6504 113.103 26.4336 112.563 26C112.036 25.5781 111.772 25.0742 111.772 24.4883C111.772 23.9023 111.919 23.3633 112.212 22.8711C112.517 22.3672 112.903 22.1152 113.372 22.1152C113.841 22.1152 114.075 22.2383 114.075 22.4844Z" fill="#7EB693"/>
</svg>
