<svg width="279" height="67" viewBox="0 0 279 67" fill="none" xmlns="http://www.w3.org/2000/svg">
<path d="M9.99805 13.3223H12.6836C12.612 14.2728 12.3483 15.1159 11.8926 15.8516C11.4368 16.5807 10.8021 17.1536 9.98828 17.5703C9.17448 17.987 8.18815 18.1953 7.0293 18.1953C6.13737 18.1953 5.33333 18.0391 4.61719 17.7266C3.90755 17.4076 3.29883 16.9551 2.79102 16.3691C2.28971 15.7767 1.9056 15.0671 1.63867 14.2402C1.37174 13.4069 1.23828 12.4727 1.23828 11.4375V10.3535C1.23828 9.31836 1.375 8.38411 1.64844 7.55078C1.92188 6.71745 2.3125 6.00781 2.82031 5.42188C3.33464 4.82943 3.94987 4.3737 4.66602 4.05469C5.38867 3.73568 6.19596 3.57617 7.08789 3.57617C8.24674 3.57617 9.22656 3.79102 10.0273 4.2207C10.8281 4.64388 11.4499 5.22656 11.8926 5.96875C12.3353 6.71094 12.6022 7.5638 12.6934 8.52734H10.0078C9.95573 7.92839 9.82552 7.42057 9.61719 7.00391C9.41536 6.58724 9.10938 6.27148 8.69922 6.05664C8.29557 5.83529 7.75846 5.72461 7.08789 5.72461C6.56706 5.72461 6.10807 5.82227 5.71094 6.01758C5.32031 6.21289 4.99479 6.50586 4.73438 6.89648C4.47396 7.2806 4.27865 7.76237 4.14844 8.3418C4.01823 8.91471 3.95312 9.57878 3.95312 10.334V11.4375C3.95312 12.1602 4.01172 12.8079 4.12891 13.3809C4.24609 13.9538 4.42839 14.4388 4.67578 14.8359C4.92318 15.2331 5.24219 15.5358 5.63281 15.7441C6.02344 15.9525 6.48893 16.0566 7.0293 16.0566C7.68685 16.0566 8.2207 15.9525 8.63086 15.7441C9.04753 15.5358 9.36328 15.2298 9.57812 14.8262C9.79948 14.4225 9.93945 13.9212 9.99805 13.3223ZM20.3887 15.7539V10.8809C20.3887 10.5228 20.3268 10.2135 20.2031 9.95312C20.0794 9.69271 19.8906 9.49089 19.6367 9.34766C19.3828 9.20443 19.0605 9.13281 18.6699 9.13281C18.3249 9.13281 18.0221 9.19141 17.7617 9.30859C17.5078 9.42578 17.3125 9.5918 17.1758 9.80664C17.0391 10.015 16.9707 10.2559 16.9707 10.5293H14.3828C14.3828 10.0931 14.487 9.67969 14.6953 9.28906C14.9036 8.89193 15.1999 8.54036 15.584 8.23438C15.9746 7.92188 16.4401 7.67773 16.9805 7.50195C17.5273 7.32617 18.1393 7.23828 18.8164 7.23828C19.6172 7.23828 20.3301 7.375 20.9551 7.64844C21.5866 7.91536 22.0814 8.31901 22.4395 8.85938C22.804 9.39974 22.9863 10.0801 22.9863 10.9004V15.5098C22.9863 16.0371 23.0189 16.4896 23.084 16.8672C23.1556 17.2383 23.2598 17.5605 23.3965 17.834V18H20.7695C20.6458 17.7331 20.5514 17.3945 20.4863 16.9844C20.4212 16.5677 20.3887 16.1576 20.3887 15.7539ZM20.75 11.5645L20.7695 13.0977H19.1387C18.735 13.0977 18.3802 13.14 18.0742 13.2246C17.7682 13.3027 17.5176 13.4199 17.3223 13.5762C17.127 13.7259 16.9805 13.9082 16.8828 14.123C16.7852 14.3314 16.7363 14.569 16.7363 14.8359C16.7363 15.0964 16.7949 15.3307 16.9121 15.5391C17.0358 15.7474 17.2116 15.9134 17.4395 16.0371C17.6738 16.1543 17.9473 16.2129 18.2598 16.2129C18.7155 16.2129 19.1126 16.1217 19.4512 15.9395C19.7897 15.7507 20.0534 15.5228 20.2422 15.2559C20.431 14.9889 20.5319 14.735 20.5449 14.4941L21.2871 15.6074C21.196 15.8743 21.0592 16.1576 20.877 16.457C20.6947 16.7565 20.4603 17.0365 20.1738 17.2969C19.8874 17.5573 19.5423 17.7721 19.1387 17.9414C18.735 18.1107 18.2663 18.1953 17.7324 18.1953C17.0488 18.1953 16.4368 18.0586 15.8965 17.7852C15.3561 17.5117 14.9297 17.1374 14.6172 16.6621C14.3047 16.1868 14.1484 15.6465 14.1484 15.041C14.1484 14.4811 14.2526 13.9863 14.4609 13.5566C14.6693 13.127 14.9785 12.7656 15.3887 12.4727C15.7988 12.1732 16.3066 11.9486 16.9121 11.7988C17.5241 11.6426 18.224 11.5645 19.0117 11.5645H20.75ZM28.0449 3V18H25.457V3H28.0449ZM36.3262 15.7539V10.8809C36.3262 10.5228 36.2643 10.2135 36.1406 9.95312C36.0169 9.69271 35.8281 9.49089 35.5742 9.34766C35.3203 9.20443 34.998 9.13281 34.6074 9.13281C34.2624 9.13281 33.9596 9.19141 33.6992 9.30859C33.4453 9.42578 33.25 9.5918 33.1133 9.80664C32.9766 10.015 32.9082 10.2559 32.9082 10.5293H30.3203C30.3203 10.0931 30.4245 9.67969 30.6328 9.28906C30.8411 8.89193 31.1374 8.54036 31.5215 8.23438C31.9121 7.92188 32.3776 7.67773 32.918 7.50195C33.4648 7.32617 34.0768 7.23828 34.7539 7.23828C35.5547 7.23828 36.2676 7.375 36.8926 7.64844C37.5241 7.91536 38.0189 8.31901 38.377 8.85938C38.7415 9.39974 38.9238 10.0801 38.9238 10.9004V15.5098C38.9238 16.0371 38.9564 16.4896 39.0215 16.8672C39.0931 17.2383 39.1973 17.5605 39.334 17.834V18H36.707C36.5833 17.7331 36.4889 17.3945 36.4238 16.9844C36.3587 16.5677 36.3262 16.1576 36.3262 15.7539ZM36.6875 11.5645L36.707 13.0977H35.0762C34.6725 13.0977 34.3177 13.14 34.0117 13.2246C33.7057 13.3027 33.4551 13.4199 33.2598 13.5762C33.0645 13.7259 32.918 13.9082 32.8203 14.123C32.7227 14.3314 32.6738 14.569 32.6738 14.8359C32.6738 15.0964 32.7324 15.3307 32.8496 15.5391C32.9733 15.7474 33.1491 15.9134 33.377 16.0371C33.6113 16.1543 33.8848 16.2129 34.1973 16.2129C34.653 16.2129 35.0501 16.1217 35.3887 15.9395C35.7272 15.7507 35.9909 15.5228 36.1797 15.2559C36.3685 14.9889 36.4694 14.735 36.4824 14.4941L37.2246 15.6074C37.1335 15.8743 36.9967 16.1576 36.8145 16.457C36.6322 16.7565 36.3978 17.0365 36.1113 17.2969C35.8249 17.5573 35.4798 17.7721 35.0762 17.9414C34.6725 18.1107 34.2038 18.1953 33.6699 18.1953C32.9863 18.1953 32.3743 18.0586 31.834 17.7852C31.2936 17.5117 30.8672 17.1374 30.5547 16.6621C30.2422 16.1868 30.0859 15.6465 30.0859 15.041C30.0859 14.4811 30.1901 13.9863 30.3984 13.5566C30.6068 13.127 30.916 12.7656 31.3262 12.4727C31.7363 12.1732 32.2441 11.9486 32.8496 11.7988C33.4616 11.6426 34.1615 11.5645 34.9492 11.5645H36.6875ZM41.2383 3H43.8262V15.666L43.5723 18H41.2383V3ZM50.623 12.6094V12.8145C50.623 13.6022 50.5352 14.3249 50.3594 14.9824C50.1901 15.64 49.9329 16.2096 49.5879 16.6914C49.2428 17.1667 48.8132 17.5378 48.2988 17.8047C47.791 18.0651 47.1953 18.1953 46.5117 18.1953C45.8607 18.1953 45.2943 18.0684 44.8125 17.8145C44.3372 17.5605 43.9368 17.2025 43.6113 16.7402C43.2858 16.2715 43.0254 15.7214 42.8301 15.0898C42.6348 14.4518 42.4883 13.7552 42.3906 13V12.4434C42.4883 11.6816 42.6348 10.985 42.8301 10.3535C43.0254 9.72201 43.2858 9.17188 43.6113 8.70312C43.9368 8.23438 44.3372 7.87305 44.8125 7.61914C45.2878 7.36523 45.8477 7.23828 46.4922 7.23828C47.1823 7.23828 47.7845 7.37174 48.2988 7.63867C48.8197 7.89909 49.2493 8.27018 49.5879 8.75195C49.9329 9.22721 50.1901 9.79362 50.3594 10.4512C50.5352 11.1022 50.623 11.8216 50.623 12.6094ZM48.0352 12.8145V12.6094C48.0352 12.1602 47.9993 11.737 47.9277 11.3398C47.8561 10.9362 47.7389 10.5814 47.5762 10.2754C47.4134 9.9694 47.1921 9.72852 46.9121 9.55273C46.6322 9.37695 46.2806 9.28906 45.8574 9.28906C45.4538 9.28906 45.1087 9.35742 44.8223 9.49414C44.5423 9.63086 44.3079 9.81966 44.1191 10.0605C43.9368 10.3014 43.7936 10.5846 43.6895 10.9102C43.5918 11.2357 43.5267 11.5872 43.4941 11.9648V13.4883C43.5397 13.9896 43.6471 14.4421 43.8164 14.8457C43.9857 15.2428 44.2363 15.5586 44.5684 15.793C44.9069 16.0273 45.3431 16.1445 45.877 16.1445C46.2936 16.1445 46.6419 16.0632 46.9219 15.9004C47.2018 15.7311 47.4232 15.4967 47.5859 15.1973C47.7487 14.8913 47.8626 14.5365 47.9277 14.1328C47.9993 13.7292 48.0352 13.2897 48.0352 12.8145ZM55.0762 9.5918V18H52.498V7.43359H54.9395L55.0762 9.5918ZM58.2891 7.36523L58.25 9.76758C58.1068 9.74154 57.944 9.72201 57.7617 9.70898C57.5859 9.69596 57.4199 9.68945 57.2637 9.68945C56.8665 9.68945 56.5182 9.74479 56.2188 9.85547C55.9193 9.95964 55.6686 10.1126 55.4668 10.3145C55.2715 10.5163 55.1217 10.7637 55.0176 11.0566C54.9134 11.3431 54.8548 11.6686 54.8418 12.0332L54.2852 11.9648C54.2852 11.2943 54.3535 10.6725 54.4902 10.0996C54.627 9.52669 54.8255 9.02539 55.0859 8.5957C55.3464 8.16602 55.6719 7.83398 56.0625 7.59961C56.4596 7.35872 56.9154 7.23828 57.4297 7.23828C57.5729 7.23828 57.7259 7.2513 57.8887 7.27734C58.0579 7.29688 58.1914 7.32617 58.2891 7.36523ZM64.2559 18.1953C63.4551 18.1953 62.7357 18.0651 62.0977 17.8047C61.4596 17.5443 60.916 17.1829 60.4668 16.7207C60.0241 16.252 59.6823 15.7083 59.4414 15.0898C59.207 14.4648 59.0898 13.7943 59.0898 13.0781V12.6875C59.0898 11.8737 59.207 11.1348 59.4414 10.4707C59.6758 9.80013 60.0078 9.22396 60.4375 8.74219C60.8672 8.26042 61.3815 7.88932 61.9805 7.62891C62.5794 7.36849 63.2402 7.23828 63.9629 7.23828C64.7116 7.23828 65.3724 7.36523 65.9453 7.61914C66.5182 7.86654 66.9967 8.2181 67.3809 8.67383C67.765 9.12956 68.0547 9.67643 68.25 10.3145C68.4453 10.946 68.543 11.6458 68.543 12.4141V13.498H60.2617V11.7207H66.0039V11.5254C65.9909 11.1152 65.9128 10.7409 65.7695 10.4023C65.6263 10.0573 65.4049 9.78385 65.1055 9.58203C64.806 9.3737 64.4186 9.26953 63.9434 9.26953C63.5592 9.26953 63.224 9.35417 62.9375 9.52344C62.6576 9.6862 62.4232 9.92057 62.2344 10.2266C62.0521 10.526 61.9154 10.8841 61.8242 11.3008C61.7331 11.7174 61.6875 12.1797 61.6875 12.6875V13.0781C61.6875 13.5208 61.7461 13.931 61.8633 14.3086C61.987 14.6862 62.166 15.015 62.4004 15.2949C62.6413 15.5684 62.9277 15.7832 63.2598 15.9395C63.5983 16.0892 63.9824 16.1641 64.4121 16.1641C64.9525 16.1641 65.4408 16.0599 65.877 15.8516C66.3197 15.6367 66.7038 15.321 67.0293 14.9043L68.3281 16.252C68.1068 16.5775 67.8073 16.89 67.4297 17.1895C67.0586 17.4889 66.6094 17.7331 66.082 17.9219C65.5547 18.1042 64.946 18.1953 64.2559 18.1953ZM76.082 15.1094C76.082 14.888 76.0234 14.6895 75.9062 14.5137C75.7891 14.3379 75.5677 14.1784 75.2422 14.0352C74.9232 13.8854 74.4544 13.7454 73.8359 13.6152C73.2891 13.498 72.7845 13.3516 72.3223 13.1758C71.86 13 71.4629 12.7884 71.1309 12.541C70.7988 12.2871 70.5384 11.9909 70.3496 11.6523C70.1673 11.3073 70.0762 10.9102 70.0762 10.4609C70.0762 10.0247 70.1706 9.61458 70.3594 9.23047C70.5482 8.83984 70.8216 8.49805 71.1797 8.20508C71.5378 7.9056 71.974 7.67122 72.4883 7.50195C73.0026 7.32617 73.582 7.23828 74.2266 7.23828C75.125 7.23828 75.8965 7.38477 76.541 7.67773C77.1921 7.9707 77.6901 8.37435 78.0352 8.88867C78.3802 9.39648 78.5527 9.9694 78.5527 10.6074H75.9746C75.9746 10.3275 75.9095 10.0736 75.7793 9.8457C75.6556 9.61784 75.4635 9.43555 75.2031 9.29883C74.9427 9.1556 74.6139 9.08398 74.2168 9.08398C73.8587 9.08398 73.556 9.14258 73.3086 9.25977C73.0677 9.37695 72.8854 9.52995 72.7617 9.71875C72.638 9.90755 72.5762 10.1159 72.5762 10.3438C72.5762 10.513 72.6087 10.666 72.6738 10.8027C72.7454 10.9329 72.8594 11.0534 73.0156 11.1641C73.1719 11.2747 73.3835 11.3757 73.6504 11.4668C73.9238 11.5579 74.2591 11.6458 74.6562 11.7305C75.444 11.8867 76.1309 12.0951 76.7168 12.3555C77.3092 12.6094 77.7715 12.9479 78.1035 13.3711C78.4355 13.7943 78.6016 14.3346 78.6016 14.9922C78.6016 15.4609 78.5007 15.8906 78.2988 16.2812C78.097 16.6654 77.804 17.0007 77.4199 17.2871C77.0358 17.5736 76.5768 17.7982 76.043 17.9609C75.5091 18.1172 74.9069 18.1953 74.2363 18.1953C73.2663 18.1953 72.446 18.0228 71.7754 17.6777C71.1048 17.3262 70.597 16.8835 70.252 16.3496C69.9069 15.8092 69.7344 15.2493 69.7344 14.6699H72.2051C72.2246 15.0801 72.3353 15.4089 72.5371 15.6562C72.7389 15.9036 72.9928 16.0827 73.2988 16.1934C73.6113 16.2975 73.9401 16.3496 74.2852 16.3496C74.6758 16.3496 75.0046 16.2975 75.2715 16.1934C75.5384 16.0827 75.7402 15.9362 75.877 15.7539C76.0137 15.5651 76.082 15.3503 76.082 15.1094ZM85.3105 18.1953C84.5098 18.1953 83.7904 18.0651 83.1523 17.8047C82.5143 17.5443 81.9707 17.1829 81.5215 16.7207C81.0788 16.252 80.737 15.7083 80.4961 15.0898C80.2617 14.4648 80.1445 13.7943 80.1445 13.0781V12.6875C80.1445 11.8737 80.2617 11.1348 80.4961 10.4707C80.7305 9.80013 81.0625 9.22396 81.4922 8.74219C81.9219 8.26042 82.4362 7.88932 83.0352 7.62891C83.6341 7.36849 84.2949 7.23828 85.0176 7.23828C85.7663 7.23828 86.4271 7.36523 87 7.61914C87.5729 7.86654 88.0514 8.2181 88.4355 8.67383C88.8197 9.12956 89.1094 9.67643 89.3047 10.3145C89.5 10.946 89.5977 11.6458 89.5977 12.4141V13.498H81.3164V11.7207H87.0586V11.5254C87.0456 11.1152 86.9674 10.7409 86.8242 10.4023C86.681 10.0573 86.4596 9.78385 86.1602 9.58203C85.8607 9.3737 85.4733 9.26953 84.998 9.26953C84.6139 9.26953 84.2786 9.35417 83.9922 9.52344C83.7122 9.6862 83.4779 9.92057 83.2891 10.2266C83.1068 10.526 82.9701 10.8841 82.8789 11.3008C82.7878 11.7174 82.7422 12.1797 82.7422 12.6875V13.0781C82.7422 13.5208 82.8008 13.931 82.918 14.3086C83.0417 14.6862 83.2207 15.015 83.4551 15.2949C83.696 15.5684 83.9824 15.7832 84.3145 15.9395C84.653 16.0892 85.0371 16.1641 85.4668 16.1641C86.0072 16.1641 86.4954 16.0599 86.9316 15.8516C87.3743 15.6367 87.7585 15.321 88.084 14.9043L89.3828 16.252C89.1615 16.5775 88.862 16.89 88.4844 17.1895C88.1133 17.4889 87.6641 17.7331 87.1367 17.9219C86.6094 18.1042 86.0007 18.1953 85.3105 18.1953ZM101.951 11.6621H98.3184L98.2988 9.76758H101.414C101.948 9.76758 102.394 9.69271 102.752 9.54297C103.11 9.39323 103.38 9.17513 103.562 8.88867C103.751 8.60221 103.846 8.25391 103.846 7.84375C103.846 7.38802 103.758 7.01693 103.582 6.73047C103.413 6.44401 103.146 6.23568 102.781 6.10547C102.417 5.96875 101.954 5.90039 101.395 5.90039H99.1875V18H96.502V3.78125H101.395C102.202 3.78125 102.921 3.85938 103.553 4.01562C104.191 4.16536 104.731 4.39974 105.174 4.71875C105.617 5.03776 105.952 5.43815 106.18 5.91992C106.414 6.40169 106.531 6.97461 106.531 7.63867C106.531 8.22461 106.395 8.76497 106.121 9.25977C105.854 9.74805 105.441 10.1452 104.881 10.4512C104.327 10.7572 103.624 10.9329 102.771 10.9785L101.951 11.6621ZM101.834 18H97.5273L98.6504 15.8906H101.834C102.368 15.8906 102.807 15.8027 103.152 15.627C103.504 15.4512 103.764 15.2103 103.934 14.9043C104.109 14.5918 104.197 14.2337 104.197 13.8301C104.197 13.3874 104.119 13.0033 103.963 12.6777C103.813 12.3522 103.572 12.1016 103.24 11.9258C102.915 11.75 102.485 11.6621 101.951 11.6621H99.1582L99.1777 9.76758H102.732L103.348 10.5C104.168 10.5065 104.835 10.6693 105.35 10.9883C105.87 11.3073 106.255 11.7174 106.502 12.2188C106.749 12.7201 106.873 13.2604 106.873 13.8398C106.873 14.7513 106.674 15.5163 106.277 16.1348C105.887 16.7533 105.314 17.2188 104.559 17.5312C103.81 17.8438 102.902 18 101.834 18ZM111.58 9.5918V18H109.002V7.43359H111.443L111.58 9.5918ZM114.793 7.36523L114.754 9.76758C114.611 9.74154 114.448 9.72201 114.266 9.70898C114.09 9.69596 113.924 9.68945 113.768 9.68945C113.37 9.68945 113.022 9.74479 112.723 9.85547C112.423 9.95964 112.173 10.1126 111.971 10.3145C111.775 10.5163 111.626 10.7637 111.521 11.0566C111.417 11.3431 111.359 11.6686 111.346 12.0332L110.789 11.9648C110.789 11.2943 110.857 10.6725 110.994 10.0996C111.131 9.52669 111.329 9.02539 111.59 8.5957C111.85 8.16602 112.176 7.83398 112.566 7.59961C112.964 7.35872 113.419 7.23828 113.934 7.23828C114.077 7.23828 114.23 7.2513 114.393 7.27734C114.562 7.29688 114.695 7.32617 114.793 7.36523ZM115.477 12.8242V12.6191C115.477 11.8444 115.587 11.1315 115.809 10.4805C116.03 9.82292 116.352 9.25326 116.775 8.77148C117.199 8.28971 117.716 7.91536 118.328 7.64844C118.94 7.375 119.637 7.23828 120.418 7.23828C121.212 7.23828 121.915 7.375 122.527 7.64844C123.146 7.91536 123.667 8.28971 124.09 8.77148C124.513 9.25326 124.835 9.82292 125.057 10.4805C125.278 11.1315 125.389 11.8444 125.389 12.6191V12.8242C125.389 13.5924 125.278 14.3053 125.057 14.9629C124.835 15.6139 124.513 16.1836 124.09 16.6719C123.667 17.1536 123.149 17.528 122.537 17.7949C121.925 18.0618 121.225 18.1953 120.438 18.1953C119.656 18.1953 118.956 18.0618 118.338 17.7949C117.719 17.528 117.199 17.1536 116.775 16.6719C116.352 16.1836 116.03 15.6139 115.809 14.9629C115.587 14.3053 115.477 13.5924 115.477 12.8242ZM118.055 12.6191V12.8242C118.055 13.2865 118.1 13.7194 118.191 14.123C118.283 14.5267 118.423 14.8815 118.611 15.1875C118.8 15.4935 119.044 15.7344 119.344 15.9102C119.65 16.0794 120.014 16.1641 120.438 16.1641C120.854 16.1641 121.212 16.0794 121.512 15.9102C121.811 15.7344 122.055 15.4935 122.244 15.1875C122.439 14.8815 122.583 14.5267 122.674 14.123C122.765 13.7194 122.811 13.2865 122.811 12.8242V12.6191C122.811 12.1634 122.765 11.737 122.674 11.3398C122.583 10.9362 122.439 10.5814 122.244 10.2754C122.055 9.96289 121.808 9.71875 121.502 9.54297C121.202 9.36068 120.841 9.26953 120.418 9.26953C120.001 9.26953 119.643 9.36068 119.344 9.54297C119.044 9.71875 118.8 9.96289 118.611 10.2754C118.423 10.5814 118.283 10.9362 118.191 11.3398C118.1 11.737 118.055 12.1634 118.055 12.6191ZM131.6 16.1641C131.964 16.1641 132.29 16.0924 132.576 15.9492C132.863 15.806 133.09 15.6042 133.26 15.3438C133.436 15.0833 133.53 14.7806 133.543 14.4355H135.975C135.962 15.1517 135.76 15.793 135.369 16.3594C134.979 16.9258 134.458 17.375 133.807 17.707C133.162 18.0326 132.439 18.1953 131.639 18.1953C130.825 18.1953 130.115 18.0586 129.51 17.7852C128.904 17.5117 128.4 17.1309 127.996 16.6426C127.599 16.1543 127.299 15.5879 127.098 14.9434C126.902 14.2988 126.805 13.6087 126.805 12.873V12.5605C126.805 11.8249 126.902 11.1348 127.098 10.4902C127.299 9.8457 127.599 9.2793 127.996 8.79102C128.4 8.30273 128.904 7.92188 129.51 7.64844C130.115 7.375 130.822 7.23828 131.629 7.23828C132.482 7.23828 133.23 7.4043 133.875 7.73633C134.526 8.06836 135.034 8.53711 135.398 9.14258C135.77 9.74805 135.962 10.4609 135.975 11.2812H133.543C133.53 10.9036 133.445 10.5651 133.289 10.2656C133.133 9.96615 132.911 9.72526 132.625 9.54297C132.339 9.36068 131.99 9.26953 131.58 9.26953C131.144 9.26953 130.779 9.36068 130.486 9.54297C130.2 9.72526 129.975 9.97591 129.812 10.2949C129.656 10.6074 129.546 10.959 129.48 11.3496C129.422 11.7337 129.393 12.1374 129.393 12.5605V12.873C129.393 13.3027 129.422 13.7129 129.48 14.1035C129.546 14.4941 129.656 14.8457 129.812 15.1582C129.975 15.4642 130.2 15.7083 130.486 15.8906C130.779 16.0729 131.15 16.1641 131.6 16.1641ZM142.029 16.1641C142.394 16.1641 142.719 16.0924 143.006 15.9492C143.292 15.806 143.52 15.6042 143.689 15.3438C143.865 15.0833 143.96 14.7806 143.973 14.4355H146.404C146.391 15.1517 146.189 15.793 145.799 16.3594C145.408 16.9258 144.887 17.375 144.236 17.707C143.592 18.0326 142.869 18.1953 142.068 18.1953C141.255 18.1953 140.545 18.0586 139.939 17.7852C139.334 17.5117 138.829 17.1309 138.426 16.6426C138.029 16.1543 137.729 15.5879 137.527 14.9434C137.332 14.2988 137.234 13.6087 137.234 12.873V12.5605C137.234 11.8249 137.332 11.1348 137.527 10.4902C137.729 9.8457 138.029 9.2793 138.426 8.79102C138.829 8.30273 139.334 7.92188 139.939 7.64844C140.545 7.375 141.251 7.23828 142.059 7.23828C142.911 7.23828 143.66 7.4043 144.305 7.73633C144.956 8.06836 145.464 8.53711 145.828 9.14258C146.199 9.74805 146.391 10.4609 146.404 11.2812H143.973C143.96 10.9036 143.875 10.5651 143.719 10.2656C143.562 9.96615 143.341 9.72526 143.055 9.54297C142.768 9.36068 142.42 9.26953 142.01 9.26953C141.574 9.26953 141.209 9.36068 140.916 9.54297C140.63 9.72526 140.405 9.97591 140.242 10.2949C140.086 10.6074 139.975 10.959 139.91 11.3496C139.852 11.7337 139.822 12.1374 139.822 12.5605V12.873C139.822 13.3027 139.852 13.7129 139.91 14.1035C139.975 14.4941 140.086 14.8457 140.242 15.1582C140.405 15.4642 140.63 15.7083 140.916 15.8906C141.209 16.0729 141.58 16.1641 142.029 16.1641ZM147.664 12.8242V12.6191C147.664 11.8444 147.775 11.1315 147.996 10.4805C148.217 9.82292 148.54 9.25326 148.963 8.77148C149.386 8.28971 149.904 7.91536 150.516 7.64844C151.128 7.375 151.824 7.23828 152.605 7.23828C153.4 7.23828 154.103 7.375 154.715 7.64844C155.333 7.91536 155.854 8.28971 156.277 8.77148C156.701 9.25326 157.023 9.82292 157.244 10.4805C157.465 11.1315 157.576 11.8444 157.576 12.6191V12.8242C157.576 13.5924 157.465 14.3053 157.244 14.9629C157.023 15.6139 156.701 16.1836 156.277 16.6719C155.854 17.1536 155.337 17.528 154.725 17.7949C154.113 18.0618 153.413 18.1953 152.625 18.1953C151.844 18.1953 151.144 18.0618 150.525 17.7949C149.907 17.528 149.386 17.1536 148.963 16.6719C148.54 16.1836 148.217 15.6139 147.996 14.9629C147.775 14.3053 147.664 13.5924 147.664 12.8242ZM150.242 12.6191V12.8242C150.242 13.2865 150.288 13.7194 150.379 14.123C150.47 14.5267 150.61 14.8815 150.799 15.1875C150.988 15.4935 151.232 15.7344 151.531 15.9102C151.837 16.0794 152.202 16.1641 152.625 16.1641C153.042 16.1641 153.4 16.0794 153.699 15.9102C153.999 15.7344 154.243 15.4935 154.432 15.1875C154.627 14.8815 154.77 14.5267 154.861 14.123C154.952 13.7194 154.998 13.2865 154.998 12.8242V12.6191C154.998 12.1634 154.952 11.737 154.861 11.3398C154.77 10.9362 154.627 10.5814 154.432 10.2754C154.243 9.96289 153.995 9.71875 153.689 9.54297C153.39 9.36068 153.029 9.26953 152.605 9.26953C152.189 9.26953 151.831 9.36068 151.531 9.54297C151.232 9.71875 150.988 9.96289 150.799 10.2754C150.61 10.5814 150.47 10.9362 150.379 11.3398C150.288 11.737 150.242 12.1634 150.242 12.6191ZM162.186 3V18H159.598V3H162.186ZM167.381 7.43359V18H164.793V7.43359H167.381ZM164.617 4.66992C164.617 4.28581 164.747 3.9668 165.008 3.71289C165.275 3.45898 165.633 3.33203 166.082 3.33203C166.531 3.33203 166.886 3.45898 167.146 3.71289C167.413 3.9668 167.547 4.28581 167.547 4.66992C167.547 5.04753 167.413 5.36328 167.146 5.61719C166.886 5.87109 166.531 5.99805 166.082 5.99805C165.633 5.99805 165.275 5.87109 165.008 5.61719C164.747 5.36328 164.617 5.04753 164.617 4.66992Z" fill="#274C5B"/>
<path d="M0 36L274.988 36" stroke="#DEDDDD"/>
<path d="M66.8232 56.9834C66.8232 57.915 66.4863 58.665 65.8125 59.2334C65.1387 59.7959 64.1953 60.1328 62.9824 60.2441V62.0459H61.7783V60.2793C60.3486 60.25 59.0947 59.998 58.0166 59.5234V57.2031C58.5264 57.4551 59.1387 57.6777 59.8535 57.8711C60.5742 58.0645 61.2158 58.1787 61.7783 58.2139V55.4893L61.1895 55.2607C60.0293 54.8037 59.2061 54.3086 58.7197 53.7754C58.2393 53.2363 57.999 52.5713 57.999 51.7803C57.999 50.9307 58.3301 50.2334 58.9922 49.6885C59.6602 49.1377 60.5889 48.8037 61.7783 48.6865V47.3418H62.9824V48.6514C64.3242 48.71 65.5371 48.9795 66.6211 49.46L65.7949 51.5166C64.8809 51.1416 63.9434 50.9131 62.9824 50.8311V53.4238C64.125 53.8633 64.9365 54.2441 65.417 54.5664C65.9033 54.8887 66.2578 55.2432 66.4805 55.6299C66.709 56.0166 66.8232 56.4678 66.8232 56.9834ZM64.1777 57.1152C64.1777 56.8691 64.0781 56.6611 63.8789 56.4912C63.6797 56.3213 63.3809 56.1455 62.9824 55.9639V58.1523C63.7793 58.0176 64.1777 57.6719 64.1777 57.1152ZM60.6445 51.7803C60.6445 52.0381 60.7324 52.252 60.9082 52.4219C61.0898 52.5859 61.3799 52.7559 61.7783 52.9316V50.8662C61.0225 50.9775 60.6445 51.2822 60.6445 51.7803ZM74.9443 61H72.2285V53.5645L72.2549 52.3428L72.2988 51.0068C71.8477 51.458 71.5342 51.7539 71.3584 51.8945L69.8818 53.0811L68.5723 51.4463L72.7119 48.1504H74.9443V61ZM86.9941 51.0244C86.9941 51.8271 86.751 52.5098 86.2646 53.0723C85.7783 53.6348 85.0957 54.0215 84.2168 54.2324V54.2852C85.2539 54.4141 86.0391 54.7305 86.5723 55.2344C87.1055 55.7324 87.3721 56.4062 87.3721 57.2559C87.3721 58.4922 86.9238 59.4561 86.0273 60.1475C85.1309 60.833 83.8506 61.1758 82.1865 61.1758C80.792 61.1758 79.5557 60.9443 78.4775 60.4814V58.1699C78.9756 58.4219 79.5234 58.627 80.1211 58.7852C80.7188 58.9434 81.3105 59.0225 81.8965 59.0225C82.793 59.0225 83.4551 58.8701 83.8828 58.5654C84.3105 58.2607 84.5244 57.7715 84.5244 57.0977C84.5244 56.4941 84.2783 56.0664 83.7861 55.8145C83.2939 55.5625 82.5088 55.4365 81.4307 55.4365H80.4551V53.3535H81.4482C82.4443 53.3535 83.1709 53.2246 83.6279 52.9668C84.0908 52.7031 84.3223 52.2549 84.3223 51.6221C84.3223 50.6494 83.7129 50.1631 82.4941 50.1631C82.0723 50.1631 81.6416 50.2334 81.2021 50.374C80.7686 50.5146 80.2852 50.7578 79.752 51.1035L78.4951 49.2314C79.667 48.3877 81.0645 47.9658 82.6875 47.9658C84.0176 47.9658 85.0664 48.2354 85.834 48.7744C86.6074 49.3135 86.9941 50.0635 86.9941 51.0244ZM89.1035 59.7432C89.1035 59.251 89.2354 58.8789 89.499 58.627C89.7627 58.375 90.1465 58.249 90.6504 58.249C91.1367 58.249 91.5117 58.3779 91.7754 58.6357C92.0449 58.8936 92.1797 59.2627 92.1797 59.7432C92.1797 60.2061 92.0449 60.5723 91.7754 60.8418C91.5059 61.1055 91.1309 61.2373 90.6504 61.2373C90.1582 61.2373 89.7773 61.1084 89.5078 60.8506C89.2383 60.5869 89.1035 60.2178 89.1035 59.7432ZM102.841 54.5752C102.841 56.8193 102.472 58.4805 101.733 59.5586C101.001 60.6367 99.8701 61.1758 98.3408 61.1758C96.8584 61.1758 95.7393 60.6191 94.9834 59.5059C94.2334 58.3926 93.8584 56.749 93.8584 54.5752C93.8584 52.3076 94.2246 50.6377 94.957 49.5654C95.6895 48.4873 96.8174 47.9482 98.3408 47.9482C99.8232 47.9482 100.942 48.5107 101.698 49.6357C102.46 50.7607 102.841 52.4072 102.841 54.5752ZM96.5566 54.5752C96.5566 56.1514 96.6914 57.2822 96.9609 57.9678C97.2363 58.6475 97.6963 58.9873 98.3408 58.9873C98.9736 58.9873 99.4307 58.6416 99.7119 57.9502C99.9932 57.2588 100.134 56.1338 100.134 54.5752C100.134 52.999 99.9902 51.8682 99.7031 51.1826C99.4219 50.4912 98.9678 50.1455 98.3408 50.1455C97.7021 50.1455 97.2451 50.4912 96.9697 51.1826C96.6943 51.8682 96.5566 52.999 96.5566 54.5752ZM113.124 54.5752C113.124 56.8193 112.755 58.4805 112.017 59.5586C111.284 60.6367 110.153 61.1758 108.624 61.1758C107.142 61.1758 106.022 60.6191 105.267 59.5059C104.517 58.3926 104.142 56.749 104.142 54.5752C104.142 52.3076 104.508 50.6377 105.24 49.5654C105.973 48.4873 107.101 47.9482 108.624 47.9482C110.106 47.9482 111.226 48.5107 111.981 49.6357C112.743 50.7607 113.124 52.4072 113.124 54.5752ZM106.84 54.5752C106.84 56.1514 106.975 57.2822 107.244 57.9678C107.52 58.6475 107.979 58.9873 108.624 58.9873C109.257 58.9873 109.714 58.6416 109.995 57.9502C110.276 57.2588 110.417 56.1338 110.417 54.5752C110.417 52.999 110.273 51.8682 109.986 51.1826C109.705 50.4912 109.251 50.1455 108.624 50.1455C107.985 50.1455 107.528 50.4912 107.253 51.1826C106.978 51.8682 106.84 52.999 106.84 54.5752Z" fill="#274C5B"/>
<path d="M5.27588 61.8716V60.3628C4.67041 60.353 4.11133 60.2993 3.59863 60.2017C3.09082 60.0991 2.65137 59.9673 2.28027 59.8062V58.2461C2.65625 58.4219 3.12012 58.5806 3.67188 58.7222C4.22363 58.8638 4.7583 58.9443 5.27588 58.9639V56.2173C4.56787 55.978 3.9917 55.729 3.54736 55.4702C3.10791 55.2114 2.78564 54.9111 2.58057 54.5693C2.37549 54.2227 2.27295 53.8076 2.27295 53.3242C2.27295 52.8262 2.39746 52.3989 2.64648 52.0425C2.90039 51.6812 3.25195 51.3955 3.70117 51.1855C4.15527 50.9756 4.68018 50.8511 5.27588 50.812V49.6182H6.22803V50.79C6.77002 50.8047 7.27051 50.8657 7.72949 50.9731C8.19336 51.0757 8.63525 51.2197 9.05518 51.4053L8.52051 52.7676C8.1543 52.6211 7.77344 52.5015 7.37793 52.4087C6.98242 52.3159 6.59912 52.2524 6.22803 52.2183V54.8989C6.82373 55.0942 7.35352 55.3042 7.81738 55.5288C8.28613 55.7534 8.65234 56.0366 8.91602 56.3784C9.18457 56.7153 9.31885 57.1572 9.31885 57.7041C9.31885 58.4219 9.05518 59.0151 8.52783 59.4839C8.00049 59.9478 7.23389 60.2261 6.22803 60.3188V61.8716H5.27588ZM6.22803 58.9053C6.69678 58.8467 7.0459 58.7246 7.27539 58.5391C7.50488 58.3486 7.61963 58.1021 7.61963 57.7993C7.61963 57.5942 7.5708 57.4209 7.47314 57.2793C7.38037 57.1377 7.23145 57.0107 7.02637 56.8984C6.82617 56.7861 6.56006 56.6763 6.22803 56.5688V58.9053ZM5.27588 54.54V52.2476C4.99268 52.2769 4.75342 52.3354 4.55811 52.4233C4.36279 52.5112 4.21631 52.626 4.11865 52.7676C4.021 52.9092 3.97217 53.0776 3.97217 53.2729C3.97217 53.4878 4.01611 53.6709 4.104 53.8223C4.19189 53.9736 4.33105 54.1055 4.52148 54.2178C4.7168 54.3301 4.96826 54.4375 5.27588 54.54ZM17.9907 61H10.7397V59.7036L13.5156 56.8911C14.0527 56.3442 14.4946 55.873 14.8413 55.4775C15.188 55.0771 15.4443 54.6987 15.6104 54.3423C15.7812 53.9858 15.8667 53.5977 15.8667 53.1777C15.8667 52.6602 15.7178 52.2695 15.4199 52.0059C15.1221 51.7373 14.729 51.603 14.2407 51.603C13.7769 51.603 13.3472 51.6958 12.9517 51.8813C12.561 52.062 12.1558 52.3208 11.7358 52.6577L10.791 51.5225C11.0889 51.2686 11.4062 51.0366 11.7432 50.8267C12.085 50.6167 12.4658 50.4507 12.8857 50.3286C13.3057 50.2017 13.7842 50.1382 14.3213 50.1382C15 50.1382 15.5859 50.2603 16.0791 50.5044C16.5723 50.7437 16.9507 51.0781 17.2144 51.5078C17.4829 51.9375 17.6172 52.438 17.6172 53.0093C17.6172 53.5854 17.5024 54.1177 17.2729 54.606C17.0435 55.0942 16.7163 55.5776 16.2915 56.0562C15.8667 56.5298 15.3613 57.0449 14.7754 57.6016L12.9224 59.4106V59.4912H17.9907V61ZM26.5747 55.6387C26.5747 56.5029 26.5063 57.2769 26.3696 57.9604C26.2378 58.6392 26.0278 59.2153 25.7397 59.689C25.4517 60.1626 25.0757 60.5239 24.6118 60.7729C24.1479 61.022 23.5864 61.1465 22.9272 61.1465C22.1021 61.1465 21.4209 60.9292 20.8838 60.4946C20.3467 60.0552 19.9487 59.4253 19.6899 58.605C19.4312 57.7798 19.3018 56.791 19.3018 55.6387C19.3018 54.4863 19.4189 53.5 19.6533 52.6797C19.8926 51.8545 20.2783 51.2222 20.8105 50.7827C21.3428 50.3433 22.0483 50.1235 22.9272 50.1235C23.7573 50.1235 24.4409 50.3433 24.978 50.7827C25.52 51.2173 25.9204 51.8472 26.1792 52.6724C26.4429 53.4927 26.5747 54.4814 26.5747 55.6387ZM21.0376 55.6387C21.0376 56.542 21.0962 57.2964 21.2134 57.9019C21.3354 58.5073 21.5356 58.9614 21.814 59.2642C22.0923 59.562 22.4634 59.7109 22.9272 59.7109C23.3911 59.7109 23.7622 59.562 24.0405 59.2642C24.3188 58.9663 24.519 58.5146 24.6411 57.9092C24.7681 57.3037 24.8315 56.5469 24.8315 55.6387C24.8315 54.7402 24.7705 53.9883 24.6484 53.3828C24.5264 52.7773 24.3262 52.3232 24.0479 52.0205C23.7695 51.7129 23.396 51.5591 22.9272 51.5591C22.4585 51.5591 22.085 51.7129 21.8066 52.0205C21.5332 52.3232 21.3354 52.7773 21.2134 53.3828C21.0962 53.9883 21.0376 54.7402 21.0376 55.6387ZM28.2153 60.0918C28.2153 59.6914 28.3179 59.4106 28.5229 59.2495C28.7329 59.0835 28.9868 59.0005 29.2847 59.0005C29.5825 59.0005 29.8364 59.0835 30.0464 59.2495C30.2612 59.4106 30.3687 59.6914 30.3687 60.0918C30.3687 60.4824 30.2612 60.7656 30.0464 60.9414C29.8364 61.1123 29.5825 61.1978 29.2847 61.1978C28.9868 61.1978 28.7329 61.1123 28.5229 60.9414C28.3179 60.7656 28.2153 60.4824 28.2153 60.0918ZM39.2749 55.6387C39.2749 56.5029 39.2065 57.2769 39.0698 57.9604C38.938 58.6392 38.728 59.2153 38.4399 59.689C38.1519 60.1626 37.7759 60.5239 37.312 60.7729C36.8481 61.022 36.2866 61.1465 35.6274 61.1465C34.8022 61.1465 34.1211 60.9292 33.584 60.4946C33.0469 60.0552 32.6489 59.4253 32.3901 58.605C32.1313 57.7798 32.002 56.791 32.002 55.6387C32.002 54.4863 32.1191 53.5 32.3535 52.6797C32.5928 51.8545 32.9785 51.2222 33.5107 50.7827C34.043 50.3433 34.7485 50.1235 35.6274 50.1235C36.4575 50.1235 37.1411 50.3433 37.6782 50.7827C38.2202 51.2173 38.6206 51.8472 38.8794 52.6724C39.1431 53.4927 39.2749 54.4814 39.2749 55.6387ZM33.7378 55.6387C33.7378 56.542 33.7964 57.2964 33.9136 57.9019C34.0356 58.5073 34.2358 58.9614 34.5142 59.2642C34.7925 59.562 35.1636 59.7109 35.6274 59.7109C36.0913 59.7109 36.4624 59.562 36.7407 59.2642C37.019 58.9663 37.2192 58.5146 37.3413 57.9092C37.4683 57.3037 37.5317 56.5469 37.5317 55.6387C37.5317 54.7402 37.4707 53.9883 37.3486 53.3828C37.2266 52.7773 37.0264 52.3232 36.748 52.0205C36.4697 51.7129 36.0962 51.5591 35.6274 51.5591C35.1587 51.5591 34.7852 51.7129 34.5068 52.0205C34.2334 52.3232 34.0356 52.7773 33.9136 53.3828C33.7964 53.9883 33.7378 54.7402 33.7378 55.6387ZM47.8589 55.6387C47.8589 56.5029 47.7905 57.2769 47.6538 57.9604C47.522 58.6392 47.312 59.2153 47.0239 59.689C46.7358 60.1626 46.3599 60.5239 45.896 60.7729C45.4321 61.022 44.8706 61.1465 44.2114 61.1465C43.3862 61.1465 42.7051 60.9292 42.168 60.4946C41.6309 60.0552 41.2329 59.4253 40.9741 58.605C40.7153 57.7798 40.5859 56.791 40.5859 55.6387C40.5859 54.4863 40.7031 53.5 40.9375 52.6797C41.1768 51.8545 41.5625 51.2222 42.0947 50.7827C42.627 50.3433 43.3325 50.1235 44.2114 50.1235C45.0415 50.1235 45.7251 50.3433 46.2622 50.7827C46.8042 51.2173 47.2046 51.8472 47.4634 52.6724C47.7271 53.4927 47.8589 54.4814 47.8589 55.6387ZM42.3218 55.6387C42.3218 56.542 42.3804 57.2964 42.4976 57.9019C42.6196 58.5073 42.8198 58.9614 43.0981 59.2642C43.3765 59.562 43.7476 59.7109 44.2114 59.7109C44.6753 59.7109 45.0464 59.562 45.3247 59.2642C45.603 58.9663 45.8032 58.5146 45.9253 57.9092C46.0522 57.3037 46.1157 56.5469 46.1157 55.6387C46.1157 54.7402 46.0547 53.9883 45.9326 53.3828C45.8105 52.7773 45.6104 52.3232 45.332 52.0205C45.0537 51.7129 44.6802 51.5591 44.2114 51.5591C43.7427 51.5591 43.3691 51.7129 43.0908 52.0205C42.8174 52.3232 42.6196 52.7773 42.4976 53.3828C42.3804 53.9883 42.3218 54.7402 42.3218 55.6387Z" fill="#B8B8B8"/>
<rect y="55" width="50" height="1" fill="#B8B8B8"/>
<path d="M203.678 48.0937C203.986 47.19 205.264 47.19 205.571 48.0937L206.555 50.9831C206.693 51.3884 207.073 51.6609 207.502 51.6609H210.582C211.562 51.6609 211.957 52.9242 211.152 53.4826L208.741 55.1546C208.374 55.409 208.22 55.8758 208.364 56.2985L209.304 59.0586C209.614 59.9718 208.58 60.7523 207.787 60.2025L205.195 58.4046C204.852 58.1668 204.398 58.1668 204.055 58.4046L201.462 60.2025C200.67 60.7523 199.635 59.9718 199.946 59.0586L200.885 56.2985C201.029 55.8758 200.875 55.409 200.509 55.1546L198.098 53.4826C197.293 52.9242 197.688 51.6609 198.668 51.6609H201.748C202.176 51.6609 202.557 51.3884 202.695 50.9831L203.678 48.0937Z" fill="#FFA858"/>
<path d="M219.861 48.2396C220.16 47.3183 221.463 47.3183 221.763 48.2396L222.65 50.9699C222.784 51.3819 223.168 51.6609 223.601 51.6609H226.472C227.44 51.6609 227.843 52.9005 227.06 53.4699L224.737 55.1574C224.386 55.412 224.24 55.8634 224.374 56.2754L225.261 59.0058C225.56 59.9271 224.506 60.6932 223.722 60.1238L221.4 58.4364C221.049 58.1817 220.574 58.1817 220.224 58.4364L217.902 60.1238C217.118 60.6932 216.063 59.9271 216.363 59.0058L217.25 56.2754C217.384 55.8634 217.237 55.412 216.887 55.1574L214.564 53.4699C213.78 52.9005 214.183 51.6609 215.152 51.6609H218.023C218.456 51.6609 218.84 51.3819 218.974 50.9699L219.861 48.2396Z" fill="#FFA858"/>
<path d="M236.052 48.0937C236.36 47.19 237.638 47.19 237.945 48.0937L238.929 50.9831C239.067 51.3884 239.447 51.6609 239.876 51.6609H242.956C243.936 51.6609 244.331 52.9242 243.526 53.4826L241.115 55.1546C240.748 55.409 240.594 55.8758 240.738 56.2985L241.678 59.0586C241.989 59.9718 240.954 60.7523 240.161 60.2025L237.569 58.4046C237.226 58.1668 236.772 58.1668 236.429 58.4046L233.836 60.2025C233.044 60.7523 232.009 59.9718 232.32 59.0586L233.259 56.2985C233.403 55.8758 233.249 55.409 232.883 55.1546L230.472 53.4826C229.667 52.9242 230.062 51.6609 231.042 51.6609H234.122C234.55 51.6609 234.931 51.3884 235.069 50.9831L236.052 48.0937Z" fill="#FFA858"/>
<path d="M252.235 48.2396C252.534 47.3183 253.837 47.3183 254.137 48.2396L255.024 50.9699C255.158 51.3819 255.542 51.6609 255.975 51.6609H258.846C259.814 51.6609 260.217 52.9005 259.434 53.4699L257.111 55.1574C256.761 55.412 256.614 55.8634 256.748 56.2754L257.635 59.0058C257.934 59.9271 256.88 60.6932 256.096 60.1238L253.774 58.4364C253.423 58.1817 252.948 58.1817 252.598 58.4364L250.276 60.1238C249.492 60.6932 248.437 59.9271 248.737 59.0058L249.624 56.2754C249.758 55.8634 249.611 55.412 249.261 55.1574L246.938 53.4699C246.154 52.9005 246.557 51.6609 247.526 51.6609H250.397C250.83 51.6609 251.214 51.3819 251.348 50.9699L252.235 48.2396Z" fill="#FFA858"/>
<path d="M268.426 48.0937C268.734 47.19 270.012 47.19 270.319 48.0937L271.303 50.9831C271.441 51.3884 271.822 51.6609 272.25 51.6609H275.33C276.31 51.6609 276.705 52.9242 275.9 53.4826L273.489 55.1546C273.122 55.409 272.968 55.8758 273.112 56.2985L274.052 59.0586C274.363 59.9718 273.328 60.7523 272.535 60.2025L269.943 58.4046C269.6 58.1668 269.146 58.1668 268.803 58.4046L266.21 60.2025C265.418 60.7523 264.383 59.9718 264.694 59.0586L265.633 56.2985C265.777 55.8758 265.623 55.409 265.257 55.1546L262.846 53.4826C262.041 52.9242 262.436 51.6609 263.416 51.6609H266.496C266.924 51.6609 267.305 51.3884 267.443 50.9831L268.426 48.0937Z" fill="#FFA858"/>
</svg>
