<svg width="280" height="67" viewBox="0 0 280 67" fill="none" xmlns="http://www.w3.org/2000/svg">
<path d="M5.16895 15.2754L8.00098 3.78125H9.53418L9.63184 6.20312L6.60449 18H4.9834L5.16895 15.2754ZM3.38184 3.78125L5.70605 15.2363V18H3.93848L0.71582 3.78125H3.38184ZM12.5713 15.1875L14.8564 3.78125H17.5322L14.3096 18H12.542L12.5713 15.1875ZM10.2666 3.78125L13.0986 15.3145L13.2646 18H11.6436L8.62598 6.19336L8.74316 3.78125H10.2666ZM21.5654 3V18H18.9775V3H21.5654ZM21.1553 12.3359H20.3936C20.3936 11.6003 20.4912 10.9232 20.6865 10.3047C20.8818 9.6862 21.1585 9.14909 21.5166 8.69336C21.8747 8.23112 22.3011 7.87305 22.7959 7.61914C23.2972 7.36523 23.8506 7.23828 24.4561 7.23828C24.9769 7.23828 25.4489 7.31315 25.8721 7.46289C26.3018 7.60612 26.6696 7.83724 26.9756 8.15625C27.2816 8.47526 27.516 8.89193 27.6787 9.40625C27.848 9.91406 27.9326 10.5326 27.9326 11.2617V18H25.335V11.2422C25.335 10.7539 25.2633 10.3698 25.1201 10.0898C24.9769 9.80339 24.7718 9.59831 24.5049 9.47461C24.2445 9.35091 23.9222 9.28906 23.5381 9.28906C23.1214 9.28906 22.7633 9.37044 22.4639 9.5332C22.1644 9.68945 21.917 9.90755 21.7217 10.1875C21.5329 10.4674 21.3896 10.7897 21.292 11.1543C21.2008 11.5189 21.1553 11.9128 21.1553 12.3359ZM32.9424 7.43359V18H30.3545V7.43359H32.9424ZM30.1787 4.66992C30.1787 4.28581 30.3089 3.9668 30.5693 3.71289C30.8363 3.45898 31.1943 3.33203 31.6436 3.33203C32.0928 3.33203 32.4476 3.45898 32.708 3.71289C32.9749 3.9668 33.1084 4.28581 33.1084 4.66992C33.1084 5.04753 32.9749 5.36328 32.708 5.61719C32.4476 5.87109 32.0928 5.99805 31.6436 5.99805C31.1943 5.99805 30.8363 5.87109 30.5693 5.61719C30.3089 5.36328 30.1787 5.04753 30.1787 4.66992ZM40.4033 7.43359V9.28906H34.3486V7.43359H40.4033ZM35.9697 4.83594H38.5576V14.9531C38.5576 15.2656 38.5999 15.5065 38.6846 15.6758C38.7692 15.8451 38.8962 15.959 39.0654 16.0176C39.2347 16.0762 39.4365 16.1055 39.6709 16.1055C39.8402 16.1055 39.9964 16.0957 40.1396 16.0762C40.2829 16.0566 40.4033 16.0371 40.501 16.0176L40.5107 17.9512C40.2959 18.0228 40.0518 18.0814 39.7783 18.127C39.5114 18.1725 39.2087 18.1953 38.8701 18.1953C38.2907 18.1953 37.7829 18.0977 37.3467 17.9023C36.9105 17.7005 36.5719 17.3783 36.3311 16.9355C36.0902 16.4863 35.9697 15.8939 35.9697 15.1582V4.83594ZM46.8682 18.1953C46.0674 18.1953 45.348 18.0651 44.71 17.8047C44.0719 17.5443 43.5283 17.1829 43.0791 16.7207C42.6364 16.252 42.2946 15.7083 42.0537 15.0898C41.8193 14.4648 41.7021 13.7943 41.7021 13.0781V12.6875C41.7021 11.8737 41.8193 11.1348 42.0537 10.4707C42.2881 9.80013 42.6201 9.22396 43.0498 8.74219C43.4795 8.26042 43.9938 7.88932 44.5928 7.62891C45.1917 7.36849 45.8525 7.23828 46.5752 7.23828C47.3239 7.23828 47.9847 7.36523 48.5576 7.61914C49.1305 7.86654 49.609 8.2181 49.9932 8.67383C50.3773 9.12956 50.667 9.67643 50.8623 10.3145C51.0576 10.946 51.1553 11.6458 51.1553 12.4141V13.498H42.874V11.7207H48.6162V11.5254C48.6032 11.1152 48.5251 10.7409 48.3818 10.4023C48.2386 10.0573 48.0173 9.78385 47.7178 9.58203C47.4183 9.3737 47.0309 9.26953 46.5557 9.26953C46.1715 9.26953 45.8363 9.35417 45.5498 9.52344C45.2699 9.6862 45.0355 9.92057 44.8467 10.2266C44.6644 10.526 44.5277 10.8841 44.4365 11.3008C44.3454 11.7174 44.2998 12.1797 44.2998 12.6875V13.0781C44.2998 13.5208 44.3584 13.931 44.4756 14.3086C44.5993 14.6862 44.7783 15.015 45.0127 15.2949C45.2536 15.5684 45.54 15.7832 45.8721 15.9395C46.2106 16.0892 46.5947 16.1641 47.0244 16.1641C47.5648 16.1641 48.0531 16.0599 48.4893 15.8516C48.932 15.6367 49.3161 15.321 49.6416 14.9043L50.9404 16.252C50.7191 16.5775 50.4196 16.89 50.042 17.1895C49.6709 17.4889 49.2217 17.7331 48.6943 17.9219C48.167 18.1042 47.5583 18.1953 46.8682 18.1953ZM69.4854 3.78125V18H66.79L60.7451 8.13672V18H58.0596V3.78125H60.7451L66.8096 13.6543V3.78125H69.4854ZM78.3135 15.4902V7.43359H80.9111V18H78.4697L78.3135 15.4902ZM78.6455 13.3027L79.4463 13.2832C79.4463 13.9928 79.3682 14.6471 79.2119 15.2461C79.0557 15.8451 78.8115 16.3659 78.4795 16.8086C78.154 17.2448 77.7406 17.5866 77.2393 17.834C76.738 18.0749 76.1455 18.1953 75.4619 18.1953C74.9411 18.1953 74.4658 18.1237 74.0361 17.9805C73.6064 17.8307 73.2354 17.5996 72.9229 17.2871C72.6169 16.9681 72.3792 16.5612 72.21 16.0664C72.0407 15.5651 71.9561 14.9629 71.9561 14.2598V7.43359H74.5342V14.2793C74.5342 14.6309 74.5732 14.9238 74.6514 15.1582C74.736 15.3926 74.8499 15.5846 74.9932 15.7344C75.1429 15.8776 75.3154 15.9818 75.5107 16.0469C75.7126 16.1055 75.9274 16.1348 76.1553 16.1348C76.7803 16.1348 77.2718 16.0111 77.6299 15.7637C77.9945 15.5098 78.2549 15.1712 78.4111 14.748C78.5674 14.3184 78.6455 13.8366 78.6455 13.3027ZM88.1963 7.43359V9.28906H82.1416V7.43359H88.1963ZM83.7627 4.83594H86.3506V14.9531C86.3506 15.2656 86.3929 15.5065 86.4775 15.6758C86.5622 15.8451 86.6891 15.959 86.8584 16.0176C87.0277 16.0762 87.2295 16.1055 87.4639 16.1055C87.6331 16.1055 87.7894 16.0957 87.9326 16.0762C88.0758 16.0566 88.1963 16.0371 88.2939 16.0176L88.3037 17.9512C88.0889 18.0228 87.8447 18.0814 87.5713 18.127C87.3044 18.1725 87.0016 18.1953 86.6631 18.1953C86.0837 18.1953 85.5758 18.0977 85.1396 17.9023C84.7035 17.7005 84.3649 17.3783 84.124 16.9355C83.8831 16.4863 83.7627 15.8939 83.7627 15.1582V4.83594ZM95.7256 15.1094C95.7256 14.888 95.667 14.6895 95.5498 14.5137C95.4326 14.3379 95.2113 14.1784 94.8857 14.0352C94.5667 13.8854 94.098 13.7454 93.4795 13.6152C92.9326 13.498 92.4281 13.3516 91.9658 13.1758C91.5036 13 91.1064 12.7884 90.7744 12.541C90.4424 12.2871 90.182 11.9909 89.9932 11.6523C89.8109 11.3073 89.7197 10.9102 89.7197 10.4609C89.7197 10.0247 89.8141 9.61458 90.0029 9.23047C90.1917 8.83984 90.4652 8.49805 90.8232 8.20508C91.1813 7.9056 91.6175 7.67122 92.1318 7.50195C92.6462 7.32617 93.2256 7.23828 93.8701 7.23828C94.7686 7.23828 95.54 7.38477 96.1846 7.67773C96.8356 7.9707 97.3337 8.37435 97.6787 8.88867C98.0238 9.39648 98.1963 9.9694 98.1963 10.6074H95.6182C95.6182 10.3275 95.5531 10.0736 95.4229 9.8457C95.2992 9.61784 95.1071 9.43555 94.8467 9.29883C94.5863 9.1556 94.2575 9.08398 93.8604 9.08398C93.5023 9.08398 93.1995 9.14258 92.9521 9.25977C92.7113 9.37695 92.529 9.52995 92.4053 9.71875C92.2816 9.90755 92.2197 10.1159 92.2197 10.3438C92.2197 10.513 92.2523 10.666 92.3174 10.8027C92.389 10.9329 92.5029 11.0534 92.6592 11.1641C92.8154 11.2747 93.027 11.3757 93.2939 11.4668C93.5674 11.5579 93.9027 11.6458 94.2998 11.7305C95.0876 11.8867 95.7744 12.0951 96.3604 12.3555C96.9528 12.6094 97.415 12.9479 97.7471 13.3711C98.0791 13.7943 98.2451 14.3346 98.2451 14.9922C98.2451 15.4609 98.1442 15.8906 97.9424 16.2812C97.7406 16.6654 97.4476 17.0007 97.0635 17.2871C96.6794 17.5736 96.2204 17.7982 95.6865 17.9609C95.1527 18.1172 94.5505 18.1953 93.8799 18.1953C92.9098 18.1953 92.0895 18.0228 91.4189 17.6777C90.7484 17.3262 90.2406 16.8835 89.8955 16.3496C89.5505 15.8092 89.3779 15.2493 89.3779 14.6699H91.8486C91.8682 15.0801 91.9788 15.4089 92.1807 15.6562C92.3825 15.9036 92.6364 16.0827 92.9424 16.1934C93.2549 16.2975 93.5837 16.3496 93.9287 16.3496C94.3193 16.3496 94.6481 16.2975 94.915 16.1934C95.182 16.0827 95.3838 15.9362 95.5205 15.7539C95.6572 15.5651 95.7256 15.3503 95.7256 15.1094Z" fill="#274C5B"/>
<path d="M0.180664 36L275.169 36" stroke="#DEDDDD"/>
<path d="M61.915 62.0459V60.2793C61.1357 60.2617 60.4385 60.1885 59.8232 60.0596C59.2139 59.9248 58.6572 59.7461 58.1533 59.5234V57.2031C58.6514 57.4434 59.2461 57.6631 59.9375 57.8623C60.6289 58.0557 61.2881 58.1729 61.915 58.2139V55.4893C60.9893 55.126 60.248 54.7744 59.6914 54.4346C59.1406 54.0889 58.7422 53.708 58.4961 53.292C58.2559 52.8701 58.1357 52.3662 58.1357 51.7803C58.1357 51.1826 58.2939 50.667 58.6104 50.2334C58.9326 49.7939 59.3779 49.4424 59.9463 49.1787C60.5146 48.915 61.1709 48.751 61.915 48.6865V47.3418H63.1191V48.6514C63.7988 48.6748 64.4316 48.7539 65.0176 48.8887C65.6094 49.0176 66.1895 49.208 66.7578 49.46L65.9316 51.5166C65.4512 51.3174 64.9678 51.1621 64.4814 51.0508C64.001 50.9395 63.5469 50.8662 63.1191 50.8311V53.4238C63.7695 53.6641 64.3877 53.9248 64.9736 54.2061C65.5596 54.4873 66.0371 54.8447 66.4062 55.2783C66.7754 55.7119 66.96 56.2803 66.96 56.9834C66.96 57.8564 66.6406 58.5889 66.002 59.1807C65.3691 59.7725 64.4082 60.127 63.1191 60.2441V62.0459H61.915ZM63.1191 58.1523C63.5293 58.082 63.8311 57.9619 64.0244 57.792C64.2178 57.6162 64.3145 57.3906 64.3145 57.1152C64.3145 56.9512 64.2705 56.8047 64.1826 56.6758C64.0947 56.5469 63.96 56.4268 63.7783 56.3154C63.6025 56.1982 63.3828 56.0811 63.1191 55.9639V58.1523ZM61.915 52.9316V50.8662C61.6748 50.9014 61.4697 50.96 61.2998 51.042C61.1299 51.1182 61.001 51.2178 60.9131 51.3408C60.8252 51.4639 60.7812 51.6104 60.7812 51.7803C60.7812 51.9502 60.8193 52.0996 60.8955 52.2285C60.9775 52.3574 61.1006 52.4775 61.2646 52.5889C61.4346 52.7002 61.6514 52.8145 61.915 52.9316ZM75.0986 61H72.3828V53.5645C72.3828 53.3594 72.3857 53.1074 72.3916 52.8086C72.3975 52.5039 72.4062 52.1934 72.418 51.877C72.4297 51.5547 72.4414 51.2646 72.4531 51.0068C72.3887 51.083 72.2568 51.2148 72.0576 51.4023C71.8643 51.584 71.6826 51.748 71.5127 51.8945L70.0361 53.0811L68.7266 51.4463L72.8662 48.1504H75.0986V61ZM83.3604 52.791C84.1455 52.791 84.8428 52.9404 85.4521 53.2393C86.0674 53.5381 86.5508 53.9775 86.9023 54.5576C87.2539 55.1377 87.4297 55.8525 87.4297 56.7021C87.4297 57.6279 87.2363 58.4277 86.8496 59.1016C86.4688 59.7695 85.8975 60.2822 85.1357 60.6396C84.3799 60.9971 83.4365 61.1758 82.3057 61.1758C81.6318 61.1758 80.9961 61.1172 80.3984 61C79.8066 60.8887 79.2881 60.7158 78.8428 60.4814V58.1348C79.2881 58.3691 79.8213 58.5684 80.4424 58.7324C81.0693 58.8906 81.6582 58.9697 82.209 58.9697C82.748 58.9697 83.2021 58.8994 83.5713 58.7588C83.9404 58.6123 84.2188 58.3896 84.4062 58.0908C84.5996 57.7861 84.6963 57.3994 84.6963 56.9307C84.6963 56.3037 84.4854 55.8232 84.0635 55.4893C83.6416 55.1553 82.9941 54.9883 82.1211 54.9883C81.7871 54.9883 81.4385 55.0205 81.0752 55.085C80.7178 55.1494 80.4189 55.2139 80.1787 55.2783L79.0977 54.6982L79.5811 48.1504H86.5508V50.4531H81.9629L81.7256 52.9756C81.9248 52.9346 82.1416 52.8936 82.376 52.8525C82.6104 52.8115 82.9385 52.791 83.3604 52.791ZM89.293 59.7432C89.293 59.1924 89.4424 58.8057 89.7412 58.583C90.0459 58.3604 90.4121 58.249 90.8398 58.249C91.2559 58.249 91.6133 58.3604 91.9121 58.583C92.2168 58.8057 92.3691 59.1924 92.3691 59.7432C92.3691 60.2705 92.2168 60.6514 91.9121 60.8857C91.6133 61.1201 91.2559 61.2373 90.8398 61.2373C90.4121 61.2373 90.0459 61.1201 89.7412 60.8857C89.4424 60.6514 89.293 60.2705 89.293 59.7432ZM103.03 54.5752C103.03 55.6123 102.948 56.5381 102.784 57.3525C102.626 58.167 102.368 58.8584 102.011 59.4268C101.659 59.9951 101.196 60.4287 100.622 60.7275C100.048 61.0264 99.3506 61.1758 98.5303 61.1758C97.499 61.1758 96.6523 60.915 95.9902 60.3936C95.3281 59.8662 94.8389 59.1104 94.5225 58.126C94.2061 57.1357 94.0479 55.9521 94.0479 54.5752C94.0479 53.1865 94.1914 52 94.4785 51.0156C94.7715 50.0254 95.2461 49.2666 95.9023 48.7393C96.5586 48.2119 97.4346 47.9482 98.5303 47.9482C99.5557 47.9482 100.399 48.2119 101.062 48.7393C101.729 49.2607 102.225 50.0166 102.547 51.0068C102.869 51.9912 103.03 53.1807 103.03 54.5752ZM96.7461 54.5752C96.7461 55.5537 96.7988 56.3711 96.9043 57.0273C97.0156 57.6777 97.2002 58.167 97.458 58.4951C97.7158 58.8232 98.0732 58.9873 98.5303 58.9873C98.9814 58.9873 99.3359 58.8262 99.5938 58.5039C99.8574 58.1758 100.045 57.6865 100.156 57.0361C100.268 56.3799 100.323 55.5596 100.323 54.5752C100.323 53.5967 100.268 52.7793 100.156 52.123C100.045 51.4668 99.8574 50.9746 99.5938 50.6465C99.3359 50.3125 98.9814 50.1455 98.5303 50.1455C98.0732 50.1455 97.7158 50.3125 97.458 50.6465C97.2002 50.9746 97.0156 51.4668 96.9043 52.123C96.7988 52.7793 96.7461 53.5967 96.7461 54.5752ZM113.331 54.5752C113.331 55.6123 113.249 56.5381 113.085 57.3525C112.927 58.167 112.669 58.8584 112.312 59.4268C111.96 59.9951 111.497 60.4287 110.923 60.7275C110.349 61.0264 109.651 61.1758 108.831 61.1758C107.8 61.1758 106.953 60.915 106.291 60.3936C105.629 59.8662 105.14 59.1104 104.823 58.126C104.507 57.1357 104.349 55.9521 104.349 54.5752C104.349 53.1865 104.492 52 104.779 51.0156C105.072 50.0254 105.547 49.2666 106.203 48.7393C106.859 48.2119 107.735 47.9482 108.831 47.9482C109.856 47.9482 110.7 48.2119 111.362 48.7393C112.03 49.2607 112.525 50.0166 112.848 51.0068C113.17 51.9912 113.331 53.1807 113.331 54.5752ZM107.047 54.5752C107.047 55.5537 107.1 56.3711 107.205 57.0273C107.316 57.6777 107.501 58.167 107.759 58.4951C108.017 58.8232 108.374 58.9873 108.831 58.9873C109.282 58.9873 109.637 58.8262 109.895 58.5039C110.158 58.1758 110.346 57.6865 110.457 57.0361C110.568 56.3799 110.624 55.5596 110.624 54.5752C110.624 53.5967 110.568 52.7793 110.457 52.123C110.346 51.4668 110.158 50.9746 109.895 50.6465C109.637 50.3125 109.282 50.1455 108.831 50.1455C108.374 50.1455 108.017 50.3125 107.759 50.6465C107.501 50.9746 107.316 51.4668 107.205 52.123C107.1 52.7793 107.047 53.5967 107.047 54.5752Z" fill="#274C5B"/>
<path d="M5.45654 61.8716V60.3628C4.85107 60.353 4.29199 60.2993 3.7793 60.2017C3.27148 60.0991 2.83203 59.9673 2.46094 59.8062V58.2461C2.83691 58.4219 3.30078 58.5806 3.85254 58.7222C4.4043 58.8638 4.93896 58.9443 5.45654 58.9639V56.2173C4.74854 55.978 4.17236 55.729 3.72803 55.4702C3.28857 55.2114 2.96631 54.9111 2.76123 54.5693C2.55615 54.2227 2.45361 53.8076 2.45361 53.3242C2.45361 52.8262 2.57812 52.3989 2.82715 52.0425C3.08105 51.6812 3.43262 51.3955 3.88184 51.1855C4.33594 50.9756 4.86084 50.8511 5.45654 50.812V49.6182H6.40869V50.79C6.95068 50.8047 7.45117 50.8657 7.91016 50.9731C8.37402 51.0757 8.81592 51.2197 9.23584 51.4053L8.70117 52.7676C8.33496 52.6211 7.9541 52.5015 7.55859 52.4087C7.16309 52.3159 6.77979 52.2524 6.40869 52.2183V54.8989C7.00439 55.0942 7.53418 55.3042 7.99805 55.5288C8.4668 55.7534 8.83301 56.0366 9.09668 56.3784C9.36523 56.7153 9.49951 57.1572 9.49951 57.7041C9.49951 58.4219 9.23584 59.0151 8.7085 59.4839C8.18115 59.9478 7.41455 60.2261 6.40869 60.3188V61.8716H5.45654ZM6.40869 58.9053C6.87744 58.8467 7.22656 58.7246 7.45605 58.5391C7.68555 58.3486 7.80029 58.1021 7.80029 57.7993C7.80029 57.5942 7.75146 57.4209 7.65381 57.2793C7.56104 57.1377 7.41211 57.0107 7.20703 56.8984C7.00684 56.7861 6.74072 56.6763 6.40869 56.5688V58.9053ZM5.45654 54.54V52.2476C5.17334 52.2769 4.93408 52.3354 4.73877 52.4233C4.54346 52.5112 4.39697 52.626 4.29932 52.7676C4.20166 52.9092 4.15283 53.0776 4.15283 53.2729C4.15283 53.4878 4.19678 53.6709 4.28467 53.8223C4.37256 53.9736 4.51172 54.1055 4.70215 54.2178C4.89746 54.3301 5.14893 54.4375 5.45654 54.54ZM18.1714 61H10.9204V59.7036L13.6963 56.8911C14.2334 56.3442 14.6753 55.873 15.022 55.4775C15.3687 55.0771 15.625 54.6987 15.791 54.3423C15.9619 53.9858 16.0474 53.5977 16.0474 53.1777C16.0474 52.6602 15.8984 52.2695 15.6006 52.0059C15.3027 51.7373 14.9097 51.603 14.4214 51.603C13.9575 51.603 13.5278 51.6958 13.1323 51.8813C12.7417 52.062 12.3364 52.3208 11.9165 52.6577L10.9717 51.5225C11.2695 51.2686 11.5869 51.0366 11.9238 50.8267C12.2656 50.6167 12.6465 50.4507 13.0664 50.3286C13.4863 50.2017 13.9648 50.1382 14.502 50.1382C15.1807 50.1382 15.7666 50.2603 16.2598 50.5044C16.7529 50.7437 17.1313 51.0781 17.395 51.5078C17.6636 51.9375 17.7979 52.438 17.7979 53.0093C17.7979 53.5854 17.6831 54.1177 17.4536 54.606C17.2241 55.0942 16.897 55.5776 16.4722 56.0562C16.0474 56.5298 15.542 57.0449 14.9561 57.6016L13.103 59.4106V59.4912H18.1714V61ZM26.7554 55.6387C26.7554 56.5029 26.687 57.2769 26.5503 57.9604C26.4185 58.6392 26.2085 59.2153 25.9204 59.689C25.6323 60.1626 25.2563 60.5239 24.7925 60.7729C24.3286 61.022 23.7671 61.1465 23.1079 61.1465C22.2827 61.1465 21.6016 60.9292 21.0645 60.4946C20.5273 60.0552 20.1294 59.4253 19.8706 58.605C19.6118 57.7798 19.4824 56.791 19.4824 55.6387C19.4824 54.4863 19.5996 53.5 19.834 52.6797C20.0732 51.8545 20.459 51.2222 20.9912 50.7827C21.5234 50.3433 22.229 50.1235 23.1079 50.1235C23.938 50.1235 24.6216 50.3433 25.1587 50.7827C25.7007 51.2173 26.1011 51.8472 26.3599 52.6724C26.6235 53.4927 26.7554 54.4814 26.7554 55.6387ZM21.2183 55.6387C21.2183 56.542 21.2769 57.2964 21.394 57.9019C21.5161 58.5073 21.7163 58.9614 21.9946 59.2642C22.2729 59.562 22.644 59.7109 23.1079 59.7109C23.5718 59.7109 23.9429 59.562 24.2212 59.2642C24.4995 58.9663 24.6997 58.5146 24.8218 57.9092C24.9487 57.3037 25.0122 56.5469 25.0122 55.6387C25.0122 54.7402 24.9512 53.9883 24.8291 53.3828C24.707 52.7773 24.5068 52.3232 24.2285 52.0205C23.9502 51.7129 23.5767 51.5591 23.1079 51.5591C22.6392 51.5591 22.2656 51.7129 21.9873 52.0205C21.7139 52.3232 21.5161 52.7773 21.394 53.3828C21.2769 53.9883 21.2183 54.7402 21.2183 55.6387ZM28.396 60.0918C28.396 59.6914 28.4985 59.4106 28.7036 59.2495C28.9136 59.0835 29.1675 59.0005 29.4653 59.0005C29.7632 59.0005 30.0171 59.0835 30.2271 59.2495C30.4419 59.4106 30.5493 59.6914 30.5493 60.0918C30.5493 60.4824 30.4419 60.7656 30.2271 60.9414C30.0171 61.1123 29.7632 61.1978 29.4653 61.1978C29.1675 61.1978 28.9136 61.1123 28.7036 60.9414C28.4985 60.7656 28.396 60.4824 28.396 60.0918ZM39.4556 55.6387C39.4556 56.5029 39.3872 57.2769 39.2505 57.9604C39.1187 58.6392 38.9087 59.2153 38.6206 59.689C38.3325 60.1626 37.9565 60.5239 37.4927 60.7729C37.0288 61.022 36.4673 61.1465 35.8081 61.1465C34.9829 61.1465 34.3018 60.9292 33.7646 60.4946C33.2275 60.0552 32.8296 59.4253 32.5708 58.605C32.312 57.7798 32.1826 56.791 32.1826 55.6387C32.1826 54.4863 32.2998 53.5 32.5342 52.6797C32.7734 51.8545 33.1592 51.2222 33.6914 50.7827C34.2236 50.3433 34.9292 50.1235 35.8081 50.1235C36.6382 50.1235 37.3218 50.3433 37.8589 50.7827C38.4009 51.2173 38.8013 51.8472 39.0601 52.6724C39.3237 53.4927 39.4556 54.4814 39.4556 55.6387ZM33.9185 55.6387C33.9185 56.542 33.9771 57.2964 34.0942 57.9019C34.2163 58.5073 34.4165 58.9614 34.6948 59.2642C34.9731 59.562 35.3442 59.7109 35.8081 59.7109C36.272 59.7109 36.6431 59.562 36.9214 59.2642C37.1997 58.9663 37.3999 58.5146 37.522 57.9092C37.6489 57.3037 37.7124 56.5469 37.7124 55.6387C37.7124 54.7402 37.6514 53.9883 37.5293 53.3828C37.4072 52.7773 37.207 52.3232 36.9287 52.0205C36.6504 51.7129 36.2769 51.5591 35.8081 51.5591C35.3394 51.5591 34.9658 51.7129 34.6875 52.0205C34.4141 52.3232 34.2163 52.7773 34.0942 53.3828C33.9771 53.9883 33.9185 54.7402 33.9185 55.6387ZM48.0396 55.6387C48.0396 56.5029 47.9712 57.2769 47.8345 57.9604C47.7026 58.6392 47.4927 59.2153 47.2046 59.689C46.9165 60.1626 46.5405 60.5239 46.0767 60.7729C45.6128 61.022 45.0513 61.1465 44.3921 61.1465C43.5669 61.1465 42.8857 60.9292 42.3486 60.4946C41.8115 60.0552 41.4136 59.4253 41.1548 58.605C40.896 57.7798 40.7666 56.791 40.7666 55.6387C40.7666 54.4863 40.8838 53.5 41.1182 52.6797C41.3574 51.8545 41.7432 51.2222 42.2754 50.7827C42.8076 50.3433 43.5132 50.1235 44.3921 50.1235C45.2222 50.1235 45.9058 50.3433 46.4429 50.7827C46.9849 51.2173 47.3853 51.8472 47.644 52.6724C47.9077 53.4927 48.0396 54.4814 48.0396 55.6387ZM42.5024 55.6387C42.5024 56.542 42.561 57.2964 42.6782 57.9019C42.8003 58.5073 43.0005 58.9614 43.2788 59.2642C43.5571 59.562 43.9282 59.7109 44.3921 59.7109C44.856 59.7109 45.2271 59.562 45.5054 59.2642C45.7837 58.9663 45.9839 58.5146 46.106 57.9092C46.2329 57.3037 46.2964 56.5469 46.2964 55.6387C46.2964 54.7402 46.2354 53.9883 46.1133 53.3828C45.9912 52.7773 45.791 52.3232 45.5127 52.0205C45.2344 51.7129 44.8608 51.5591 44.3921 51.5591C43.9233 51.5591 43.5498 51.7129 43.2715 52.0205C42.998 52.3232 42.8003 52.7773 42.6782 53.3828C42.561 53.9883 42.5024 54.7402 42.5024 55.6387Z" fill="#B8B8B8"/>
<rect x="0.180664" y="55" width="50" height="1" fill="#B8B8B8"/>
<path d="M203.859 48.0937C204.166 47.19 205.444 47.19 205.752 48.0937L206.736 50.9831C206.874 51.3884 207.254 51.6609 207.682 51.6609H210.762C211.742 51.6609 212.138 52.9242 211.332 53.4826L208.922 55.1546C208.555 55.409 208.401 55.8758 208.545 56.2985L209.484 59.0586C209.795 59.9718 208.76 60.7523 207.968 60.2025L205.375 58.4046C205.033 58.1668 204.578 58.1668 204.235 58.4046L201.643 60.2025C200.85 60.7523 199.816 59.9718 200.126 59.0586L201.066 56.2985C201.21 55.8758 201.056 55.409 200.689 55.1546L198.278 53.4826C197.473 52.9242 197.868 51.6609 198.848 51.6609H201.929C202.357 51.6609 202.737 51.3884 202.875 50.9831L203.859 48.0937Z" fill="#FFA858"/>
<path d="M220.041 48.2396C220.341 47.3183 221.644 47.3183 221.943 48.2396L222.831 50.9699C222.964 51.3819 223.348 51.6609 223.782 51.6609H226.652C227.621 51.6609 228.024 52.9005 227.24 53.4699L224.918 55.1574C224.567 55.412 224.421 55.8634 224.554 56.2754L225.441 59.0058C225.741 59.9271 224.686 60.6932 223.903 60.1238L221.58 58.4364C221.23 58.1817 220.755 58.1817 220.405 58.4364L218.082 60.1238C217.298 60.6932 216.244 59.9271 216.543 59.0058L217.43 56.2754C217.564 55.8634 217.418 55.412 217.067 55.1574L214.745 53.4699C213.961 52.9005 214.364 51.6609 215.332 51.6609H218.203C218.636 51.6609 219.02 51.3819 219.154 50.9699L220.041 48.2396Z" fill="#FFA858"/>
<path d="M236.233 48.0937C236.54 47.19 237.818 47.19 238.126 48.0937L239.11 50.9831C239.248 51.3884 239.628 51.6609 240.056 51.6609H243.136C244.116 51.6609 244.512 52.9242 243.706 53.4826L241.296 55.1546C240.929 55.409 240.775 55.8758 240.919 56.2985L241.858 59.0586C242.169 59.9718 241.134 60.7523 240.342 60.2025L237.749 58.4046C237.407 58.1668 236.952 58.1668 236.61 58.4046L234.017 60.2025C233.224 60.7523 232.19 59.9718 232.5 59.0586L233.44 56.2985C233.584 55.8758 233.43 55.409 233.063 55.1546L230.652 53.4826C229.847 52.9242 230.242 51.6609 231.222 51.6609H234.303C234.731 51.6609 235.111 51.3884 235.249 50.9831L236.233 48.0937Z" fill="#FFA858"/>
<path d="M252.415 48.2396C252.715 47.3183 254.018 47.3183 254.317 48.2396L255.205 50.9699C255.338 51.3819 255.722 51.6609 256.156 51.6609H259.026C259.995 51.6609 260.398 52.9005 259.614 53.4699L257.292 55.1574C256.941 55.412 256.795 55.8634 256.928 56.2754L257.816 59.0058C258.115 59.9271 257.06 60.6932 256.277 60.1238L253.954 58.4364C253.604 58.1817 253.129 58.1817 252.779 58.4364L250.456 60.1238C249.672 60.6932 248.618 59.9271 248.917 59.0058L249.804 56.2754C249.938 55.8634 249.792 55.412 249.441 55.1574L247.119 53.4699C246.335 52.9005 246.738 51.6609 247.706 51.6609H250.577C251.01 51.6609 251.394 51.3819 251.528 50.9699L252.415 48.2396Z" fill="#FFA858"/>
<path d="M268.607 48.0937C268.914 47.19 270.192 47.19 270.5 48.0937L271.484 50.9831C271.622 51.3884 272.002 51.6609 272.43 51.6609H275.51C276.49 51.6609 276.886 52.9242 276.08 53.4826L273.67 55.1546C273.303 55.409 273.149 55.8758 273.293 56.2985L274.232 59.0586C274.543 59.9718 273.508 60.7523 272.716 60.2025L270.123 58.4046C269.781 58.1668 269.326 58.1668 268.984 58.4046L266.391 60.2025C265.598 60.7523 264.564 59.9718 264.875 59.0586L265.814 56.2985C265.958 55.8758 265.804 55.409 265.437 55.1546L263.026 53.4826C262.221 52.9242 262.616 51.6609 263.596 51.6609H266.677C267.105 51.6609 267.485 51.3884 267.623 50.9831L268.607 48.0937Z" fill="#FFA858"/>
</svg>
