<svg width="280" height="67" viewBox="0 0 280 67" fill="none" xmlns="http://www.w3.org/2000/svg">
<path d="M6.69434 15.2168L10.2393 3.78125H13.2178L8.19824 18H6.21582L6.69434 15.2168ZM3.42285 3.78125L6.94824 15.2168L7.45605 18H5.4541L0.454102 3.78125H3.42285ZM18.8037 18.1953C18.0029 18.1953 17.2835 18.0651 16.6455 17.8047C16.0075 17.5443 15.4639 17.1829 15.0146 16.7207C14.5719 16.252 14.2301 15.7083 13.9893 15.0898C13.7549 14.4648 13.6377 13.7943 13.6377 13.0781V12.6875C13.6377 11.8737 13.7549 11.1348 13.9893 10.4707C14.2236 9.80013 14.5557 9.22396 14.9854 8.74219C15.415 8.26042 15.9294 7.88932 16.5283 7.62891C17.1273 7.36849 17.7881 7.23828 18.5107 7.23828C19.2594 7.23828 19.9202 7.36523 20.4932 7.61914C21.0661 7.86654 21.5446 8.2181 21.9287 8.67383C22.3128 9.12956 22.6025 9.67643 22.7979 10.3145C22.9932 10.946 23.0908 11.6458 23.0908 12.4141V13.498H14.8096V11.7207H20.5518V11.5254C20.5387 11.1152 20.4606 10.7409 20.3174 10.4023C20.1742 10.0573 19.9528 9.78385 19.6533 9.58203C19.3538 9.3737 18.9665 9.26953 18.4912 9.26953C18.1071 9.26953 17.7718 9.35417 17.4854 9.52344C17.2054 9.6862 16.971 9.92057 16.7822 10.2266C16.5999 10.526 16.4632 10.8841 16.3721 11.3008C16.2809 11.7174 16.2354 12.1797 16.2354 12.6875V13.0781C16.2354 13.5208 16.2939 13.931 16.4111 14.3086C16.5348 14.6862 16.7139 15.015 16.9482 15.2949C17.1891 15.5684 17.4756 15.7832 17.8076 15.9395C18.1462 16.0892 18.5303 16.1641 18.96 16.1641C19.5003 16.1641 19.9886 16.0599 20.4248 15.8516C20.8675 15.6367 21.2516 15.321 21.5771 14.9043L22.876 16.252C22.6546 16.5775 22.3551 16.89 21.9775 17.1895C21.6064 17.4889 21.1572 17.7331 20.6299 17.9219C20.1025 18.1042 19.4938 18.1953 18.8037 18.1953ZM31.5381 7.43359H33.8818V17.6777C33.8818 18.6348 33.6735 19.4453 33.2568 20.1094C32.8467 20.7799 32.2705 21.2878 31.5283 21.6328C30.7861 21.9844 29.9235 22.1602 28.9404 22.1602C28.5173 22.1602 28.0583 22.1016 27.5635 21.9844C27.0752 21.8672 26.6032 21.6816 26.1475 21.4277C25.6982 21.1803 25.3239 20.8581 25.0244 20.4609L26.1865 18.9375C26.5381 19.3477 26.9352 19.6569 27.3779 19.8652C27.8206 20.0801 28.2992 20.1875 28.8135 20.1875C29.3343 20.1875 29.777 20.0898 30.1416 19.8945C30.5127 19.7057 30.7959 19.4258 30.9912 19.0547C31.193 18.6901 31.2939 18.2409 31.2939 17.707V9.8457L31.5381 7.43359ZM24.3994 12.8438V12.6387C24.3994 11.8314 24.4971 11.099 24.6924 10.4414C24.8877 9.77734 25.1676 9.20768 25.5322 8.73242C25.9033 8.25716 26.3493 7.88932 26.8701 7.62891C27.3975 7.36849 27.9899 7.23828 28.6475 7.23828C29.3441 7.23828 29.93 7.36523 30.4053 7.61914C30.887 7.87305 31.2842 8.23438 31.5967 8.70312C31.9157 9.17188 32.1631 9.72852 32.3389 10.373C32.5212 11.0111 32.6611 11.7142 32.7588 12.4824V13.0391C32.6676 13.7878 32.5212 14.4746 32.3193 15.0996C32.124 15.7246 31.8636 16.2715 31.5381 16.7402C31.2126 17.2025 30.8089 17.5605 30.3271 17.8145C29.8454 18.0684 29.279 18.1953 28.6279 18.1953C27.9769 18.1953 27.391 18.0618 26.8701 17.7949C26.3493 17.528 25.9033 17.1536 25.5322 16.6719C25.1676 16.1901 24.8877 15.6237 24.6924 14.9727C24.4971 14.3216 24.3994 13.612 24.3994 12.8438ZM26.9775 12.6387V12.8438C26.9775 13.2995 27.0231 13.7259 27.1143 14.123C27.2054 14.5202 27.3454 14.8717 27.5342 15.1777C27.723 15.4772 27.9606 15.7116 28.2471 15.8809C28.5335 16.0501 28.8753 16.1348 29.2725 16.1348C29.8063 16.1348 30.2425 16.0241 30.5811 15.8027C30.9261 15.5749 31.1865 15.2656 31.3623 14.875C31.5446 14.4779 31.6618 14.0319 31.7139 13.5371V12.0039C31.6813 11.6133 31.6097 11.252 31.499 10.9199C31.3949 10.5879 31.2484 10.3014 31.0596 10.0605C30.8708 9.81966 30.6299 9.63086 30.3369 9.49414C30.0439 9.35742 29.6956 9.28906 29.292 9.28906C28.9014 9.28906 28.5596 9.37695 28.2666 9.55273C27.9736 9.72201 27.7327 9.95964 27.5439 10.2656C27.3551 10.5716 27.2119 10.9264 27.1143 11.3301C27.0231 11.7337 26.9775 12.1699 26.9775 12.6387ZM42.0264 15.7539V10.8809C42.0264 10.5228 41.9645 10.2135 41.8408 9.95312C41.7171 9.69271 41.5283 9.49089 41.2744 9.34766C41.0205 9.20443 40.6982 9.13281 40.3076 9.13281C39.9626 9.13281 39.6598 9.19141 39.3994 9.30859C39.1455 9.42578 38.9502 9.5918 38.8135 9.80664C38.6768 10.015 38.6084 10.2559 38.6084 10.5293H36.0205C36.0205 10.0931 36.1247 9.67969 36.333 9.28906C36.5413 8.89193 36.8376 8.54036 37.2217 8.23438C37.6123 7.92188 38.0778 7.67773 38.6182 7.50195C39.165 7.32617 39.777 7.23828 40.4541 7.23828C41.2549 7.23828 41.9678 7.375 42.5928 7.64844C43.2243 7.91536 43.7191 8.31901 44.0771 8.85938C44.4417 9.39974 44.624 10.0801 44.624 10.9004V15.5098C44.624 16.0371 44.6566 16.4896 44.7217 16.8672C44.7933 17.2383 44.8975 17.5605 45.0342 17.834V18H42.4072C42.2835 17.7331 42.1891 17.3945 42.124 16.9844C42.0589 16.5677 42.0264 16.1576 42.0264 15.7539ZM42.3877 11.5645L42.4072 13.0977H40.7764C40.3727 13.0977 40.0179 13.14 39.7119 13.2246C39.4059 13.3027 39.1553 13.4199 38.96 13.5762C38.7646 13.7259 38.6182 13.9082 38.5205 14.123C38.4229 14.3314 38.374 14.569 38.374 14.8359C38.374 15.0964 38.4326 15.3307 38.5498 15.5391C38.6735 15.7474 38.8493 15.9134 39.0771 16.0371C39.3115 16.1543 39.585 16.2129 39.8975 16.2129C40.3532 16.2129 40.7503 16.1217 41.0889 15.9395C41.4274 15.7507 41.6911 15.5228 41.8799 15.2559C42.0687 14.9889 42.1696 14.735 42.1826 14.4941L42.9248 15.6074C42.8337 15.8743 42.6969 16.1576 42.5146 16.457C42.3324 16.7565 42.098 17.0365 41.8115 17.2969C41.5251 17.5573 41.18 17.7721 40.7764 17.9414C40.3727 18.1107 39.904 18.1953 39.3701 18.1953C38.6865 18.1953 38.0745 18.0586 37.5342 17.7852C36.9938 17.5117 36.5674 17.1374 36.2549 16.6621C35.9424 16.1868 35.7861 15.6465 35.7861 15.041C35.7861 14.4811 35.8903 13.9863 36.0986 13.5566C36.307 13.127 36.6162 12.7656 37.0264 12.4727C37.4365 12.1732 37.9443 11.9486 38.5498 11.7988C39.1618 11.6426 39.8617 11.5645 40.6494 11.5645H42.3877ZM49.4775 9.68945V18H46.8994V7.43359H49.3213L49.4775 9.68945ZM49.0674 12.3359H48.3057C48.3122 11.5677 48.4163 10.8711 48.6182 10.2461C48.82 9.62109 49.1032 9.08398 49.4678 8.63477C49.8389 8.18555 50.2783 7.84049 50.7861 7.59961C51.2939 7.35872 51.8604 7.23828 52.4854 7.23828C52.9932 7.23828 53.4521 7.3099 53.8623 7.45312C54.2725 7.59635 54.624 7.82422 54.917 8.13672C55.2165 8.44922 55.4443 8.85938 55.6006 9.36719C55.7633 9.86849 55.8447 10.487 55.8447 11.2227V18H53.2471V11.2031C53.2471 10.7214 53.1755 10.3405 53.0322 10.0605C52.8955 9.7806 52.6937 9.58203 52.4268 9.46484C52.1663 9.34766 51.8441 9.28906 51.46 9.28906C51.0628 9.28906 50.7145 9.37044 50.415 9.5332C50.1221 9.68945 49.8747 9.90755 49.6729 10.1875C49.4775 10.4674 49.3278 10.7897 49.2236 11.1543C49.1195 11.5189 49.0674 11.9128 49.0674 12.3359ZM63.2959 3.78125H68.4619C69.5426 3.78125 70.4704 3.94401 71.2451 4.26953C72.0199 4.59505 72.6156 5.07682 73.0322 5.71484C73.4489 6.35286 73.6572 7.13737 73.6572 8.06836C73.6572 8.80404 73.527 9.44206 73.2666 9.98242C73.0062 10.5228 72.6383 10.9753 72.1631 11.3398C71.6943 11.7044 71.141 11.9909 70.5029 12.1992L69.6631 12.6289H65.1025L65.083 10.5098H68.4912C69.0446 10.5098 69.5036 10.4121 69.8682 10.2168C70.2327 10.0215 70.5062 9.7513 70.6885 9.40625C70.8773 9.0612 70.9717 8.66732 70.9717 8.22461C70.9717 7.74935 70.8805 7.33919 70.6982 6.99414C70.516 6.64258 70.2393 6.3724 69.8682 6.18359C69.4971 5.99479 69.0283 5.90039 68.4619 5.90039H65.9814V18H63.2959V3.78125ZM71.3232 18L68.0322 11.6328L70.874 11.623L74.2041 17.8633V18H71.3232ZM80.5615 18.1953C79.7607 18.1953 79.0413 18.0651 78.4033 17.8047C77.7653 17.5443 77.2217 17.1829 76.7725 16.7207C76.3298 16.252 75.988 15.7083 75.7471 15.0898C75.5127 14.4648 75.3955 13.7943 75.3955 13.0781V12.6875C75.3955 11.8737 75.5127 11.1348 75.7471 10.4707C75.9814 9.80013 76.3135 9.22396 76.7432 8.74219C77.1729 8.26042 77.6872 7.88932 78.2861 7.62891C78.8851 7.36849 79.5459 7.23828 80.2686 7.23828C81.0173 7.23828 81.6781 7.36523 82.251 7.61914C82.8239 7.86654 83.3024 8.2181 83.6865 8.67383C84.0706 9.12956 84.3604 9.67643 84.5557 10.3145C84.751 10.946 84.8486 11.6458 84.8486 12.4141V13.498H76.5674V11.7207H82.3096V11.5254C82.2965 11.1152 82.2184 10.7409 82.0752 10.4023C81.932 10.0573 81.7106 9.78385 81.4111 9.58203C81.1117 9.3737 80.7243 9.26953 80.249 9.26953C79.8649 9.26953 79.5296 9.35417 79.2432 9.52344C78.9632 9.6862 78.7288 9.92057 78.54 10.2266C78.3577 10.526 78.221 10.8841 78.1299 11.3008C78.0387 11.7174 77.9932 12.1797 77.9932 12.6875V13.0781C77.9932 13.5208 78.0518 13.931 78.1689 14.3086C78.2926 14.6862 78.4717 15.015 78.7061 15.2949C78.9469 15.5684 79.2334 15.7832 79.5654 15.9395C79.904 16.0892 80.2881 16.1641 80.7178 16.1641C81.2581 16.1641 81.7464 16.0599 82.1826 15.8516C82.6253 15.6367 83.0094 15.321 83.335 14.9043L84.6338 16.252C84.4124 16.5775 84.113 16.89 83.7354 17.1895C83.3643 17.4889 82.915 17.7331 82.3877 17.9219C81.8604 18.1042 81.2516 18.1953 80.5615 18.1953ZM92.915 15.7539V3H95.5127V18H93.1689L92.915 15.7539ZM86.1279 12.8438V12.6387C86.1279 11.8314 86.2191 11.099 86.4014 10.4414C86.5902 9.77734 86.8636 9.20768 87.2217 8.73242C87.5798 8.25716 88.0127 7.88932 88.5205 7.62891C89.0348 7.36849 89.6175 7.23828 90.2686 7.23828C90.9001 7.23828 91.4502 7.36523 91.9189 7.61914C92.3942 7.87305 92.7979 8.23438 93.1299 8.70312C93.4684 9.17188 93.7386 9.72852 93.9404 10.373C94.1423 11.0111 94.2887 11.7142 94.3799 12.4824V13.0391C94.2887 13.7878 94.1423 14.4746 93.9404 15.0996C93.7386 15.7246 93.4684 16.2715 93.1299 16.7402C92.7979 17.2025 92.3942 17.5605 91.9189 17.8145C91.4437 18.0684 90.887 18.1953 90.249 18.1953C89.6045 18.1953 89.0251 18.0618 88.5107 17.7949C88.0029 17.528 87.57 17.1536 87.2119 16.6719C86.8604 16.1901 86.5902 15.6237 86.4014 14.9727C86.2191 14.3216 86.1279 13.612 86.1279 12.8438ZM88.7158 12.6387V12.8438C88.7158 13.2995 88.7549 13.7259 88.833 14.123C88.9111 14.5202 89.0381 14.8717 89.2139 15.1777C89.3896 15.4772 89.6143 15.7116 89.8877 15.8809C90.1676 16.0501 90.5062 16.1348 90.9033 16.1348C91.4111 16.1348 91.8278 16.0241 92.1533 15.8027C92.4854 15.5749 92.7425 15.2656 92.9248 14.875C93.1071 14.4779 93.2243 14.0319 93.2764 13.5371V12.0039C93.2503 11.6133 93.182 11.252 93.0713 10.9199C92.9671 10.5879 92.8174 10.3014 92.6221 10.0605C92.4333 9.81966 92.1989 9.63086 91.9189 9.49414C91.639 9.35742 91.307 9.28906 90.9229 9.28906C90.5257 9.28906 90.1872 9.37695 89.9072 9.55273C89.6273 9.72201 89.3994 9.95964 89.2236 10.2656C89.0479 10.5716 88.9176 10.9264 88.833 11.3301C88.7549 11.7337 88.7158 12.1699 88.7158 12.6387ZM108.638 3.78125V18H105.962V3.78125H108.638ZM113.052 3.78125V5.90039H101.597V3.78125H113.052ZM112.661 12.8242V12.6191C112.661 11.8444 112.772 11.1315 112.993 10.4805C113.215 9.82292 113.537 9.25326 113.96 8.77148C114.383 8.28971 114.901 7.91536 115.513 7.64844C116.125 7.375 116.821 7.23828 117.603 7.23828C118.397 7.23828 119.1 7.375 119.712 7.64844C120.33 7.91536 120.851 8.28971 121.274 8.77148C121.698 9.25326 122.02 9.82292 122.241 10.4805C122.463 11.1315 122.573 11.8444 122.573 12.6191V12.8242C122.573 13.5924 122.463 14.3053 122.241 14.9629C122.02 15.6139 121.698 16.1836 121.274 16.6719C120.851 17.1536 120.334 17.528 119.722 17.7949C119.11 18.0618 118.41 18.1953 117.622 18.1953C116.841 18.1953 116.141 18.0618 115.522 17.7949C114.904 17.528 114.383 17.1536 113.96 16.6719C113.537 16.1836 113.215 15.6139 112.993 14.9629C112.772 14.3053 112.661 13.5924 112.661 12.8242ZM115.239 12.6191V12.8242C115.239 13.2865 115.285 13.7194 115.376 14.123C115.467 14.5267 115.607 14.8815 115.796 15.1875C115.985 15.4935 116.229 15.7344 116.528 15.9102C116.834 16.0794 117.199 16.1641 117.622 16.1641C118.039 16.1641 118.397 16.0794 118.696 15.9102C118.996 15.7344 119.24 15.4935 119.429 15.1875C119.624 14.8815 119.767 14.5267 119.858 14.123C119.95 13.7194 119.995 13.2865 119.995 12.8242V12.6191C119.995 12.1634 119.95 11.737 119.858 11.3398C119.767 10.9362 119.624 10.5814 119.429 10.2754C119.24 9.96289 118.993 9.71875 118.687 9.54297C118.387 9.36068 118.026 9.26953 117.603 9.26953C117.186 9.26953 116.828 9.36068 116.528 9.54297C116.229 9.71875 115.985 9.96289 115.796 10.2754C115.607 10.5814 115.467 10.9362 115.376 11.3398C115.285 11.737 115.239 12.1634 115.239 12.6191ZM127.017 9.60156V18H124.438V7.43359H126.87L127.017 9.60156ZM126.636 12.3359H125.845C125.845 11.6003 125.933 10.9232 126.108 10.3047C126.291 9.6862 126.558 9.14909 126.909 8.69336C127.261 8.23112 127.694 7.87305 128.208 7.61914C128.729 7.36523 129.331 7.23828 130.015 7.23828C130.49 7.23828 130.926 7.3099 131.323 7.45312C131.72 7.58984 132.062 7.80794 132.349 8.10742C132.642 8.40039 132.866 8.78451 133.022 9.25977C133.179 9.72852 133.257 10.2917 133.257 10.9492V18H130.679V11.2129C130.679 10.7181 130.607 10.3307 130.464 10.0508C130.327 9.77083 130.129 9.57552 129.868 9.46484C129.608 9.34766 129.295 9.28906 128.931 9.28906C128.527 9.28906 128.179 9.37044 127.886 9.5332C127.599 9.68945 127.362 9.90755 127.173 10.1875C126.991 10.4674 126.854 10.7897 126.763 11.1543C126.678 11.5189 126.636 11.9128 126.636 12.3359ZM133.062 11.8574L131.997 12.0527C132.004 11.3887 132.095 10.7669 132.271 10.1875C132.446 9.60156 132.703 9.09049 133.042 8.6543C133.387 8.21159 133.813 7.86654 134.321 7.61914C134.836 7.36523 135.428 7.23828 136.099 7.23828C136.619 7.23828 137.088 7.31315 137.505 7.46289C137.928 7.60612 138.289 7.83724 138.589 8.15625C138.888 8.46875 139.116 8.87565 139.272 9.37695C139.435 9.87826 139.517 10.4902 139.517 11.2129V18H136.919V11.2031C136.919 10.6888 136.847 10.2949 136.704 10.0215C136.567 9.74805 136.369 9.55924 136.108 9.45508C135.848 9.3444 135.542 9.28906 135.19 9.28906C134.832 9.28906 134.52 9.35742 134.253 9.49414C133.993 9.62435 133.771 9.80664 133.589 10.041C133.413 10.2754 133.28 10.5488 133.188 10.8613C133.104 11.1673 133.062 11.4993 133.062 11.8574ZM147.651 15.7539V10.8809C147.651 10.5228 147.59 10.2135 147.466 9.95312C147.342 9.69271 147.153 9.49089 146.899 9.34766C146.646 9.20443 146.323 9.13281 145.933 9.13281C145.588 9.13281 145.285 9.19141 145.024 9.30859C144.771 9.42578 144.575 9.5918 144.438 9.80664C144.302 10.015 144.233 10.2559 144.233 10.5293H141.646C141.646 10.0931 141.75 9.67969 141.958 9.28906C142.166 8.89193 142.463 8.54036 142.847 8.23438C143.237 7.92188 143.703 7.67773 144.243 7.50195C144.79 7.32617 145.402 7.23828 146.079 7.23828C146.88 7.23828 147.593 7.375 148.218 7.64844C148.849 7.91536 149.344 8.31901 149.702 8.85938C150.067 9.39974 150.249 10.0801 150.249 10.9004V15.5098C150.249 16.0371 150.282 16.4896 150.347 16.8672C150.418 17.2383 150.522 17.5605 150.659 17.834V18H148.032C147.909 17.7331 147.814 17.3945 147.749 16.9844C147.684 16.5677 147.651 16.1576 147.651 15.7539ZM148.013 11.5645L148.032 13.0977H146.401C145.998 13.0977 145.643 13.14 145.337 13.2246C145.031 13.3027 144.78 13.4199 144.585 13.5762C144.39 13.7259 144.243 13.9082 144.146 14.123C144.048 14.3314 143.999 14.569 143.999 14.8359C143.999 15.0964 144.058 15.3307 144.175 15.5391C144.299 15.7474 144.474 15.9134 144.702 16.0371C144.937 16.1543 145.21 16.2129 145.522 16.2129C145.978 16.2129 146.375 16.1217 146.714 15.9395C147.052 15.7507 147.316 15.5228 147.505 15.2559C147.694 14.9889 147.795 14.735 147.808 14.4941L148.55 15.6074C148.459 15.8743 148.322 16.1576 148.14 16.457C147.957 16.7565 147.723 17.0365 147.437 17.2969C147.15 17.5573 146.805 17.7721 146.401 17.9414C145.998 18.1107 145.529 18.1953 144.995 18.1953C144.312 18.1953 143.7 18.0586 143.159 17.7852C142.619 17.5117 142.192 17.1374 141.88 16.6621C141.567 16.1868 141.411 15.6465 141.411 15.041C141.411 14.4811 141.515 13.9863 141.724 13.5566C141.932 13.127 142.241 12.7656 142.651 12.4727C143.062 12.1732 143.569 11.9486 144.175 11.7988C144.787 11.6426 145.487 11.5645 146.274 11.5645H148.013ZM157.573 7.43359V9.28906H151.519V7.43359H157.573ZM153.14 4.83594H155.728V14.9531C155.728 15.2656 155.77 15.5065 155.854 15.6758C155.939 15.8451 156.066 15.959 156.235 16.0176C156.405 16.0762 156.606 16.1055 156.841 16.1055C157.01 16.1055 157.166 16.0957 157.31 16.0762C157.453 16.0566 157.573 16.0371 157.671 16.0176L157.681 17.9512C157.466 18.0228 157.222 18.0814 156.948 18.127C156.681 18.1725 156.379 18.1953 156.04 18.1953C155.461 18.1953 154.953 18.0977 154.517 17.9023C154.08 17.7005 153.742 17.3783 153.501 16.9355C153.26 16.4863 153.14 15.8939 153.14 15.1582V4.83594ZM158.579 12.8242V12.6191C158.579 11.8444 158.69 11.1315 158.911 10.4805C159.132 9.82292 159.455 9.25326 159.878 8.77148C160.301 8.28971 160.819 7.91536 161.431 7.64844C162.043 7.375 162.739 7.23828 163.521 7.23828C164.315 7.23828 165.018 7.375 165.63 7.64844C166.248 7.91536 166.769 8.28971 167.192 8.77148C167.616 9.25326 167.938 9.82292 168.159 10.4805C168.381 11.1315 168.491 11.8444 168.491 12.6191V12.8242C168.491 13.5924 168.381 14.3053 168.159 14.9629C167.938 15.6139 167.616 16.1836 167.192 16.6719C166.769 17.1536 166.252 17.528 165.64 17.7949C165.028 18.0618 164.328 18.1953 163.54 18.1953C162.759 18.1953 162.059 18.0618 161.44 17.7949C160.822 17.528 160.301 17.1536 159.878 16.6719C159.455 16.1836 159.132 15.6139 158.911 14.9629C158.69 14.3053 158.579 13.5924 158.579 12.8242ZM161.157 12.6191V12.8242C161.157 13.2865 161.203 13.7194 161.294 14.123C161.385 14.5267 161.525 14.8815 161.714 15.1875C161.903 15.4935 162.147 15.7344 162.446 15.9102C162.752 16.0794 163.117 16.1641 163.54 16.1641C163.957 16.1641 164.315 16.0794 164.614 15.9102C164.914 15.7344 165.158 15.4935 165.347 15.1875C165.542 14.8815 165.685 14.5267 165.776 14.123C165.868 13.7194 165.913 13.2865 165.913 12.8242V12.6191C165.913 12.1634 165.868 11.737 165.776 11.3398C165.685 10.9362 165.542 10.5814 165.347 10.2754C165.158 9.96289 164.91 9.71875 164.604 9.54297C164.305 9.36068 163.944 9.26953 163.521 9.26953C163.104 9.26953 162.746 9.36068 162.446 9.54297C162.147 9.71875 161.903 9.96289 161.714 10.2754C161.525 10.5814 161.385 10.9362 161.294 11.3398C161.203 11.737 161.157 12.1634 161.157 12.6191Z" fill="#274C5B"/>
<path d="M0.270508 36L275.259 36" stroke="#DEDDDD"/>
<path d="M62.0049 62.0459V60.2793C61.2256 60.2617 60.5283 60.1885 59.9131 60.0596C59.3037 59.9248 58.7471 59.7461 58.2432 59.5234V57.2031C58.7412 57.4434 59.3359 57.6631 60.0273 57.8623C60.7188 58.0557 61.3779 58.1729 62.0049 58.2139V55.4893C61.0791 55.126 60.3379 54.7744 59.7812 54.4346C59.2305 54.0889 58.832 53.708 58.5859 53.292C58.3457 52.8701 58.2256 52.3662 58.2256 51.7803C58.2256 51.1826 58.3838 50.667 58.7002 50.2334C59.0225 49.7939 59.4678 49.4424 60.0361 49.1787C60.6045 48.915 61.2607 48.751 62.0049 48.6865V47.3418H63.209V48.6514C63.8887 48.6748 64.5215 48.7539 65.1074 48.8887C65.6992 49.0176 66.2793 49.208 66.8477 49.46L66.0215 51.5166C65.541 51.3174 65.0576 51.1621 64.5713 51.0508C64.0908 50.9395 63.6367 50.8662 63.209 50.8311V53.4238C63.8594 53.6641 64.4775 53.9248 65.0635 54.2061C65.6494 54.4873 66.127 54.8447 66.4961 55.2783C66.8652 55.7119 67.0498 56.2803 67.0498 56.9834C67.0498 57.8564 66.7305 58.5889 66.0918 59.1807C65.459 59.7725 64.498 60.127 63.209 60.2441V62.0459H62.0049ZM63.209 58.1523C63.6191 58.082 63.9209 57.9619 64.1143 57.792C64.3076 57.6162 64.4043 57.3906 64.4043 57.1152C64.4043 56.9512 64.3604 56.8047 64.2725 56.6758C64.1846 56.5469 64.0498 56.4268 63.8682 56.3154C63.6924 56.1982 63.4727 56.0811 63.209 55.9639V58.1523ZM62.0049 52.9316V50.8662C61.7646 50.9014 61.5596 50.96 61.3896 51.042C61.2197 51.1182 61.0908 51.2178 61.0029 51.3408C60.915 51.4639 60.8711 51.6104 60.8711 51.7803C60.8711 51.9502 60.9092 52.0996 60.9854 52.2285C61.0674 52.3574 61.1904 52.4775 61.3545 52.5889C61.5244 52.7002 61.7412 52.8145 62.0049 52.9316ZM75.1885 61H72.4727V53.5645C72.4727 53.3594 72.4756 53.1074 72.4814 52.8086C72.4873 52.5039 72.4961 52.1934 72.5078 51.877C72.5195 51.5547 72.5312 51.2646 72.543 51.0068C72.4785 51.083 72.3467 51.2148 72.1475 51.4023C71.9541 51.584 71.7725 51.748 71.6025 51.8945L70.126 53.0811L68.8164 51.4463L72.9561 48.1504H75.1885V61ZM80.0488 61L84.874 50.4355H78.5371V48.1504H87.7568V49.8555L82.8965 61H80.0488ZM89.3828 59.7432C89.3828 59.1924 89.5322 58.8057 89.8311 58.583C90.1357 58.3604 90.502 58.249 90.9297 58.249C91.3457 58.249 91.7031 58.3604 92.002 58.583C92.3066 58.8057 92.459 59.1924 92.459 59.7432C92.459 60.2705 92.3066 60.6514 92.002 60.8857C91.7031 61.1201 91.3457 61.2373 90.9297 61.2373C90.502 61.2373 90.1357 61.1201 89.8311 60.8857C89.5322 60.6514 89.3828 60.2705 89.3828 59.7432ZM103.12 54.5752C103.12 55.6123 103.038 56.5381 102.874 57.3525C102.716 58.167 102.458 58.8584 102.101 59.4268C101.749 59.9951 101.286 60.4287 100.712 60.7275C100.138 61.0264 99.4404 61.1758 98.6201 61.1758C97.5889 61.1758 96.7422 60.915 96.0801 60.3936C95.418 59.8662 94.9287 59.1104 94.6123 58.126C94.2959 57.1357 94.1377 55.9521 94.1377 54.5752C94.1377 53.1865 94.2812 52 94.5684 51.0156C94.8613 50.0254 95.3359 49.2666 95.9922 48.7393C96.6484 48.2119 97.5244 47.9482 98.6201 47.9482C99.6455 47.9482 100.489 48.2119 101.151 48.7393C101.819 49.2607 102.314 50.0166 102.637 51.0068C102.959 51.9912 103.12 53.1807 103.12 54.5752ZM96.8359 54.5752C96.8359 55.5537 96.8887 56.3711 96.9941 57.0273C97.1055 57.6777 97.29 58.167 97.5479 58.4951C97.8057 58.8232 98.1631 58.9873 98.6201 58.9873C99.0713 58.9873 99.4258 58.8262 99.6836 58.5039C99.9473 58.1758 100.135 57.6865 100.246 57.0361C100.357 56.3799 100.413 55.5596 100.413 54.5752C100.413 53.5967 100.357 52.7793 100.246 52.123C100.135 51.4668 99.9473 50.9746 99.6836 50.6465C99.4258 50.3125 99.0713 50.1455 98.6201 50.1455C98.1631 50.1455 97.8057 50.3125 97.5479 50.6465C97.29 50.9746 97.1055 51.4668 96.9941 52.123C96.8887 52.7793 96.8359 53.5967 96.8359 54.5752ZM113.421 54.5752C113.421 55.6123 113.339 56.5381 113.175 57.3525C113.017 58.167 112.759 58.8584 112.401 59.4268C112.05 59.9951 111.587 60.4287 111.013 60.7275C110.438 61.0264 109.741 61.1758 108.921 61.1758C107.89 61.1758 107.043 60.915 106.381 60.3936C105.719 59.8662 105.229 59.1104 104.913 58.126C104.597 57.1357 104.438 55.9521 104.438 54.5752C104.438 53.1865 104.582 52 104.869 51.0156C105.162 50.0254 105.637 49.2666 106.293 48.7393C106.949 48.2119 107.825 47.9482 108.921 47.9482C109.946 47.9482 110.79 48.2119 111.452 48.7393C112.12 49.2607 112.615 50.0166 112.938 51.0068C113.26 51.9912 113.421 53.1807 113.421 54.5752ZM107.137 54.5752C107.137 55.5537 107.189 56.3711 107.295 57.0273C107.406 57.6777 107.591 58.167 107.849 58.4951C108.106 58.8232 108.464 58.9873 108.921 58.9873C109.372 58.9873 109.727 58.8262 109.984 58.5039C110.248 58.1758 110.436 57.6865 110.547 57.0361C110.658 56.3799 110.714 55.5596 110.714 54.5752C110.714 53.5967 110.658 52.7793 110.547 52.123C110.436 51.4668 110.248 50.9746 109.984 50.6465C109.727 50.3125 109.372 50.1455 108.921 50.1455C108.464 50.1455 108.106 50.3125 107.849 50.6465C107.591 50.9746 107.406 51.4668 107.295 52.123C107.189 52.7793 107.137 53.5967 107.137 54.5752Z" fill="#274C5B"/>
<path d="M5.54639 61.8716V60.3628C4.94092 60.353 4.38184 60.2993 3.86914 60.2017C3.36133 60.0991 2.92188 59.9673 2.55078 59.8062V58.2461C2.92676 58.4219 3.39062 58.5806 3.94238 58.7222C4.49414 58.8638 5.02881 58.9443 5.54639 58.9639V56.2173C4.83838 55.978 4.26221 55.729 3.81787 55.4702C3.37842 55.2114 3.05615 54.9111 2.85107 54.5693C2.646 54.2227 2.54346 53.8076 2.54346 53.3242C2.54346 52.8262 2.66797 52.3989 2.91699 52.0425C3.1709 51.6812 3.52246 51.3955 3.97168 51.1855C4.42578 50.9756 4.95068 50.8511 5.54639 50.812V49.6182H6.49854V50.79C7.04053 50.8047 7.54102 50.8657 8 50.9731C8.46387 51.0757 8.90576 51.2197 9.32568 51.4053L8.79102 52.7676C8.4248 52.6211 8.04395 52.5015 7.64844 52.4087C7.25293 52.3159 6.86963 52.2524 6.49854 52.2183V54.8989C7.09424 55.0942 7.62402 55.3042 8.08789 55.5288C8.55664 55.7534 8.92285 56.0366 9.18652 56.3784C9.45508 56.7153 9.58936 57.1572 9.58936 57.7041C9.58936 58.4219 9.32568 59.0151 8.79834 59.4839C8.271 59.9478 7.50439 60.2261 6.49854 60.3188V61.8716H5.54639ZM6.49854 58.9053C6.96729 58.8467 7.31641 58.7246 7.5459 58.5391C7.77539 58.3486 7.89014 58.1021 7.89014 57.7993C7.89014 57.5942 7.84131 57.4209 7.74365 57.2793C7.65088 57.1377 7.50195 57.0107 7.29688 56.8984C7.09668 56.7861 6.83057 56.6763 6.49854 56.5688V58.9053ZM5.54639 54.54V52.2476C5.26318 52.2769 5.02393 52.3354 4.82861 52.4233C4.6333 52.5112 4.48682 52.626 4.38916 52.7676C4.2915 52.9092 4.24268 53.0776 4.24268 53.2729C4.24268 53.4878 4.28662 53.6709 4.37451 53.8223C4.4624 53.9736 4.60156 54.1055 4.79199 54.2178C4.9873 54.3301 5.23877 54.4375 5.54639 54.54ZM18.2612 61H11.0103V59.7036L13.7861 56.8911C14.3232 56.3442 14.7651 55.873 15.1118 55.4775C15.4585 55.0771 15.7148 54.6987 15.8809 54.3423C16.0518 53.9858 16.1372 53.5977 16.1372 53.1777C16.1372 52.6602 15.9883 52.2695 15.6904 52.0059C15.3926 51.7373 14.9995 51.603 14.5112 51.603C14.0474 51.603 13.6177 51.6958 13.2222 51.8813C12.8315 52.062 12.4263 52.3208 12.0063 52.6577L11.0615 51.5225C11.3594 51.2686 11.6768 51.0366 12.0137 50.8267C12.3555 50.6167 12.7363 50.4507 13.1562 50.3286C13.5762 50.2017 14.0547 50.1382 14.5918 50.1382C15.2705 50.1382 15.8564 50.2603 16.3496 50.5044C16.8428 50.7437 17.2212 51.0781 17.4849 51.5078C17.7534 51.9375 17.8877 52.438 17.8877 53.0093C17.8877 53.5854 17.7729 54.1177 17.5435 54.606C17.314 55.0942 16.9868 55.5776 16.562 56.0562C16.1372 56.5298 15.6318 57.0449 15.0459 57.6016L13.1929 59.4106V59.4912H18.2612V61ZM26.8452 55.6387C26.8452 56.5029 26.7769 57.2769 26.6401 57.9604C26.5083 58.6392 26.2983 59.2153 26.0103 59.689C25.7222 60.1626 25.3462 60.5239 24.8823 60.7729C24.4185 61.022 23.8569 61.1465 23.1978 61.1465C22.3726 61.1465 21.6914 60.9292 21.1543 60.4946C20.6172 60.0552 20.2192 59.4253 19.9604 58.605C19.7017 57.7798 19.5723 56.791 19.5723 55.6387C19.5723 54.4863 19.6895 53.5 19.9238 52.6797C20.1631 51.8545 20.5488 51.2222 21.0811 50.7827C21.6133 50.3433 22.3188 50.1235 23.1978 50.1235C24.0278 50.1235 24.7114 50.3433 25.2485 50.7827C25.7905 51.2173 26.1909 51.8472 26.4497 52.6724C26.7134 53.4927 26.8452 54.4814 26.8452 55.6387ZM21.3081 55.6387C21.3081 56.542 21.3667 57.2964 21.4839 57.9019C21.606 58.5073 21.8062 58.9614 22.0845 59.2642C22.3628 59.562 22.7339 59.7109 23.1978 59.7109C23.6616 59.7109 24.0327 59.562 24.311 59.2642C24.5894 58.9663 24.7896 58.5146 24.9116 57.9092C25.0386 57.3037 25.1021 56.5469 25.1021 55.6387C25.1021 54.7402 25.041 53.9883 24.9189 53.3828C24.7969 52.7773 24.5967 52.3232 24.3184 52.0205C24.04 51.7129 23.6665 51.5591 23.1978 51.5591C22.729 51.5591 22.3555 51.7129 22.0771 52.0205C21.8037 52.3232 21.606 52.7773 21.4839 53.3828C21.3667 53.9883 21.3081 54.7402 21.3081 55.6387ZM28.4858 60.0918C28.4858 59.6914 28.5884 59.4106 28.7935 59.2495C29.0034 59.0835 29.2573 59.0005 29.5552 59.0005C29.853 59.0005 30.1069 59.0835 30.3169 59.2495C30.5317 59.4106 30.6392 59.6914 30.6392 60.0918C30.6392 60.4824 30.5317 60.7656 30.3169 60.9414C30.1069 61.1123 29.853 61.1978 29.5552 61.1978C29.2573 61.1978 29.0034 61.1123 28.7935 60.9414C28.5884 60.7656 28.4858 60.4824 28.4858 60.0918ZM39.5454 55.6387C39.5454 56.5029 39.4771 57.2769 39.3403 57.9604C39.2085 58.6392 38.9985 59.2153 38.7104 59.689C38.4224 60.1626 38.0464 60.5239 37.5825 60.7729C37.1187 61.022 36.5571 61.1465 35.8979 61.1465C35.0728 61.1465 34.3916 60.9292 33.8545 60.4946C33.3174 60.0552 32.9194 59.4253 32.6606 58.605C32.4019 57.7798 32.2725 56.791 32.2725 55.6387C32.2725 54.4863 32.3896 53.5 32.624 52.6797C32.8633 51.8545 33.249 51.2222 33.7812 50.7827C34.3135 50.3433 35.019 50.1235 35.8979 50.1235C36.728 50.1235 37.4116 50.3433 37.9487 50.7827C38.4907 51.2173 38.8911 51.8472 39.1499 52.6724C39.4136 53.4927 39.5454 54.4814 39.5454 55.6387ZM34.0083 55.6387C34.0083 56.542 34.0669 57.2964 34.1841 57.9019C34.3062 58.5073 34.5063 58.9614 34.7847 59.2642C35.063 59.562 35.4341 59.7109 35.8979 59.7109C36.3618 59.7109 36.7329 59.562 37.0112 59.2642C37.2896 58.9663 37.4897 58.5146 37.6118 57.9092C37.7388 57.3037 37.8022 56.5469 37.8022 55.6387C37.8022 54.7402 37.7412 53.9883 37.6191 53.3828C37.4971 52.7773 37.2969 52.3232 37.0186 52.0205C36.7402 51.7129 36.3667 51.5591 35.8979 51.5591C35.4292 51.5591 35.0557 51.7129 34.7773 52.0205C34.5039 52.3232 34.3062 52.7773 34.1841 53.3828C34.0669 53.9883 34.0083 54.7402 34.0083 55.6387ZM48.1294 55.6387C48.1294 56.5029 48.061 57.2769 47.9243 57.9604C47.7925 58.6392 47.5825 59.2153 47.2944 59.689C47.0063 60.1626 46.6304 60.5239 46.1665 60.7729C45.7026 61.022 45.1411 61.1465 44.4819 61.1465C43.6567 61.1465 42.9756 60.9292 42.4385 60.4946C41.9014 60.0552 41.5034 59.4253 41.2446 58.605C40.9858 57.7798 40.8564 56.791 40.8564 55.6387C40.8564 54.4863 40.9736 53.5 41.208 52.6797C41.4473 51.8545 41.833 51.2222 42.3652 50.7827C42.8975 50.3433 43.603 50.1235 44.4819 50.1235C45.312 50.1235 45.9956 50.3433 46.5327 50.7827C47.0747 51.2173 47.4751 51.8472 47.7339 52.6724C47.9976 53.4927 48.1294 54.4814 48.1294 55.6387ZM42.5923 55.6387C42.5923 56.542 42.6509 57.2964 42.7681 57.9019C42.8901 58.5073 43.0903 58.9614 43.3687 59.2642C43.647 59.562 44.0181 59.7109 44.4819 59.7109C44.9458 59.7109 45.3169 59.562 45.5952 59.2642C45.8735 58.9663 46.0737 58.5146 46.1958 57.9092C46.3228 57.3037 46.3862 56.5469 46.3862 55.6387C46.3862 54.7402 46.3252 53.9883 46.2031 53.3828C46.0811 52.7773 45.8809 52.3232 45.6025 52.0205C45.3242 51.7129 44.9507 51.5591 44.4819 51.5591C44.0132 51.5591 43.6396 51.7129 43.3613 52.0205C43.0879 52.3232 42.8901 52.7773 42.7681 53.3828C42.6509 53.9883 42.5923 54.7402 42.5923 55.6387Z" fill="#B8B8B8"/>
<rect x="0.270508" y="55" width="50" height="1" fill="#B8B8B8"/>
<path d="M203.949 48.0937C204.256 47.19 205.534 47.19 205.842 48.0937L206.825 50.9831C206.963 51.3884 207.344 51.6609 207.772 51.6609H210.852C211.832 51.6609 212.227 52.9242 211.422 53.4826L209.011 55.1546C208.645 55.409 208.491 55.8758 208.635 56.2985L209.574 59.0586C209.885 59.9718 208.85 60.7523 208.058 60.2025L205.465 58.4046C205.122 58.1668 204.668 58.1668 204.325 58.4046L201.733 60.2025C200.94 60.7523 199.905 59.9718 200.216 59.0586L201.156 56.2985C201.3 55.8758 201.146 55.409 200.779 55.1546L198.368 53.4826C197.563 52.9242 197.958 51.6609 198.938 51.6609H202.018C202.446 51.6609 202.827 51.3884 202.965 50.9831L203.949 48.0937Z" fill="#FFA858"/>
<path d="M220.131 48.2396C220.431 47.3183 221.734 47.3183 222.033 48.2396L222.92 50.9699C223.054 51.3819 223.438 51.6609 223.871 51.6609H226.742C227.711 51.6609 228.114 52.9005 227.33 53.4699L225.007 55.1574C224.657 55.412 224.51 55.8634 224.644 56.2754L225.531 59.0058C225.831 59.9271 224.776 60.6932 223.992 60.1238L221.67 58.4364C221.32 58.1817 220.845 58.1817 220.494 58.4364L218.172 60.1238C217.388 60.6932 216.334 59.9271 216.633 59.0058L217.52 56.2754C217.654 55.8634 217.508 55.412 217.157 55.1574L214.834 53.4699C214.051 52.9005 214.454 51.6609 215.422 51.6609H218.293C218.726 51.6609 219.11 51.3819 219.244 50.9699L220.131 48.2396Z" fill="#FFA858"/>
<path d="M236.323 48.0937C236.63 47.19 237.908 47.19 238.216 48.0937L239.199 50.9831C239.337 51.3884 239.718 51.6609 240.146 51.6609H243.226C244.206 51.6609 244.601 52.9242 243.796 53.4826L241.385 55.1546C241.019 55.409 240.865 55.8758 241.009 56.2985L241.948 59.0586C242.259 59.9718 241.224 60.7523 240.432 60.2025L237.839 58.4046C237.496 58.1668 237.042 58.1668 236.699 58.4046L234.107 60.2025C233.314 60.7523 232.279 59.9718 232.59 59.0586L233.53 56.2985C233.674 55.8758 233.52 55.409 233.153 55.1546L230.742 53.4826C229.937 52.9242 230.332 51.6609 231.312 51.6609H234.392C234.821 51.6609 235.201 51.3884 235.339 50.9831L236.323 48.0937Z" fill="#FFA858"/>
<path d="M252.505 48.2396C252.805 47.3183 254.108 47.3183 254.407 48.2396L255.294 50.9699C255.428 51.3819 255.812 51.6609 256.245 51.6609H259.116C260.085 51.6609 260.488 52.9005 259.704 53.4699L257.382 55.1574C257.031 55.412 256.884 55.8634 257.018 56.2754L257.905 59.0058C258.205 59.9271 257.15 60.6932 256.367 60.1238L254.044 58.4364C253.694 58.1817 253.219 58.1817 252.868 58.4364L250.546 60.1238C249.762 60.6932 248.708 59.9271 249.007 59.0058L249.894 56.2754C250.028 55.8634 249.882 55.412 249.531 55.1574L247.209 53.4699C246.425 52.9005 246.828 51.6609 247.796 51.6609H250.667C251.1 51.6609 251.484 51.3819 251.618 50.9699L252.505 48.2396Z" fill="#FFA858"/>
<path d="M268.697 48.0937C269.004 47.19 270.282 47.19 270.59 48.0937L271.573 50.9831C271.711 51.3884 272.092 51.6609 272.52 51.6609H275.6C276.58 51.6609 276.975 52.9242 276.17 53.4826L273.759 55.1546C273.393 55.409 273.239 55.8758 273.383 56.2985L274.322 59.0586C274.633 59.9718 273.598 60.7523 272.806 60.2025L270.213 58.4046C269.87 58.1668 269.416 58.1668 269.073 58.4046L266.481 60.2025C265.688 60.7523 264.654 59.9718 264.964 59.0586L265.904 56.2985C266.048 55.8758 265.894 55.409 265.527 55.1546L263.116 53.4826C262.311 52.9242 262.706 51.6609 263.686 51.6609H266.766C267.195 51.6609 267.575 51.3884 267.713 50.9831L268.697 48.0937Z" fill="#FFA858"/>
</svg>
