<svg width="280" height="67" viewBox="0 0 280 67" fill="none" xmlns="http://www.w3.org/2000/svg">
<path d="M4.1333 3.78125V18H1.44775V3.78125H4.1333ZM9.86572 9.92383V12.043H3.43018V9.92383H9.86572ZM10.6177 3.78125V5.90039H3.43018V3.78125H10.6177ZM14.5728 9.5918V18H11.9946V7.43359H14.436L14.5728 9.5918ZM17.7856 7.36523L17.7466 9.76758C17.6034 9.74154 17.4406 9.72201 17.2583 9.70898C17.0825 9.69596 16.9165 9.68945 16.7603 9.68945C16.3631 9.68945 16.0148 9.74479 15.7153 9.85547C15.4159 9.95964 15.1652 10.1126 14.9634 10.3145C14.7681 10.5163 14.6183 10.7637 14.5142 11.0566C14.41 11.3431 14.3514 11.6686 14.3384 12.0332L13.7817 11.9648C13.7817 11.2943 13.8501 10.6725 13.9868 10.0996C14.1235 9.52669 14.3221 9.02539 14.5825 8.5957C14.8429 8.16602 15.1685 7.83398 15.5591 7.59961C15.9562 7.35872 16.4119 7.23828 16.9263 7.23828C17.0695 7.23828 17.2225 7.2513 17.3853 7.27734C17.5545 7.29688 17.688 7.32617 17.7856 7.36523ZM23.7524 18.1953C22.9517 18.1953 22.2323 18.0651 21.5942 17.8047C20.9562 17.5443 20.4126 17.1829 19.9634 16.7207C19.5207 16.252 19.1789 15.7083 18.938 15.0898C18.7036 14.4648 18.5864 13.7943 18.5864 13.0781V12.6875C18.5864 11.8737 18.7036 11.1348 18.938 10.4707C19.1724 9.80013 19.5044 9.22396 19.9341 8.74219C20.3638 8.26042 20.8781 7.88932 21.4771 7.62891C22.076 7.36849 22.7368 7.23828 23.4595 7.23828C24.2082 7.23828 24.869 7.36523 25.4419 7.61914C26.0148 7.86654 26.4933 8.2181 26.8774 8.67383C27.2616 9.12956 27.5513 9.67643 27.7466 10.3145C27.9419 10.946 28.0396 11.6458 28.0396 12.4141V13.498H19.7583V11.7207H25.5005V11.5254C25.4875 11.1152 25.4093 10.7409 25.2661 10.4023C25.1229 10.0573 24.9015 9.78385 24.6021 9.58203C24.3026 9.3737 23.9152 9.26953 23.4399 9.26953C23.0558 9.26953 22.7205 9.35417 22.4341 9.52344C22.1541 9.6862 21.9198 9.92057 21.731 10.2266C21.5487 10.526 21.4119 10.8841 21.3208 11.3008C21.2297 11.7174 21.1841 12.1797 21.1841 12.6875V13.0781C21.1841 13.5208 21.2427 13.931 21.3599 14.3086C21.4836 14.6862 21.6626 15.015 21.897 15.2949C22.1379 15.5684 22.4243 15.7832 22.7563 15.9395C23.0949 16.0892 23.479 16.1641 23.9087 16.1641C24.4491 16.1641 24.9373 16.0599 25.3735 15.8516C25.8162 15.6367 26.2004 15.321 26.5259 14.9043L27.8247 16.252C27.6034 16.5775 27.3039 16.89 26.9263 17.1895C26.5552 17.4889 26.106 17.7331 25.5786 17.9219C25.0513 18.1042 24.4425 18.1953 23.7524 18.1953ZM35.5786 15.1094C35.5786 14.888 35.52 14.6895 35.4028 14.5137C35.2856 14.3379 35.0643 14.1784 34.7388 14.0352C34.4198 13.8854 33.951 13.7454 33.3325 13.6152C32.7856 13.498 32.2811 13.3516 31.8188 13.1758C31.3566 13 30.9595 12.7884 30.6274 12.541C30.2954 12.2871 30.035 11.9909 29.8462 11.6523C29.6639 11.3073 29.5728 10.9102 29.5728 10.4609C29.5728 10.0247 29.6672 9.61458 29.856 9.23047C30.0448 8.83984 30.3182 8.49805 30.6763 8.20508C31.0343 7.9056 31.4705 7.67122 31.9849 7.50195C32.4992 7.32617 33.0786 7.23828 33.7231 7.23828C34.6216 7.23828 35.3931 7.38477 36.0376 7.67773C36.6886 7.9707 37.1867 8.37435 37.5317 8.88867C37.8768 9.39648 38.0493 9.9694 38.0493 10.6074H35.4712C35.4712 10.3275 35.4061 10.0736 35.2759 9.8457C35.1522 9.61784 34.9601 9.43555 34.6997 9.29883C34.4393 9.1556 34.1105 9.08398 33.7134 9.08398C33.3553 9.08398 33.0526 9.14258 32.8052 9.25977C32.5643 9.37695 32.382 9.52995 32.2583 9.71875C32.1346 9.90755 32.0728 10.1159 32.0728 10.3438C32.0728 10.513 32.1053 10.666 32.1704 10.8027C32.242 10.9329 32.356 11.0534 32.5122 11.1641C32.6685 11.2747 32.88 11.3757 33.147 11.4668C33.4204 11.5579 33.7557 11.6458 34.1528 11.7305C34.9406 11.8867 35.6274 12.0951 36.2134 12.3555C36.8058 12.6094 37.2681 12.9479 37.6001 13.3711C37.9321 13.7943 38.0981 14.3346 38.0981 14.9922C38.0981 15.4609 37.9972 15.8906 37.7954 16.2812C37.5936 16.6654 37.3006 17.0007 36.9165 17.2871C36.5324 17.5736 36.0734 17.7982 35.5396 17.9609C35.0057 18.1172 34.4035 18.1953 33.7329 18.1953C32.7629 18.1953 31.9425 18.0228 31.272 17.6777C30.6014 17.3262 30.0936 16.8835 29.7485 16.3496C29.4035 15.8092 29.231 15.2493 29.231 14.6699H31.7017C31.7212 15.0801 31.8319 15.4089 32.0337 15.6562C32.2355 15.9036 32.4894 16.0827 32.7954 16.1934C33.1079 16.2975 33.4367 16.3496 33.7817 16.3496C34.1724 16.3496 34.5011 16.2975 34.7681 16.1934C35.035 16.0827 35.2368 15.9362 35.3735 15.7539C35.5103 15.5651 35.5786 15.3503 35.5786 15.1094ZM42.5903 3V18H40.0024V3H42.5903ZM42.1802 12.3359H41.4185C41.4185 11.6003 41.5161 10.9232 41.7114 10.3047C41.9067 9.6862 42.1834 9.14909 42.5415 8.69336C42.8996 8.23112 43.326 7.87305 43.8208 7.61914C44.3221 7.36523 44.8755 7.23828 45.481 7.23828C46.0018 7.23828 46.4738 7.31315 46.897 7.46289C47.3267 7.60612 47.6945 7.83724 48.0005 8.15625C48.3065 8.47526 48.5409 8.89193 48.7036 9.40625C48.8729 9.91406 48.9575 10.5326 48.9575 11.2617V18H46.3599V11.2422C46.3599 10.7539 46.2882 10.3698 46.145 10.0898C46.0018 9.80339 45.7967 9.59831 45.5298 9.47461C45.2694 9.35091 44.9471 9.28906 44.563 9.28906C44.1463 9.28906 43.7882 9.37044 43.4888 9.5332C43.1893 9.68945 42.9419 9.90755 42.7466 10.1875C42.5578 10.4674 42.4146 10.7897 42.3169 11.1543C42.2257 11.5189 42.1802 11.9128 42.1802 12.3359ZM61.8579 11.6621H58.2251L58.2056 9.76758H61.3208C61.8547 9.76758 62.3006 9.69271 62.6587 9.54297C63.0168 9.39323 63.2869 9.17513 63.4692 8.88867C63.658 8.60221 63.7524 8.25391 63.7524 7.84375C63.7524 7.38802 63.6646 7.01693 63.4888 6.73047C63.3195 6.44401 63.0526 6.23568 62.688 6.10547C62.3234 5.96875 61.8612 5.90039 61.3013 5.90039H59.0942V18H56.4087V3.78125H61.3013C62.1086 3.78125 62.828 3.85938 63.4595 4.01562C64.0975 4.16536 64.6379 4.39974 65.0806 4.71875C65.5233 5.03776 65.8586 5.43815 66.0864 5.91992C66.3208 6.40169 66.438 6.97461 66.438 7.63867C66.438 8.22461 66.3013 8.76497 66.0278 9.25977C65.7609 9.74805 65.3475 10.1452 64.7876 10.4512C64.2342 10.7572 63.5311 10.9329 62.6782 10.9785L61.8579 11.6621ZM61.7407 18H57.4341L58.5571 15.8906H61.7407C62.2746 15.8906 62.714 15.8027 63.0591 15.627C63.4106 15.4512 63.6711 15.2103 63.8403 14.9043C64.0161 14.5918 64.104 14.2337 64.104 13.8301C64.104 13.3874 64.0259 13.0033 63.8696 12.6777C63.7199 12.3522 63.479 12.1016 63.147 11.9258C62.8215 11.75 62.3918 11.6621 61.8579 11.6621H59.0649L59.0845 9.76758H62.6392L63.2544 10.5C64.0747 10.5065 64.742 10.6693 65.2563 10.9883C65.7772 11.3073 66.1613 11.7174 66.4087 12.2188C66.6561 12.7201 66.7798 13.2604 66.7798 13.8398C66.7798 14.7513 66.5812 15.5163 66.1841 16.1348C65.7935 16.7533 65.2205 17.2188 64.4653 17.5312C63.7166 17.8438 62.8084 18 61.7407 18ZM74.729 15.7539V10.8809C74.729 10.5228 74.6672 10.2135 74.5435 9.95312C74.4198 9.69271 74.231 9.49089 73.9771 9.34766C73.7231 9.20443 73.4009 9.13281 73.0103 9.13281C72.6652 9.13281 72.3625 9.19141 72.1021 9.30859C71.8481 9.42578 71.6528 9.5918 71.5161 9.80664C71.3794 10.015 71.311 10.2559 71.311 10.5293H68.7231C68.7231 10.0931 68.8273 9.67969 69.0356 9.28906C69.244 8.89193 69.5402 8.54036 69.9243 8.23438C70.3149 7.92188 70.7804 7.67773 71.3208 7.50195C71.8677 7.32617 72.4797 7.23828 73.1567 7.23828C73.9575 7.23828 74.6704 7.375 75.2954 7.64844C75.9269 7.91536 76.4217 8.31901 76.7798 8.85938C77.1444 9.39974 77.3267 10.0801 77.3267 10.9004V15.5098C77.3267 16.0371 77.3592 16.4896 77.4243 16.8672C77.4959 17.2383 77.6001 17.5605 77.7368 17.834V18H75.1099C74.9862 17.7331 74.8918 17.3945 74.8267 16.9844C74.7616 16.5677 74.729 16.1576 74.729 15.7539ZM75.0903 11.5645L75.1099 13.0977H73.479C73.0754 13.0977 72.7205 13.14 72.4146 13.2246C72.1086 13.3027 71.8579 13.4199 71.6626 13.5762C71.4673 13.7259 71.3208 13.9082 71.2231 14.123C71.1255 14.3314 71.0767 14.569 71.0767 14.8359C71.0767 15.0964 71.1353 15.3307 71.2524 15.5391C71.3761 15.7474 71.5519 15.9134 71.7798 16.0371C72.0142 16.1543 72.2876 16.2129 72.6001 16.2129C73.0558 16.2129 73.453 16.1217 73.7915 15.9395C74.13 15.7507 74.3937 15.5228 74.5825 15.2559C74.7713 14.9889 74.8722 14.735 74.8853 14.4941L75.6274 15.6074C75.5363 15.8743 75.3996 16.1576 75.2173 16.457C75.035 16.7565 74.8006 17.0365 74.5142 17.2969C74.2277 17.5573 73.8826 17.7721 73.479 17.9414C73.0754 18.1107 72.6066 18.1953 72.0728 18.1953C71.3892 18.1953 70.7772 18.0586 70.2368 17.7852C69.6965 17.5117 69.27 17.1374 68.9575 16.6621C68.645 16.1868 68.4888 15.6465 68.4888 15.041C68.4888 14.4811 68.5929 13.9863 68.8013 13.5566C69.0096 13.127 69.3188 12.7656 69.729 12.4727C70.1392 12.1732 70.647 11.9486 71.2524 11.7988C71.8644 11.6426 72.5643 11.5645 73.3521 11.5645H75.0903ZM82.1802 9.68945V18H79.6021V7.43359H82.0239L82.1802 9.68945ZM81.77 12.3359H81.0083C81.0148 11.5677 81.119 10.8711 81.3208 10.2461C81.5226 9.62109 81.8058 9.08398 82.1704 8.63477C82.5415 8.18555 82.981 7.84049 83.4888 7.59961C83.9966 7.35872 84.563 7.23828 85.188 7.23828C85.6958 7.23828 86.1548 7.3099 86.5649 7.45312C86.9751 7.59635 87.3267 7.82422 87.6196 8.13672C87.9191 8.44922 88.147 8.85938 88.3032 9.36719C88.466 9.86849 88.5474 10.487 88.5474 11.2227V18H85.9497V11.2031C85.9497 10.7214 85.8781 10.3405 85.7349 10.0605C85.5981 9.7806 85.3963 9.58203 85.1294 9.46484C84.869 9.34766 84.5467 9.28906 84.1626 9.28906C83.7655 9.28906 83.4172 9.37044 83.1177 9.5332C82.8247 9.68945 82.5773 9.90755 82.3755 10.1875C82.1802 10.4674 82.0304 10.7897 81.9263 11.1543C81.8221 11.5189 81.77 11.9128 81.77 12.3359ZM96.6431 15.7539V10.8809C96.6431 10.5228 96.5812 10.2135 96.4575 9.95312C96.3338 9.69271 96.145 9.49089 95.8911 9.34766C95.6372 9.20443 95.3149 9.13281 94.9243 9.13281C94.5793 9.13281 94.2765 9.19141 94.0161 9.30859C93.7622 9.42578 93.5669 9.5918 93.4302 9.80664C93.2935 10.015 93.2251 10.2559 93.2251 10.5293H90.6372C90.6372 10.0931 90.7414 9.67969 90.9497 9.28906C91.158 8.89193 91.4543 8.54036 91.8384 8.23438C92.229 7.92188 92.6945 7.67773 93.2349 7.50195C93.7817 7.32617 94.3937 7.23828 95.0708 7.23828C95.8716 7.23828 96.5845 7.375 97.2095 7.64844C97.841 7.91536 98.3358 8.31901 98.6938 8.85938C99.0584 9.39974 99.2407 10.0801 99.2407 10.9004V15.5098C99.2407 16.0371 99.2733 16.4896 99.3384 16.8672C99.41 17.2383 99.5142 17.5605 99.6509 17.834V18H97.0239C96.9002 17.7331 96.8058 17.3945 96.7407 16.9844C96.6756 16.5677 96.6431 16.1576 96.6431 15.7539ZM97.0044 11.5645L97.0239 13.0977H95.3931C94.9894 13.0977 94.6346 13.14 94.3286 13.2246C94.0226 13.3027 93.772 13.4199 93.5767 13.5762C93.3813 13.7259 93.2349 13.9082 93.1372 14.123C93.0396 14.3314 92.9907 14.569 92.9907 14.8359C92.9907 15.0964 93.0493 15.3307 93.1665 15.5391C93.2902 15.7474 93.466 15.9134 93.6938 16.0371C93.9282 16.1543 94.2017 16.2129 94.5142 16.2129C94.9699 16.2129 95.367 16.1217 95.7056 15.9395C96.0441 15.7507 96.3078 15.5228 96.4966 15.2559C96.6854 14.9889 96.7863 14.735 96.7993 14.4941L97.5415 15.6074C97.4504 15.8743 97.3136 16.1576 97.1313 16.457C96.9491 16.7565 96.7147 17.0365 96.4282 17.2969C96.1418 17.5573 95.7967 17.7721 95.3931 17.9414C94.9894 18.1107 94.5207 18.1953 93.9868 18.1953C93.3032 18.1953 92.6912 18.0586 92.1509 17.7852C91.6105 17.5117 91.1841 17.1374 90.8716 16.6621C90.5591 16.1868 90.4028 15.6465 90.4028 15.041C90.4028 14.4811 90.507 13.9863 90.7153 13.5566C90.9237 13.127 91.2329 12.7656 91.6431 12.4727C92.0532 12.1732 92.561 11.9486 93.1665 11.7988C93.7785 11.6426 94.4784 11.5645 95.2661 11.5645H97.0044ZM104.094 9.68945V18H101.516V7.43359H103.938L104.094 9.68945ZM103.684 12.3359H102.922C102.929 11.5677 103.033 10.8711 103.235 10.2461C103.437 9.62109 103.72 9.08398 104.084 8.63477C104.456 8.18555 104.895 7.84049 105.403 7.59961C105.911 7.35872 106.477 7.23828 107.102 7.23828C107.61 7.23828 108.069 7.3099 108.479 7.45312C108.889 7.59635 109.241 7.82422 109.534 8.13672C109.833 8.44922 110.061 8.85938 110.217 9.36719C110.38 9.86849 110.461 10.487 110.461 11.2227V18H107.864V11.2031C107.864 10.7214 107.792 10.3405 107.649 10.0605C107.512 9.7806 107.31 9.58203 107.043 9.46484C106.783 9.34766 106.461 9.28906 106.077 9.28906C105.68 9.28906 105.331 9.37044 105.032 9.5332C104.739 9.68945 104.491 9.90755 104.29 10.1875C104.094 10.4674 103.944 10.7897 103.84 11.1543C103.736 11.5189 103.684 11.9128 103.684 12.3359ZM118.557 15.7539V10.8809C118.557 10.5228 118.495 10.2135 118.372 9.95312C118.248 9.69271 118.059 9.49089 117.805 9.34766C117.551 9.20443 117.229 9.13281 116.838 9.13281C116.493 9.13281 116.191 9.19141 115.93 9.30859C115.676 9.42578 115.481 9.5918 115.344 9.80664C115.208 10.015 115.139 10.2559 115.139 10.5293H112.551C112.551 10.0931 112.655 9.67969 112.864 9.28906C113.072 8.89193 113.368 8.54036 113.752 8.23438C114.143 7.92188 114.609 7.67773 115.149 7.50195C115.696 7.32617 116.308 7.23828 116.985 7.23828C117.786 7.23828 118.499 7.375 119.124 7.64844C119.755 7.91536 120.25 8.31901 120.608 8.85938C120.972 9.39974 121.155 10.0801 121.155 10.9004V15.5098C121.155 16.0371 121.187 16.4896 121.252 16.8672C121.324 17.2383 121.428 17.5605 121.565 17.834V18H118.938C118.814 17.7331 118.72 17.3945 118.655 16.9844C118.59 16.5677 118.557 16.1576 118.557 15.7539ZM118.918 11.5645L118.938 13.0977H117.307C116.903 13.0977 116.549 13.14 116.243 13.2246C115.937 13.3027 115.686 13.4199 115.491 13.5762C115.295 13.7259 115.149 13.9082 115.051 14.123C114.954 14.3314 114.905 14.569 114.905 14.8359C114.905 15.0964 114.963 15.3307 115.081 15.5391C115.204 15.7474 115.38 15.9134 115.608 16.0371C115.842 16.1543 116.116 16.2129 116.428 16.2129C116.884 16.2129 117.281 16.1217 117.62 15.9395C117.958 15.7507 118.222 15.5228 118.411 15.2559C118.599 14.9889 118.7 14.735 118.713 14.4941L119.456 15.6074C119.364 15.8743 119.228 16.1576 119.045 16.457C118.863 16.7565 118.629 17.0365 118.342 17.2969C118.056 17.5573 117.711 17.7721 117.307 17.9414C116.903 18.1107 116.435 18.1953 115.901 18.1953C115.217 18.1953 114.605 18.0586 114.065 17.7852C113.525 17.5117 113.098 17.1374 112.786 16.6621C112.473 16.1868 112.317 15.6465 112.317 15.041C112.317 14.4811 112.421 13.9863 112.629 13.5566C112.838 13.127 113.147 12.7656 113.557 12.4727C113.967 12.1732 114.475 11.9486 115.081 11.7988C115.693 11.6426 116.392 11.5645 117.18 11.5645H118.918ZM131.34 3.78125V18H128.655V3.78125H131.34ZM137.073 9.92383V12.043H130.637V9.92383H137.073ZM137.825 3.78125V5.90039H130.637V3.78125H137.825ZM141.78 9.5918V18H139.202V7.43359H141.643L141.78 9.5918ZM144.993 7.36523L144.954 9.76758C144.81 9.74154 144.648 9.72201 144.465 9.70898C144.29 9.69596 144.124 9.68945 143.967 9.68945C143.57 9.68945 143.222 9.74479 142.922 9.85547C142.623 9.95964 142.372 10.1126 142.17 10.3145C141.975 10.5163 141.825 10.7637 141.721 11.0566C141.617 11.3431 141.558 11.6686 141.545 12.0332L140.989 11.9648C140.989 11.2943 141.057 10.6725 141.194 10.0996C141.331 9.52669 141.529 9.02539 141.79 8.5957C142.05 8.16602 142.375 7.83398 142.766 7.59961C143.163 7.35872 143.619 7.23828 144.133 7.23828C144.277 7.23828 144.43 7.2513 144.592 7.27734C144.762 7.29688 144.895 7.32617 144.993 7.36523ZM152.698 15.4902V7.43359H155.295V18H152.854L152.698 15.4902ZM153.03 13.3027L153.831 13.2832C153.831 13.9928 153.752 14.6471 153.596 15.2461C153.44 15.8451 153.196 16.3659 152.864 16.8086C152.538 17.2448 152.125 17.5866 151.624 17.834C151.122 18.0749 150.53 18.1953 149.846 18.1953C149.325 18.1953 148.85 18.1237 148.42 17.9805C147.991 17.8307 147.62 17.5996 147.307 17.2871C147.001 16.9681 146.764 16.5612 146.594 16.0664C146.425 15.5651 146.34 14.9629 146.34 14.2598V7.43359H148.918V14.2793C148.918 14.6309 148.958 14.9238 149.036 15.1582C149.12 15.3926 149.234 15.5846 149.377 15.7344C149.527 15.8776 149.7 15.9818 149.895 16.0469C150.097 16.1055 150.312 16.1348 150.54 16.1348C151.165 16.1348 151.656 16.0111 152.014 15.7637C152.379 15.5098 152.639 15.1712 152.795 14.748C152.952 14.3184 153.03 13.8366 153.03 13.3027ZM160.315 7.43359V18H157.727V7.43359H160.315ZM157.551 4.66992C157.551 4.28581 157.681 3.9668 157.942 3.71289C158.209 3.45898 158.567 3.33203 159.016 3.33203C159.465 3.33203 159.82 3.45898 160.081 3.71289C160.347 3.9668 160.481 4.28581 160.481 4.66992C160.481 5.04753 160.347 5.36328 160.081 5.61719C159.82 5.87109 159.465 5.99805 159.016 5.99805C158.567 5.99805 158.209 5.87109 157.942 5.61719C157.681 5.36328 157.551 5.04753 157.551 4.66992ZM167.776 7.43359V9.28906H161.721V7.43359H167.776ZM163.342 4.83594H165.93V14.9531C165.93 15.2656 165.972 15.5065 166.057 15.6758C166.142 15.8451 166.269 15.959 166.438 16.0176C166.607 16.0762 166.809 16.1055 167.043 16.1055C167.213 16.1055 167.369 16.0957 167.512 16.0762C167.655 16.0566 167.776 16.0371 167.874 16.0176L167.883 17.9512C167.668 18.0228 167.424 18.0814 167.151 18.127C166.884 18.1725 166.581 18.1953 166.243 18.1953C165.663 18.1953 165.155 18.0977 164.719 17.9023C164.283 17.7005 163.944 17.3783 163.704 16.9355C163.463 16.4863 163.342 15.8939 163.342 15.1582V4.83594ZM174.241 18.1953C173.44 18.1953 172.721 18.0651 172.083 17.8047C171.444 17.5443 170.901 17.1829 170.452 16.7207C170.009 16.252 169.667 15.7083 169.426 15.0898C169.192 14.4648 169.075 13.7943 169.075 13.0781V12.6875C169.075 11.8737 169.192 11.1348 169.426 10.4707C169.661 9.80013 169.993 9.22396 170.422 8.74219C170.852 8.26042 171.366 7.88932 171.965 7.62891C172.564 7.36849 173.225 7.23828 173.948 7.23828C174.696 7.23828 175.357 7.36523 175.93 7.61914C176.503 7.86654 176.982 8.2181 177.366 8.67383C177.75 9.12956 178.04 9.67643 178.235 10.3145C178.43 10.946 178.528 11.6458 178.528 12.4141V13.498H170.247V11.7207H175.989V11.5254C175.976 11.1152 175.898 10.7409 175.754 10.4023C175.611 10.0573 175.39 9.78385 175.09 9.58203C174.791 9.3737 174.403 9.26953 173.928 9.26953C173.544 9.26953 173.209 9.35417 172.922 9.52344C172.642 9.6862 172.408 9.92057 172.219 10.2266C172.037 10.526 171.9 10.8841 171.809 11.3008C171.718 11.7174 171.672 12.1797 171.672 12.6875V13.0781C171.672 13.5208 171.731 13.931 171.848 14.3086C171.972 14.6862 172.151 15.015 172.385 15.2949C172.626 15.5684 172.913 15.7832 173.245 15.9395C173.583 16.0892 173.967 16.1641 174.397 16.1641C174.937 16.1641 175.426 16.0599 175.862 15.8516C176.305 15.6367 176.689 15.321 177.014 14.9043L178.313 16.252C178.092 16.5775 177.792 16.89 177.415 17.1895C177.043 17.4889 176.594 17.7331 176.067 17.9219C175.54 18.1042 174.931 18.1953 174.241 18.1953ZM186.067 15.1094C186.067 14.888 186.008 14.6895 185.891 14.5137C185.774 14.3379 185.553 14.1784 185.227 14.0352C184.908 13.8854 184.439 13.7454 183.821 13.6152C183.274 13.498 182.769 13.3516 182.307 13.1758C181.845 13 181.448 12.7884 181.116 12.541C180.784 12.2871 180.523 11.9909 180.334 11.6523C180.152 11.3073 180.061 10.9102 180.061 10.4609C180.061 10.0247 180.155 9.61458 180.344 9.23047C180.533 8.83984 180.806 8.49805 181.165 8.20508C181.523 7.9056 181.959 7.67122 182.473 7.50195C182.987 7.32617 183.567 7.23828 184.211 7.23828C185.11 7.23828 185.881 7.38477 186.526 7.67773C187.177 7.9707 187.675 8.37435 188.02 8.88867C188.365 9.39648 188.538 9.9694 188.538 10.6074H185.959C185.959 10.3275 185.894 10.0736 185.764 9.8457C185.64 9.61784 185.448 9.43555 185.188 9.29883C184.928 9.1556 184.599 9.08398 184.202 9.08398C183.844 9.08398 183.541 9.14258 183.293 9.25977C183.053 9.37695 182.87 9.52995 182.747 9.71875C182.623 9.90755 182.561 10.1159 182.561 10.3438C182.561 10.513 182.594 10.666 182.659 10.8027C182.73 10.9329 182.844 11.0534 183 11.1641C183.157 11.2747 183.368 11.3757 183.635 11.4668C183.909 11.5579 184.244 11.6458 184.641 11.7305C185.429 11.8867 186.116 12.0951 186.702 12.3555C187.294 12.6094 187.756 12.9479 188.088 13.3711C188.42 13.7943 188.586 14.3346 188.586 14.9922C188.586 15.4609 188.486 15.8906 188.284 16.2812C188.082 16.6654 187.789 17.0007 187.405 17.2871C187.021 17.5736 186.562 17.7982 186.028 17.9609C185.494 18.1172 184.892 18.1953 184.221 18.1953C183.251 18.1953 182.431 18.0228 181.76 17.6777C181.09 17.3262 180.582 16.8835 180.237 16.3496C179.892 15.8092 179.719 15.2493 179.719 14.6699H182.19C182.209 15.0801 182.32 15.4089 182.522 15.6562C182.724 15.9036 182.978 16.0827 183.284 16.1934C183.596 16.2975 183.925 16.3496 184.27 16.3496C184.661 16.3496 184.989 16.2975 185.256 16.1934C185.523 16.0827 185.725 15.9362 185.862 15.7539C185.999 15.5651 186.067 15.3503 186.067 15.1094Z" fill="#274C5B"/>
<path d="M66.9136 56.9834C66.9136 57.915 66.5767 58.665 65.9028 59.2334C65.229 59.7959 64.2856 60.1328 63.0728 60.2441V62.0459H61.8687V60.2793C60.439 60.25 59.1851 59.998 58.1069 59.5234V57.2031C58.6167 57.4551 59.229 57.6777 59.9438 57.8711C60.6646 58.0645 61.3062 58.1787 61.8687 58.2139V55.4893L61.2798 55.2607C60.1196 54.8037 59.2964 54.3086 58.8101 53.7754C58.3296 53.2363 58.0894 52.5713 58.0894 51.7803C58.0894 50.9307 58.4204 50.2334 59.0825 49.6885C59.7505 49.1377 60.6792 48.8037 61.8687 48.6865V47.3418H63.0728V48.6514C64.4146 48.71 65.6274 48.9795 66.7114 49.46L65.8853 51.5166C64.9712 51.1416 64.0337 50.9131 63.0728 50.8311V53.4238C64.2153 53.8633 65.0269 54.2441 65.5073 54.5664C65.9937 54.8887 66.3481 55.2432 66.5708 55.6299C66.7993 56.0166 66.9136 56.4678 66.9136 56.9834ZM64.2681 57.1152C64.2681 56.8691 64.1685 56.6611 63.9692 56.4912C63.77 56.3213 63.4712 56.1455 63.0728 55.9639V58.1523C63.8696 58.0176 64.2681 57.6719 64.2681 57.1152ZM60.7349 51.7803C60.7349 52.0381 60.8228 52.252 60.9985 52.4219C61.1802 52.5859 61.4702 52.7559 61.8687 52.9316V50.8662C61.1128 50.9775 60.7349 51.2822 60.7349 51.7803ZM75.0347 61H72.3188V53.5645L72.3452 52.3428L72.3892 51.0068C71.938 51.458 71.6245 51.7539 71.4487 51.8945L69.9722 53.0811L68.6626 51.4463L72.8022 48.1504H75.0347V61ZM87.8755 58.3369H86.3286V61H83.6743V58.3369H78.1899V56.4473L83.8237 48.1504H86.3286V56.2275H87.8755V58.3369ZM83.6743 56.2275V54.0479C83.6743 53.6846 83.689 53.1572 83.7183 52.4658C83.7476 51.7744 83.771 51.373 83.7886 51.2617H83.7183C83.5015 51.7422 83.2407 52.2109 82.936 52.668L80.5806 56.2275H83.6743ZM89.1938 59.7432C89.1938 59.251 89.3257 58.8789 89.5894 58.627C89.853 58.375 90.2368 58.249 90.7407 58.249C91.2271 58.249 91.6021 58.3779 91.8657 58.6357C92.1353 58.8936 92.27 59.2627 92.27 59.7432C92.27 60.2061 92.1353 60.5723 91.8657 60.8418C91.5962 61.1055 91.2212 61.2373 90.7407 61.2373C90.2485 61.2373 89.8677 61.1084 89.5981 60.8506C89.3286 60.5869 89.1938 60.2178 89.1938 59.7432ZM102.931 54.5752C102.931 56.8193 102.562 58.4805 101.824 59.5586C101.091 60.6367 99.9604 61.1758 98.4312 61.1758C96.9487 61.1758 95.8296 60.6191 95.0737 59.5059C94.3237 58.3926 93.9487 56.749 93.9487 54.5752C93.9487 52.3076 94.3149 50.6377 95.0474 49.5654C95.7798 48.4873 96.9077 47.9482 98.4312 47.9482C99.9136 47.9482 101.033 48.5107 101.789 49.6357C102.55 50.7607 102.931 52.4072 102.931 54.5752ZM96.647 54.5752C96.647 56.1514 96.7817 57.2822 97.0513 57.9678C97.3267 58.6475 97.7866 58.9873 98.4312 58.9873C99.064 58.9873 99.521 58.6416 99.8022 57.9502C100.083 57.2588 100.224 56.1338 100.224 54.5752C100.224 52.999 100.081 51.8682 99.7935 51.1826C99.5122 50.4912 99.0581 50.1455 98.4312 50.1455C97.7925 50.1455 97.3354 50.4912 97.0601 51.1826C96.7847 51.8682 96.647 52.999 96.647 54.5752ZM113.214 54.5752C113.214 56.8193 112.845 58.4805 112.107 59.5586C111.375 60.6367 110.244 61.1758 108.714 61.1758C107.232 61.1758 106.113 60.6191 105.357 59.5059C104.607 58.3926 104.232 56.749 104.232 54.5752C104.232 52.3076 104.598 50.6377 105.331 49.5654C106.063 48.4873 107.191 47.9482 108.714 47.9482C110.197 47.9482 111.316 48.5107 112.072 49.6357C112.833 50.7607 113.214 52.4072 113.214 54.5752ZM106.93 54.5752C106.93 56.1514 107.065 57.2822 107.334 57.9678C107.61 58.6475 108.07 58.9873 108.714 58.9873C109.347 58.9873 109.804 58.6416 110.085 57.9502C110.367 57.2588 110.507 56.1338 110.507 54.5752C110.507 52.999 110.364 51.8682 110.077 51.1826C109.795 50.4912 109.341 50.1455 108.714 50.1455C108.076 50.1455 107.619 50.4912 107.343 51.1826C107.068 51.8682 106.93 52.999 106.93 54.5752Z" fill="#274C5B"/>
<path d="M5.36621 61.8716V60.3628C4.76074 60.353 4.20166 60.2993 3.68896 60.2017C3.18115 60.0991 2.7417 59.9673 2.37061 59.8062V58.2461C2.74658 58.4219 3.21045 58.5806 3.76221 58.7222C4.31396 58.8638 4.84863 58.9443 5.36621 58.9639V56.2173C4.6582 55.978 4.08203 55.729 3.6377 55.4702C3.19824 55.2114 2.87598 54.9111 2.6709 54.5693C2.46582 54.2227 2.36328 53.8076 2.36328 53.3242C2.36328 52.8262 2.48779 52.3989 2.73682 52.0425C2.99072 51.6812 3.34229 51.3955 3.7915 51.1855C4.24561 50.9756 4.77051 50.8511 5.36621 50.812V49.6182H6.31836V50.79C6.86035 50.8047 7.36084 50.8657 7.81982 50.9731C8.28369 51.0757 8.72559 51.2197 9.14551 51.4053L8.61084 52.7676C8.24463 52.6211 7.86377 52.5015 7.46826 52.4087C7.07275 52.3159 6.68945 52.2524 6.31836 52.2183V54.8989C6.91406 55.0942 7.44385 55.3042 7.90771 55.5288C8.37646 55.7534 8.74268 56.0366 9.00635 56.3784C9.2749 56.7153 9.40918 57.1572 9.40918 57.7041C9.40918 58.4219 9.14551 59.0151 8.61816 59.4839C8.09082 59.9478 7.32422 60.2261 6.31836 60.3188V61.8716H5.36621ZM6.31836 58.9053C6.78711 58.8467 7.13623 58.7246 7.36572 58.5391C7.59521 58.3486 7.70996 58.1021 7.70996 57.7993C7.70996 57.5942 7.66113 57.4209 7.56348 57.2793C7.4707 57.1377 7.32178 57.0107 7.1167 56.8984C6.9165 56.7861 6.65039 56.6763 6.31836 56.5688V58.9053ZM5.36621 54.54V52.2476C5.08301 52.2769 4.84375 52.3354 4.64844 52.4233C4.45312 52.5112 4.30664 52.626 4.20898 52.7676C4.11133 52.9092 4.0625 53.0776 4.0625 53.2729C4.0625 53.4878 4.10645 53.6709 4.19434 53.8223C4.28223 53.9736 4.42139 54.1055 4.61182 54.2178C4.80713 54.3301 5.05859 54.4375 5.36621 54.54ZM18.0811 61H10.8301V59.7036L13.606 56.8911C14.1431 56.3442 14.585 55.873 14.9316 55.4775C15.2783 55.0771 15.5347 54.6987 15.7007 54.3423C15.8716 53.9858 15.957 53.5977 15.957 53.1777C15.957 52.6602 15.8081 52.2695 15.5103 52.0059C15.2124 51.7373 14.8193 51.603 14.3311 51.603C13.8672 51.603 13.4375 51.6958 13.042 51.8813C12.6514 52.062 12.2461 52.3208 11.8262 52.6577L10.8813 51.5225C11.1792 51.2686 11.4966 51.0366 11.8335 50.8267C12.1753 50.6167 12.5562 50.4507 12.9761 50.3286C13.396 50.2017 13.8745 50.1382 14.4116 50.1382C15.0903 50.1382 15.6763 50.2603 16.1694 50.5044C16.6626 50.7437 17.041 51.0781 17.3047 51.5078C17.5732 51.9375 17.7075 52.438 17.7075 53.0093C17.7075 53.5854 17.5928 54.1177 17.3633 54.606C17.1338 55.0942 16.8066 55.5776 16.3818 56.0562C15.957 56.5298 15.4517 57.0449 14.8657 57.6016L13.0127 59.4106V59.4912H18.0811V61ZM26.665 55.6387C26.665 56.5029 26.5967 57.2769 26.46 57.9604C26.3281 58.6392 26.1182 59.2153 25.8301 59.689C25.542 60.1626 25.166 60.5239 24.7021 60.7729C24.2383 61.022 23.6768 61.1465 23.0176 61.1465C22.1924 61.1465 21.5112 60.9292 20.9741 60.4946C20.437 60.0552 20.0391 59.4253 19.7803 58.605C19.5215 57.7798 19.3921 56.791 19.3921 55.6387C19.3921 54.4863 19.5093 53.5 19.7437 52.6797C19.9829 51.8545 20.3687 51.2222 20.9009 50.7827C21.4331 50.3433 22.1387 50.1235 23.0176 50.1235C23.8477 50.1235 24.5312 50.3433 25.0684 50.7827C25.6104 51.2173 26.0107 51.8472 26.2695 52.6724C26.5332 53.4927 26.665 54.4814 26.665 55.6387ZM21.1279 55.6387C21.1279 56.542 21.1865 57.2964 21.3037 57.9019C21.4258 58.5073 21.626 58.9614 21.9043 59.2642C22.1826 59.562 22.5537 59.7109 23.0176 59.7109C23.4814 59.7109 23.8525 59.562 24.1309 59.2642C24.4092 58.9663 24.6094 58.5146 24.7314 57.9092C24.8584 57.3037 24.9219 56.5469 24.9219 55.6387C24.9219 54.7402 24.8608 53.9883 24.7388 53.3828C24.6167 52.7773 24.4165 52.3232 24.1382 52.0205C23.8599 51.7129 23.4863 51.5591 23.0176 51.5591C22.5488 51.5591 22.1753 51.7129 21.897 52.0205C21.6235 52.3232 21.4258 52.7773 21.3037 53.3828C21.1865 53.9883 21.1279 54.7402 21.1279 55.6387ZM28.3057 60.0918C28.3057 59.6914 28.4082 59.4106 28.6133 59.2495C28.8232 59.0835 29.0771 59.0005 29.375 59.0005C29.6729 59.0005 29.9268 59.0835 30.1367 59.2495C30.3516 59.4106 30.459 59.6914 30.459 60.0918C30.459 60.4824 30.3516 60.7656 30.1367 60.9414C29.9268 61.1123 29.6729 61.1978 29.375 61.1978C29.0771 61.1978 28.8232 61.1123 28.6133 60.9414C28.4082 60.7656 28.3057 60.4824 28.3057 60.0918ZM39.3652 55.6387C39.3652 56.5029 39.2969 57.2769 39.1602 57.9604C39.0283 58.6392 38.8184 59.2153 38.5303 59.689C38.2422 60.1626 37.8662 60.5239 37.4023 60.7729C36.9385 61.022 36.377 61.1465 35.7178 61.1465C34.8926 61.1465 34.2114 60.9292 33.6743 60.4946C33.1372 60.0552 32.7393 59.4253 32.4805 58.605C32.2217 57.7798 32.0923 56.791 32.0923 55.6387C32.0923 54.4863 32.2095 53.5 32.4438 52.6797C32.6831 51.8545 33.0688 51.2222 33.6011 50.7827C34.1333 50.3433 34.8389 50.1235 35.7178 50.1235C36.5479 50.1235 37.2314 50.3433 37.7686 50.7827C38.3105 51.2173 38.7109 51.8472 38.9697 52.6724C39.2334 53.4927 39.3652 54.4814 39.3652 55.6387ZM33.8281 55.6387C33.8281 56.542 33.8867 57.2964 34.0039 57.9019C34.126 58.5073 34.3262 58.9614 34.6045 59.2642C34.8828 59.562 35.2539 59.7109 35.7178 59.7109C36.1816 59.7109 36.5527 59.562 36.8311 59.2642C37.1094 58.9663 37.3096 58.5146 37.4316 57.9092C37.5586 57.3037 37.6221 56.5469 37.6221 55.6387C37.6221 54.7402 37.561 53.9883 37.439 53.3828C37.3169 52.7773 37.1167 52.3232 36.8384 52.0205C36.5601 51.7129 36.1865 51.5591 35.7178 51.5591C35.249 51.5591 34.8755 51.7129 34.5972 52.0205C34.3237 52.3232 34.126 52.7773 34.0039 53.3828C33.8867 53.9883 33.8281 54.7402 33.8281 55.6387ZM47.9492 55.6387C47.9492 56.5029 47.8809 57.2769 47.7441 57.9604C47.6123 58.6392 47.4023 59.2153 47.1143 59.689C46.8262 60.1626 46.4502 60.5239 45.9863 60.7729C45.5225 61.022 44.9609 61.1465 44.3018 61.1465C43.4766 61.1465 42.7954 60.9292 42.2583 60.4946C41.7212 60.0552 41.3232 59.4253 41.0645 58.605C40.8057 57.7798 40.6763 56.791 40.6763 55.6387C40.6763 54.4863 40.7935 53.5 41.0278 52.6797C41.2671 51.8545 41.6528 51.2222 42.1851 50.7827C42.7173 50.3433 43.4229 50.1235 44.3018 50.1235C45.1318 50.1235 45.8154 50.3433 46.3525 50.7827C46.8945 51.2173 47.2949 51.8472 47.5537 52.6724C47.8174 53.4927 47.9492 54.4814 47.9492 55.6387ZM42.4121 55.6387C42.4121 56.542 42.4707 57.2964 42.5879 57.9019C42.71 58.5073 42.9102 58.9614 43.1885 59.2642C43.4668 59.562 43.8379 59.7109 44.3018 59.7109C44.7656 59.7109 45.1367 59.562 45.415 59.2642C45.6934 58.9663 45.8936 58.5146 46.0156 57.9092C46.1426 57.3037 46.2061 56.5469 46.2061 55.6387C46.2061 54.7402 46.145 53.9883 46.0229 53.3828C45.9009 52.7773 45.7007 52.3232 45.4224 52.0205C45.144 51.7129 44.7705 51.5591 44.3018 51.5591C43.833 51.5591 43.4595 51.7129 43.1812 52.0205C42.9077 52.3232 42.71 52.7773 42.5879 53.3828C42.4707 53.9883 42.4121 54.7402 42.4121 55.6387Z" fill="#B8B8B8"/>
<rect x="0.090332" y="55" width="50" height="1" fill="#B8B8B8"/>
<path d="M203.768 48.0937C204.076 47.19 205.354 47.19 205.662 48.0937L206.645 50.9831C206.783 51.3884 207.164 51.6609 207.592 51.6609H210.672C211.652 51.6609 212.047 52.9242 211.242 53.4826L208.831 55.1546C208.464 55.409 208.311 55.8758 208.454 56.2985L209.394 59.0586C209.705 59.9718 208.67 60.7523 207.877 60.2025L205.285 58.4046C204.942 58.1668 204.488 58.1668 204.145 58.4046L201.553 60.2025C200.76 60.7523 199.725 59.9718 200.036 59.0586L200.976 56.2985C201.119 55.8758 200.966 55.409 200.599 55.1546L198.188 53.4826C197.383 52.9242 197.778 51.6609 198.758 51.6609H201.838C202.266 51.6609 202.647 51.3884 202.785 50.9831L203.768 48.0937Z" fill="#FFA858"/>
<path d="M219.951 48.2396C220.25 47.3183 221.554 47.3183 221.853 48.2396L222.74 50.9699C222.874 51.3819 223.258 51.6609 223.691 51.6609H226.562C227.531 51.6609 227.934 52.9005 227.15 53.4699L224.827 55.1574C224.477 55.412 224.33 55.8634 224.464 56.2754L225.351 59.0058C225.651 59.9271 224.596 60.6932 223.812 60.1238L221.49 58.4364C221.139 58.1817 220.665 58.1817 220.314 58.4364L217.992 60.1238C217.208 60.6932 216.154 59.9271 216.453 59.0058L217.34 56.2754C217.474 55.8634 217.327 55.412 216.977 55.1574L214.654 53.4699C213.871 52.9005 214.273 51.6609 215.242 51.6609H218.113C218.546 51.6609 218.93 51.3819 219.064 50.9699L219.951 48.2396Z" fill="#FFA858"/>
<path d="M236.142 48.0937C236.45 47.19 237.728 47.19 238.036 48.0937L239.019 50.9831C239.157 51.3884 239.538 51.6609 239.966 51.6609H243.046C244.026 51.6609 244.421 52.9242 243.616 53.4826L241.205 55.1546C240.838 55.409 240.685 55.8758 240.829 56.2985L241.768 59.0586C242.079 59.9718 241.044 60.7523 240.251 60.2025L237.659 58.4046C237.316 58.1668 236.862 58.1668 236.519 58.4046L233.927 60.2025C233.134 60.7523 232.099 59.9718 232.41 59.0586L233.35 56.2985C233.494 55.8758 233.34 55.409 232.973 55.1546L230.562 53.4826C229.757 52.9242 230.152 51.6609 231.132 51.6609H234.212C234.64 51.6609 235.021 51.3884 235.159 50.9831L236.142 48.0937Z" fill="#FFA858"/>
<path d="M252.325 48.2396C252.624 47.3183 253.928 47.3183 254.227 48.2396L255.114 50.9699C255.248 51.3819 255.632 51.6609 256.065 51.6609H258.936C259.905 51.6609 260.308 52.9005 259.524 53.4699L257.201 55.1574C256.851 55.412 256.704 55.8634 256.838 56.2754L257.725 59.0058C258.025 59.9271 256.97 60.6932 256.186 60.1238L253.864 58.4364C253.513 58.1817 253.039 58.1817 252.688 58.4364L250.366 60.1238C249.582 60.6932 248.528 59.9271 248.827 59.0058L249.714 56.2754C249.848 55.8634 249.701 55.412 249.351 55.1574L247.028 53.4699C246.245 52.9005 246.647 51.6609 247.616 51.6609H250.487C250.92 51.6609 251.304 51.3819 251.438 50.9699L252.325 48.2396Z" fill="#FFA858"/>
<path d="M268.516 48.0937C268.824 47.19 270.102 47.19 270.41 48.0937L271.393 50.9831C271.531 51.3884 271.912 51.6609 272.34 51.6609H275.42C276.4 51.6609 276.795 52.9242 275.99 53.4826L273.579 55.1546C273.212 55.409 273.059 55.8758 273.203 56.2985L274.142 59.0586C274.453 59.9718 273.418 60.7523 272.625 60.2025L270.033 58.4046C269.69 58.1668 269.236 58.1668 268.893 58.4046L266.301 60.2025C265.508 60.7523 264.473 59.9718 264.784 59.0586L265.724 56.2985C265.868 55.8758 265.714 55.409 265.347 55.1546L262.936 53.4826C262.131 52.9242 262.526 51.6609 263.506 51.6609H266.586C267.014 51.6609 267.395 51.3884 267.533 50.9831L268.516 48.0937Z" fill="#FFA858"/>
<path d="M0.090332 36L275.079 36" stroke="#DEDDDD"/>
</svg>
